{
.appVersion = "1271";
copyright = "Copyright \\(c\\) 2014 by Robert E. Leuschke. All rights reserved.";
customParameters = (
{
name = description;
value = "Copyright (c) 2014 by Robert E. Leuschke. All rights reserved.";
},
{
name = trademark;
value = "WindSong is a trademark of Robert E. Leuschke.";
},
{
name = licenseURL;
value = "http://www.typesetit.com/license.html";
},
{
name = license;

glyphs = (
{
glyphname = numbersign;
layers = (
{
hints = (
{
horizontal = 1;
place = "{149, 25}";
type = Stem;
},
{
horizontal = 1;
place = "{296, 25}";
type = Stem;
},
{
place = "{288, 19}";
type = Stem;
},
{
place = "{477, 19}";
type = Stem;
},
{
horizontal = 1;
place = "{307, 15}";
type = Stem;
},
{
horizontal = 1;
place = "{153, 22}";
type = Stem;
},
{
horizontal = 1;
place = "{157, 18}";
type = Stem;
}
);
layerId = "B8E2B95E-9E44-4943-9D49-9B6A251F446D";
paths = (
{
closed = 1;
nodes = (
"703 322 OFFCURVE",
"677 323 OFFCURVE",
"646 323 CURVE",
"662 349 OFFCURVE",
"678 377 OFFCURVE",
"697 406 CURVE SMOOTH",
"749 486 LINE",
"749 491 LINE SMOOTH",
"748 498 OFFCURVE",
"740 502 OFFCURVE",
"728 501 CURVE",
"723 502 OFFCURVE",
"718 500 OFFCURVE",
"715 498 CURVE",
"688 459 OFFCURVE",
"668 428 OFFCURVE",
"658 407 CURVE SMOOTH",
"641 378 OFFCURVE",
"626 350 OFFCURVE",
"611 323 CURVE",
"564 323 OFFCURVE",
"510 322 OFFCURVE",
"457 322 CURVE",
"472 349 OFFCURVE",
"489 377 OFFCURVE",
"508 406 CURVE SMOOTH",
"560 486 LINE",
"560 491 LINE SMOOTH",
"559 498 OFFCURVE",
"551 502 OFFCURVE",
"539 501 CURVE",
"534 502 OFFCURVE",
"529 500 OFFCURVE",
"526 498 CURVE",
"499 459 OFFCURVE",
"479 428 OFFCURVE",
"469 407 CURVE SMOOTH",
"452 378 OFFCURVE",
"436 349 OFFCURVE",
"421 321 CURVE",
"380 321 OFFCURVE",
"341 320 OFFCURVE",
"314 320 CURVE SMOOTH",
"243 318 OFFCURVE",
"247 296 OFFCURVE",
"280 296 CURVE SMOOTH",
"321 296 OFFCURVE",
"364 296 OFFCURVE",
"408 297 CURVE",
"386 254 OFFCURVE",
"367 213 OFFCURVE",
"351 174 CURVE",
"314 174 OFFCURVE",
"281 173 OFFCURVE",
"257 173 CURVE SMOOTH",
"186 171 OFFCURVE",
"189 149 OFFCURVE",
"222 149 CURVE SMOOTH",
"260 149 OFFCURVE",
"300 149 OFFCURVE",
"341 150 CURVE",
"316 88 OFFCURVE",
"298 30 OFFCURVE",
"288 -22 CURVE SMOOTH",
"283 -49 OFFCURVE",
"280 -67 OFFCURVE",
"282 -72 CURVE SMOOTH",
"285 -79 OFFCURVE",
"307 -86 OFFCURVE",
"307 -75 CURVE SMOOTH",
"309 -47 OFFCURVE",
"313 -28 OFFCURVE",
"314 -20 CURVE SMOOTH",
"324 28 OFFCURVE",
"342 85 OFFCURVE",
"370 151 CURVE",
"532 155 LINE",
"506 91 OFFCURVE",
"488 32 OFFCURVE",
"477 -22 CURVE SMOOTH",
"472 -49 OFFCURVE",
"469 -67 OFFCURVE",
"471 -72 CURVE SMOOTH",
"474 -79 OFFCURVE",
"496 -86 OFFCURVE",
"496 -75 CURVE SMOOTH",
"498 -47 OFFCURVE",
"502 -28 OFFCURVE",
"503 -20 CURVE SMOOTH",
"513 29 OFFCURVE",
"532 88 OFFCURVE",
"561 156 CURVE",
"661 159 LINE SMOOTH",
"685 160 OFFCURVE",
"705 164 OFFCURVE",
"705 168 CURVE SMOOTH",
"705 171 OFFCURVE",
"692 174 OFFCURVE",
"661 175 CURVE SMOOTH",
"643 175 OFFCURVE",
"609 176 OFFCURVE",
"570 176 CURVE",
"588 216 OFFCURVE",
"609 259 OFFCURVE",
"635 304 CURVE",
"718 307 LINE SMOOTH",
"743 307 OFFCURVE",
"762 311 OFFCURVE",
"762 315 CURVE SMOOTH",
"762 318 OFFCURVE",
"750 322 OFFCURVE",
"718 322 CURVE SMOOTH"
);
},
{
closed = 1;
nodes = (
"398 213 OFFCURVE",
"418 254 OFFCURVE",
"443 298 CURVE",
"496 299 OFFCURVE",
"549 301 OFFCURVE",
"600 303 CURVE",
"577 258 OFFCURVE",
"557 216 OFFCURVE",
"540 176 CURVE",
"490 176 OFFCURVE",
"433 175 OFFCURVE",
"380 175 CURVE"
);
}
);
width = 769;
}
);
note = numbersign;
unicode = 0023;
},
{
glyphname = dollar;
layers = (
{
hints = (
{
horizontal = 1;
place = "{14, 30}";
type = Stem;
},
{
horizontal = 1;
place = "{532, -20}";
target = down;
type = TopGhost;
},
{
place = "{132, 19}";
type = Stem;
},
{
place = "{582, 34}";
type = Stem;
}
);
layerId = "B8E2B95E-9E44-4943-9D49-9B6A251F446D";
paths = (
{
closed = 1;
nodes = (
"623 427 OFFCURVE",
"612 462 OFFCURVE",
"583 472 CURVE",
"602 491 OFFCURVE",
"616 505 OFFCURVE",
"619 510 CURVE",
"623 521 OFFCURVE",
"618 530 OFFCURVE",
"605 532 CURVE",
"598 532 OFFCURVE",
"574 510 OFFCURVE",
"544 479 CURVE",
"499 481 OFFCURVE",
"436 478 OFFCURVE",
"383 458 CURVE SMOOTH",
"316 434 OFFCURVE",
"274 395 OFFCURVE",
"263 359 CURVE SMOOTH",
"253 322 OFFCURVE",
"278 272 OFFCURVE",
"334 226 CURVE",
"289 164 OFFCURVE",
"247 101 OFFCURVE",
"216 48 CURVE",
"184 53 OFFCURVE",
"155 96 OFFCURVE",
"151 132 CURVE SMOOTH",
"149 155 OFFCURVE",
"132 160 OFFCURVE",
"132 128 CURVE SMOOTH",
"132 82 OFFCURVE",
"166 37 OFFCURVE",
"206 25 CURVE",
"181 -20 OFFCURVE",
"167 -50 OFFCURVE",
"164 -64 CURVE SMOOTH",
"162 -70 OFFCURVE",
"162 -73 OFFCURVE",
"170 -73 CURVE SMOOTH",
"188 -73 OFFCURVE",
"193 -50 OFFCURVE",
"199 -37 CURVE SMOOTH",
"206 -20 OFFCURVE",
"214 -2 OFFCURVE",
"227 19 CURVE",
"236 17 OFFCURVE",
"246 16 OFFCURVE",
"257 14 CURVE SMOOTH",
"316 8 OFFCURVE",
"419 42 OFFCURVE",
"439 108 CURVE SMOOTH",
"451 156 OFFCURVE",
"397 205 OFFCURVE",
"370 234 CURVE",
"418 298 OFFCURVE",
"491 379 OFFCURVE",
"554 446 CURVE",
"580 440 OFFCURVE",
"587 424 OFFCURVE",
"582 408 CURVE",
"580 396 OFFCURVE",
"564 379 OFFCURVE",
"538 359 CURVE SMOOTH",
"512 340 OFFCURVE",
"584 346 OFFCURVE",
"611 402 CURVE SMOOTH"
);
},
{
closed = 1;
nodes = (
"314 293 OFFCURVE",
"300 334 OFFCURVE",
"308 360 CURVE SMOOTH",
"318 390 OFFCURVE",
"349 416 OFFCURVE",
"401 433 CURVE SMOOTH",
"440 445 OFFCURVE",
"481 450 OFFCURVE",
"516 448 CURVE",
"458 389 OFFCURVE",
"403 322 OFFCURVE",
"352 251 CURVE"
);
},
{
closed = 1;
nodes = (
"406 56 OFFCURVE",
"288 38 OFFCURVE",
"240 44 CURVE",
"270 100 OFFCURVE",
"307 155 OFFCURVE",
"352 210 CURVE",
"398 173 OFFCURVE",
"427 143 OFFCURVE",
"419 116 CURVE"
);
}
);
width = 494;
}
);
note = dollar;
unicode = 0024;
},
{
glyphname = percent;
layers = (
{
hints = (
{
horizontal = 1;
place = "{-18, 14}";
type = Stem;
},
{
horizontal = 1;
place = "{213, 14}";
type = Stem;
},
{
horizontal = 1;
place = "{317, 16}";
type = Stem;
},
{
horizontal = 1;
place = "{371, 7}";
type = Stem;
},
{
place = "{111, 25}";
type = Stem;
},
{
place = "{179, 34}";
type = Stem;
},
{
place = "{305, 13}";
type = Stem;
},
{
place = "{381, 22}";
type = Stem;
},
{
place = "{495, 13}";
type = Stem;
},
{
horizontal = 1;
place = "{318, 19}";
type = Stem;
},
{
horizontal = 1;
place = "{-32, 21}";
target = up;
type = BottomGhost;
},
{
horizontal = 1;
place = "{357, 8}";
type = Stem;
},
{
horizontal = 1;
place = "{93, 53}";
type = Stem;
},
{
place = "{302, 25}";
type = Stem;
}
);
layerId = "B8E2B95E-9E44-4943-9D49-9B6A251F446D";
paths = (
{
closed = 1;
nodes = (
"318 368 OFFCURVE",
"301 377 OFFCURVE",
"280 378 CURVE SMOOTH",
"260 378 OFFCURVE",
"227 371 OFFCURVE",
"205 359 CURVE",
"197 362 LINE",
"187 364 OFFCURVE",
"171 354 OFFCURVE",
"183 346 CURVE SMOOTH",
"209 330 OFFCURVE",
"250 321 OFFCURVE",
"294 318 CURVE",
"266 277 OFFCURVE",
"191 232 OFFCURVE",
"163 227 CURVE SMOOTH",
"143 223 OFFCURVE",
"136 229 OFFCURVE",
"136 237 CURVE SMOOTH",
"136 247 OFFCURVE",
"147 263 OFFCURVE",
"156 273 CURVE SMOOTH",
"167 285 OFFCURVE",
"198 312 OFFCURVE",
"207 306 CURVE",
"211 302 OFFCURVE",
"218 310 OFFCURVE",
"207 315 CURVE",
"207 317 OFFCURVE",
"188 326 OFFCURVE",
"184 326 CURVE",
"160 321 OFFCURVE",
"128 288 OFFCURVE",
"115 263 CURVE SMOOTH",
"105 241 OFFCURVE",
"113 213 OFFCURVE",
"146 213 CURVE SMOOTH",
"209 213 OFFCURVE",
"293 255 OFFCURVE",
"313 317 CURVE",
"355 316 OFFCURVE",
"397 320 OFFCURVE",
"431 326 CURVE",
"403 302 LINE SMOOTH",
"296 201 OFFCURVE",
"172 86 OFFCURVE",
"131 -27 CURVE",
"127 -34 OFFCURVE",
"140 -33 OFFCURVE",
"143 -28 CURVE SMOOTH",
"204 87 OFFCURVE",
"343 207 OFFCURVE",
"445 298 CURVE SMOOTH",
"473 322 OFFCURVE",
"494 342 OFFCURVE",
"507 353 CURVE",
"508 355 OFFCURVE",
"510 356 OFFCURVE",
"511 357 CURVE",
"511 363 OFFCURVE",
"493 366 OFFCURVE",
"483 365 CURVE SMOOTH",
"479 365 OFFCURVE",
"475 364 OFFCURVE",
"473 362 CURVE SMOOTH",
"453 346 LINE",
"424 336 OFFCURVE",
"394 333 OFFCURVE",
"362 333 CURVE SMOOTH",
"347 333 OFFCURVE",
"332 333 OFFCURVE",
"317 335 CURVE",
"318 339 OFFCURVE",
"318 342 OFFCURVE",
"318 346 CURVE SMOOTH"
);
},
{
closed = 1;
nodes = (
"508 137 OFFCURVE",
"492 146 OFFCURVE",
"471 146 CURVE SMOOTH",
"450 146 OFFCURVE",
"413 138 OFFCURVE",
"391 125 CURVE SMOOTH",
"371 113 OFFCURVE",
"385 82 OFFCURVE",
"400 97 CURVE SMOOTH",
"421 117 OFFCURVE",
"436 140 OFFCURVE",
"468 140 CURVE SMOOTH",
"482 140 OFFCURVE",
"493 134 OFFCURVE",
"495 122 CURVE SMOOTH",
"504 75 OFFCURVE",
"391 2 OFFCURVE",
"354 -4 CURVE SMOOTH",
"334 -8 OFFCURVE",
"327 -2 OFFCURVE",
"327 6 CURVE SMOOTH",
"327 16 OFFCURVE",
"337 31 OFFCURVE",
"347 41 CURVE SMOOTH",
"358 54 OFFCURVE",
"388 81 OFFCURVE",
"398 75 CURVE",
"401 71 OFFCURVE",
"408 79 OFFCURVE",
"397 84 CURVE",
"397 86 OFFCURVE",
"379 95 OFFCURVE",
"374 95 CURVE",
"350 90 OFFCURVE",
"319 57 OFFCURVE",
"306 32 CURVE SMOOTH",
"296 10 OFFCURVE",
"303 -18 OFFCURVE",
"336 -18 CURVE SMOOTH",
"409 -18 OFFCURVE",
"508 38 OFFCURVE",
"508 114 CURVE SMOOTH"
);
},
{
closed = 1;
nodes = (
"238 362 OFFCURVE",
"255 371 OFFCURVE",
"278 371 CURVE SMOOTH",
"292 371 OFFCURVE",
"303 366 OFFCURVE",
"305 353 CURVE SMOOTH",
"306 348 OFFCURVE",
"305 342 OFFCURVE",
"303 337 CURVE",
"277 340 OFFCURVE",
"251 346 OFFCURVE",
"228 352 CURVE"
);
}
);
width = 500;
}
);
note = percent;
unicode = 0025;
},
{
glyphname = ampersand;
layers = (
{
hints = (
{
horizontal = 1;
place = "{-31, 20}";
type = Stem;
},
{
horizontal = 1;
place = "{464, 18}";
type = Stem;
},
{
place = "{7, 31}";
type = Stem;
},
{
place = "{148, 32}";
type = Stem;
},
{
place = "{236, 12}";
type = Stem;
},
{
place = "{458, 20}";
type = Stem;
},
{
place = "{488, 25}";
type = Stem;
}
);
layerId = "B8E2B95E-9E44-4943-9D49-9B6A251F446D";
paths = (
{
closed = 1;
nodes = (
"596 236 OFFCURVE",
"585 233 OFFCURVE",
"588 226 CURVE",
"590 217 OFFCURVE",
"590 208 OFFCURVE",
"590 199 CURVE SMOOTH",
"590 71 OFFCURVE",
"391 -18 OFFCURVE",
"275 -18 CURVE SMOOTH",
"208 -18 OFFCURVE",
"183 8 OFFCURVE",
"183 42 CURVE SMOOTH",
"183 100 OFFCURVE",
"254 181 OFFCURVE",
"319 204 CURVE SMOOTH",
"379 225 OFFCURVE",
"385 251 OFFCURVE",
"349 251 CURVE SMOOTH",
"338 251 OFFCURVE",
"322 249 OFFCURVE",
"304 243 CURVE",
"283 252 OFFCURVE",
"268 269 OFFCURVE",
"268 300 CURVE SMOOTH",
"268 345 OFFCURVE",
"291 434 OFFCURVE",
"507 486 CURVE SMOOTH",
"546 496 OFFCURVE",
"597 504 OFFCURVE",
"641 504 CURVE SMOOTH",
"694 504 OFFCURVE",
"739 492 OFFCURVE",
"744 455 CURVE SMOOTH",
"752 409 OFFCURVE",
"650 360 OFFCURVE",
"592 347 CURVE SMOOTH",
"569 342 OFFCURVE",
"572 328 OFFCURVE",
"609 335 CURVE SMOOTH",
"670 346 OFFCURVE",
"771 409 OFFCURVE",
"762 462 CURVE SMOOTH",
"755 512 OFFCURVE",
"682 532 OFFCURVE",
"603 532 CURVE SMOOTH",
"563 532 OFFCURVE",
"521 527 OFFCURVE",
"485 518 CURVE SMOOTH",
"379 493 OFFCURVE",
"238 420 OFFCURVE",
"238 321 CURVE SMOOTH",
"238 276 OFFCURVE",
"265 251 OFFCURVE",
"289 237 CURVE",
"288 237 LINE",
"224 213 OFFCURVE",
"138 131 OFFCURVE",
"140 60 CURVE SMOOTH",
"142 -14 OFFCURVE",
"200 -37 OFFCURVE",
"268 -37 CURVE SMOOTH",
"343 -37 OFFCURVE",
"433 -9 OFFCURVE",
"475 14 CURVE SMOOTH",
"549 53 OFFCURVE",
"609 122 OFFCURVE",
"609 190 CURVE SMOOTH",
"609 204 OFFCURVE",
"607 216 OFFCURVE",
"601 227 CURVE SMOOTH"
);
},
{
closed = 1;
nodes = (
"875 281 OFFCURVE",
"910 308 OFFCURVE",
"910 341 CURVE SMOOTH",
"910 364 OFFCURVE",
"883 384 OFFCURVE",
"863 384 CURVE SMOOTH",
"845 384 OFFCURVE",
"870 372 OFFCURVE",
"873 371 CURVE SMOOTH",
"883 366 OFFCURVE",
"885 357 OFFCURVE",
"885 351 CURVE SMOOTH",
"885 345 OFFCURVE",
"880 339 OFFCURVE",
"870 331 CURVE SMOOTH",
"772 263 OFFCURVE",
"577 285 OFFCURVE",
"463 246 CURVE SMOOTH",
"395 221 OFFCURVE",
"369 176 OFFCURVE",
"369 112 CURVE SMOOTH",
"369 98 OFFCURVE",
"379 100 OFFCURVE",
"379 110 CURVE SMOOTH",
"379 146 OFFCURVE",
"412 183 OFFCURVE",
"456 204 CURVE SMOOTH",
"531 240 OFFCURVE",
"688 251 OFFCURVE",
"781 266 CURVE SMOOTH"
);
}
);
width = 672;
}
);
note = ampersand;
unicode = 0026;
},
{
glyphname = parenleft;
layers = (
{
hints = (
{
place = "{38, 30}";
type = Stem;
}
);
layerId = "B8E2B95E-9E44-4943-9D49-9B6A251F446D";
paths = (
{
closed = 1;
nodes = (
"636 528 OFFCURVE",
"624 538 OFFCURVE",
"615 537 CURVE SMOOTH",
"413 522 OFFCURVE",
"219 279 OFFCURVE",
"188 139 CURVE SMOOTH",
"180 105 OFFCURVE",
"177 72 OFFCURVE",
"177 42 CURVE SMOOTH",
"177 -52 OFFCURVE",
"209 -122 OFFCURVE",
"245 -136 CURVE SMOOTH",
"257 -140 OFFCURVE",
"244 -125 OFFCURVE",
"243 -121 CURVE",
"228 -89 OFFCURVE",
"220 -55 OFFCURVE",
"220 -12 CURVE SMOOTH",
"220 24 OFFCURVE",
"226 65 OFFCURVE",
"236 115 CURVE SMOOTH",
"269 274 OFFCURVE",
"460 492 OFFCURVE",
"616 523 CURVE SMOOTH"
);
}
);
width = 318;
}
);
note = parenleft;
unicode = 0028;
},
{
glyphname = parenright;
layers = (
{
hints = (
{
place = "{312, 28}";
type = Stem;
}
);
layerId = "B8E2B95E-9E44-4943-9D49-9B6A251F446D";
paths = (
{
closed = 1;
nodes = (
"-28 -130 OFFCURVE",
"-16 -140 OFFCURVE",
"-7 -139 CURVE SMOOTH",
"195 -124 OFFCURVE",
"389 119 OFFCURVE",
"420 259 CURVE SMOOTH",
"428 293 OFFCURVE",
"431 326 OFFCURVE",
"431 356 CURVE SMOOTH",
"431 450 OFFCURVE",
"399 520 OFFCURVE",
"363 534 CURVE SMOOTH",
"351 538 OFFCURVE",
"364 523 OFFCURVE",
"365 519 CURVE",
"380 487 OFFCURVE",
"388 453 OFFCURVE",
"388 410 CURVE SMOOTH",
"388 374 OFFCURVE",
"382 333 OFFCURVE",
"372 283 CURVE SMOOTH",
"339 124 OFFCURVE",
"148 -94 OFFCURVE",
"-8 -125 CURVE SMOOTH"
);
}
);
width = 370;
}
);
note = parenright;
unicode = 0029;
},
{
glyphname = asterisk;
layers = (
{
hints = (
{
horizontal = 1;
place = "{448, 21}";
type = Stem;
},
{
place = "{216, 374}";
type = Stem;
},
{
place = "{342, 14}";
type = Stem;
}
);
layerId = "B8E2B95E-9E44-4943-9D49-9B6A251F446D";
paths = (
{
closed = 1;
nodes = (
"591 458 OFFCURVE",
"588 463 OFFCURVE",
"583 464 CURVE",
"441 475 LINE",
"535 606 LINE SMOOTH",
"541 615 OFFCURVE",
"530 623 OFFCURVE",
"523 615 CURVE SMOOTH",
"411 494 LINE",
"356 614 LINE SMOOTH",
"354 619 OFFCURVE",
"349 619 OFFCURVE",
"346 617 CURVE",
"343 616 OFFCURVE",
"340 612 OFFCURVE",
"342 608 CURVE",
"374 475 LINE",
"224 464 LINE",
"220 463 OFFCURVE",
"217 460 OFFCURVE",
"216 457 CURVE SMOOTH",
"215 453 OFFCURVE",
"218 448 OFFCURVE",
"223 448 CURVE SMOOTH",
"365 436 LINE",
"271 305 LINE SMOOTH",
"265 296 OFFCURVE",
"276 288 OFFCURVE",
"283 296 CURVE SMOOTH",
"394 417 LINE",
"450 298 LINE SMOOTH",
"452 293 OFFCURVE",
"456 293 OFFCURVE",
"460 294 CURVE SMOOTH",
"462 295 OFFCURVE",
"466 300 OFFCURVE",
"464 304 CURVE",
"432 436 LINE",
"581 448 LINE SMOOTH",
"586 448 OFFCURVE",
"589 452 OFFCURVE",
"590 455 CURVE SMOOTH"
);
}
);
width = 500;
}
);
note = asterisk;
unicode = 002A;
},
{
glyphname = plus;
layers = (
{
hints = (
{
horizontal = 1;
place = "{110, 105}";
type = Stem;
}
);
layerId = "B8E2B95E-9E44-4943-9D49-9B6A251F446D";
paths = (
{
closed = 1;
nodes = (
"466 184 OFFCURVE",
"465 185 OFFCURVE",
"462 186 CURVE SMOOTH",
"436 193 OFFCURVE",
"411 197 OFFCURVE",
"337 198 CURVE",
"371 281 OFFCURVE",
"373 294 OFFCURVE",
"384 325 CURVE",
"384 344 OFFCURVE",
"347 329 OFFCURVE",
"344 320 CURVE SMOOTH",
"323 265 OFFCURVE",
"319 250 OFFCURVE",
"299 198 CURVE",
"230 197 OFFCURVE",
"210 195 OFFCURVE",
"183 191 CURVE",
"183 191 OFFCURVE",
"181 190 OFFCURVE",
"180 189 CURVE",
"180 185 OFFCURVE",
"183 180 OFFCURVE",
"188 174 CURVE SMOOTH",
"193 169 OFFCURVE",
"197 166 OFFCURVE",
"201 166 CURVE SMOOTH",
"218 166 OFFCURVE",
"274 172 OFFCURVE",
"290 173 CURVE",
"279 148 OFFCURVE",
"252 62 OFFCURVE",
"249 45 CURVE SMOOTH",
"247 35 OFFCURVE",
"243 10 OFFCURVE",
"247 10 CURVE SMOOTH",
"248 10 OFFCURVE",
"254 15 OFFCURVE",
"254 16 CURVE",
"278 62 OFFCURVE",
"253 16 OFFCURVE",
"327 174 CURVE",
"389 177 OFFCURVE",
"419 178 OFFCURVE",
"455 178 CURVE SMOOTH",
"461 178 OFFCURVE",
"465 180 OFFCURVE",
"466 183 CURVE SMOOTH"
);
}
);
width = 377;
}
);
note = plus;
unicode = 002B;
},
{
glyphname = comma;
layers = (
{
hints = (
{
horizontal = 1;
place = "{-11, 21}";
target = up;
type = BottomGhost;
},
{
place = "{201, 90}";
type = Stem;
}
);
layerId = "B8E2B95E-9E44-4943-9D49-9B6A251F446D";
paths = (
{
closed = 1;
nodes = (
"256 55 OFFCURVE",
"234 45 OFFCURVE",
"227 27 CURVE SMOOTH",
"219 9 OFFCURVE",
"232 -11 OFFCURVE",
"249 -11 CURVE",
"241 -39 OFFCURVE",
"217 -69 OFFCURVE",
"209 -77 CURVE SMOOTH",
"194 -92 OFFCURVE",
"201 -95 OFFCURVE",
"212 -90 CURVE SMOOTH",
"245 -76 OFFCURVE",
"267 -33 OFFCURVE",
"282 -1 CURVE SMOOTH",
"294 25 OFFCURVE",
"295 44 OFFCURVE",
"278 49 CURVE SMOOTH"
);
}
);
width = 306;
}
);
note = comma;
unicode = 002C;
},
{
glyphname = hyphen;
layers = (
{
hints = (
{
horizontal = 1;
place = "{168, 32}";
type = Stem;
},
{
place = "{213, 262}";
type = Stem;
}
);
layerId = "B8E2B95E-9E44-4943-9D49-9B6A251F446D";
paths = (
{
closed = 1;
nodes = (
"423 200 OFFCURVE",
"396 201 OFFCURVE",
"374 201 CURVE SMOOTH",
"355 201 OFFCURVE",
"339 200 OFFCURVE",
"325 200 CURVE SMOOTH",
"298 200 OFFCURVE",
"260 198 OFFCURVE",
"244 195 CURVE SMOOTH",
"208 187 OFFCURVE",
"207 168 OFFCURVE",
"223 168 CURVE SMOOTH",
"297 168 OFFCURVE",
"383 174 OFFCURVE",
"452 178 CURVE SMOOTH",
"475 179 OFFCURVE",
"489 185 OFFCURVE",
"452 193 CURVE SMOOTH"
);
}
);
width = 512;
}
);
note = hyphen;
unicode = 002D;
},
{
glyphname = period;
layers = (
{
hints = (
{
horizontal = 1;
place = "{-10, 21}";
target = up;
type = BottomGhost;
},
{
place = "{231, 63}";
type = Stem;
},
{
horizontal = 1;
place = "{-10, 58}";
type = Stem;
}
);
layerId = "B8E2B95E-9E44-4943-9D49-9B6A251F446D";
paths = (
{
closed = 1;
nodes = (
"268 50 OFFCURVE",
"241 44 OFFCURVE",
"234 26 CURVE SMOOTH",
"226 8 OFFCURVE",
"233 -8 OFFCURVE",
"247 -10 CURVE SMOOTH",
"261 -12 OFFCURVE",
"279 -2 OFFCURVE",
"288 15 CURVE SMOOTH",
"297 32 OFFCURVE",
"297 47 OFFCURVE",
"285 48 CURVE SMOOTH"
);
}
);
width = 315;
}
);
note = period;
unicode = 002E;
},
{
glyphname = slash;
layers = (
{
hints = (
{
horizontal = 1;
place = "{-10, 23}";
type = Stem;
},
{
horizontal = 1;
place = "{182, 33}";
type = Stem;
},
{
horizontal = 1;
place = "{266, -20}";
target = down;
type = TopGhost;
},
{
horizontal = 1;
place = "{273, 15}";
type = Stem;
},
{
place = "{13, 17}";
type = Stem;
},
{
place = "{38, 424}";
type = Stem;
},
{
horizontal = 1;
place = "{-24, 21}";
target = up;
type = BottomGhost;
}
);
layerId = "B8E2B95E-9E44-4943-9D49-9B6A251F446D";
paths = (
{
closed = 1;
nodes = (
"672 485 OFFCURVE",
"666 490 OFFCURVE",
"653 490 CURVE",
"648 491 OFFCURVE",
"643 490 OFFCURVE",
"638 487 CURVE SMOOTH",
"591 454 OFFCURVE",
"557 427 OFFCURVE",
"535 408 CURVE SMOOTH",
"356 262 OFFCURVE",
"227 134 OFFCURVE",
"145 22 CURVE SMOOTH",
"126 -3 OFFCURVE",
"116 -19 OFFCURVE",
"115 -24 CURVE SMOOTH",
"114 -29 OFFCURVE",
"124 -34 OFFCURVE",
"129 -34 CURVE SMOOTH",
"133 -34 OFFCURVE",
"137 -32 OFFCURVE",
"139 -29 CURVE SMOOTH",
"155 -3 OFFCURVE",
"167 14 OFFCURVE",
"173 22 CURVE SMOOTH",
"245 118 OFFCURVE",
"372 246 OFFCURVE",
"575 403 CURVE SMOOTH",
"667 473 LINE SMOOTH",
"669 475 OFFCURVE",
"670 476 OFFCURVE",
"670 477 CURVE SMOOTH"
);
}
);
width = 449;
}
);
note = slash;
unicode = 002F;
},
{
glyphname = zero;
layers = (
{
hints = (
{
horizontal = 1;
place = "{-29, 15}";
type = Stem;
},
{
horizontal = 1;
place = "{378, 14}";
type = Stem;
},
{
place = "{94, 46}";
type = Stem;
},
{
place = "{642, 49}";
type = Stem;
}
);
layerId = "B8E2B95E-9E44-4943-9D49-9B6A251F446D";
paths = (
{
closed = 1;
nodes = (
"715 296 OFFCURVE",
"716 308 OFFCURVE",
"716 320 CURVE SMOOTH",
"716 372 OFFCURVE",
"688 416 OFFCURVE",
"606 416 CURVE SMOOTH",
"554 416 OFFCURVE",
"457 385 OFFCURVE",
"374 334 CURVE SMOOTH",
"322 300 OFFCURVE",
"274 251 OFFCURVE",
"271 234 CURVE SMOOTH",
"270 229 OFFCURVE",
"274 224 OFFCURVE",
"277 228 CURVE SMOOTH",
"307 264 OFFCURVE",
"378 318 OFFCURVE",
"400 331 CURVE SMOOTH",
"478 377 OFFCURVE",
"559 400 OFFCURVE",
"610 400 CURVE SMOOTH",
"665 400 OFFCURVE",
"681 377 OFFCURVE",
"681 340 CURVE SMOOTH",
"681 328 OFFCURVE",
"680 314 OFFCURVE",
"677 300 CURVE SMOOTH",
"648 149 OFFCURVE",
"410 -38 OFFCURVE",
"264 -32 CURVE SMOOTH",
"181 -30 OFFCURVE",
"154 36 OFFCURVE",
"166 97 CURVE SMOOTH",
"206 293 OFFCURVE",
"415 437 OFFCURVE",
"596 456 CURVE",
"600 457 OFFCURVE",
"605 457 OFFCURVE",
"606 461 CURVE SMOOTH",
"607 466 OFFCURVE",
"596 468 OFFCURVE",
"578 468 CURVE SMOOTH",
"539 469 OFFCURVE",
"482 460 OFFCURVE",
"422 433 CURVE SMOOTH",
"361 408 OFFCURVE",
"311 379 OFFCURVE",
"272 349 CURVE",
"200 284 OFFCURVE",
"154 211 OFFCURVE",
"136 126 CURVE SMOOTH",
"133 111 OFFCURVE",
"132 97 OFFCURVE",
"132 84 CURVE SMOOTH",
"132 51 OFFCURVE",
"141 23 OFFCURVE",
"157 0 CURVE SMOOTH",
"179 -30 OFFCURVE",
"220 -49 OFFCURVE",
"262 -50 CURVE SMOOTH",
"446 -59 OFFCURVE",
"673 112 OFFCURVE",
"712 284 CURVE SMOOTH"
);
}
);
width = 590;
}
);
note = zero;
unicode = 0030;
},
{
glyphname = one;
layers = (
{
hints = (
{
horizontal = 1;
place = "{-19, 24}";
type = Stem;
},
{
horizontal = 1;
place = "{-35, 21}";
target = up;
type = BottomGhost;
},
{
horizontal = 1;
place = "{238, 34}";
type = Stem;
},
{
horizontal = 1;
place = "{284, 16}";
type = Stem;
},
{
place = "{-16, 17}";
type = Stem;
},
{
place = "{137, 19}";
type = Stem;
},
{
place = "{137, 271}";
type = Stem;
},
{
place = "{223, 100}";
type = Stem;
}
);
layerId = "B8E2B95E-9E44-4943-9D49-9B6A251F446D";
paths = (
{
closed = 1;
nodes = (
"150 -18 OFFCURVE",
"296 10 OFFCURVE",
"395 18 CURVE",
"403 17 OFFCURVE",
"400 29 OFFCURVE",
"392 29 CURVE",
"344 23 OFFCURVE",
"282 24 OFFCURVE",
"220 23 CURVE",
"278 152 OFFCURVE",
"365 317 OFFCURVE",
"448 430 CURVE",
"446 454 OFFCURVE",
"436 463 OFFCURVE",
"413 463 CURVE SMOOTH",
"409 463 OFFCURVE",
"407 463 OFFCURVE",
"406 462 CURVE SMOOTH",
"364 426 OFFCURVE",
"200 293 OFFCURVE",
"179 274 CURVE",
"173 266 OFFCURVE",
"170 263 OFFCURVE",
"170 258 CURVE SMOOTH",
"170 254 OFFCURVE",
"172 252 OFFCURVE",
"175 252 CURVE SMOOTH",
"179 252 OFFCURVE",
"185 254 OFFCURVE",
"191 260 CURVE",
"198 264 OFFCURVE",
"336 370 OFFCURVE",
"338 370 CURVE",
"301 282 OFFCURVE",
"250 130 OFFCURVE",
"199 30 CURVE",
"198 26 OFFCURVE",
"198 24 OFFCURVE",
"198 23 CURVE SMOOTH",
"198 22 LINE",
"148 20 OFFCURVE",
"98 14 OFFCURVE",
"60 2 CURVE SMOOTH",
"39 -5 OFFCURVE",
"31 -18 OFFCURVE",
"31 -29 CURVE SMOOTH",
"31 -43 OFFCURVE",
"43 -54 OFFCURVE",
"60 -48 CURVE SMOOTH"
);
}
);
width = 348;
}
);
note = one;
unicode = 0031;
},
{
glyphname = two;
layers = (
{
hints = (
{
horizontal = 1;
place = "{-14, 24}";
type = Stem;
},
{
horizontal = 1;
place = "{40, 16}";
type = Stem;
},
{
horizontal = 1;
place = "{425, 14}";
type = Stem;
},
{
place = "{563, 42}";
type = Stem;
}
);
layerId = "B8E2B95E-9E44-4943-9D49-9B6A251F446D";
paths = (
{
closed = 1;
nodes = (
"350 431 OFFCURVE",
"285 365 OFFCURVE",
"272 350 CURVE",
"266 354 OFFCURVE",
"257 362 OFFCURVE",
"249 371 CURVE",
"239 379 OFFCURVE",
"228 372 OFFCURVE",
"238 364 CURVE SMOOTH",
"249 354 OFFCURVE",
"255 347 OFFCURVE",
"262 342 CURVE",
"252 334 OFFCURVE",
"249 319 OFFCURVE",
"246 308 CURVE SMOOTH",
"238 263 OFFCURVE",
"286 230 OFFCURVE",
"317 230 CURVE SMOOTH",
"331 230 OFFCURVE",
"342 237 OFFCURVE",
"342 252 CURVE SMOOTH",
"342 260 OFFCURVE",
"339 271 OFFCURVE",
"332 284 CURVE SMOOTH",
"323 301 OFFCURVE",
"308 317 OFFCURVE",
"292 331 CURVE",
"312 355 OFFCURVE",
"436 443 OFFCURVE",
"574 443 CURVE SMOOTH",
"614 443 OFFCURVE",
"634 427 OFFCURVE",
"630 396 CURVE SMOOTH",
"623 354 OFFCURVE",
"572 295 OFFCURVE",
"474 218 CURVE SMOOTH",
"404 161 OFFCURVE",
"346 118 OFFCURVE",
"282 82 CURVE SMOOTH",
"243 60 OFFCURVE",
"201 29 OFFCURVE",
"168 18 CURVE",
"122 10 LINE",
"89 -1 OFFCURVE",
"101 -35 OFFCURVE",
"124 -32 CURVE",
"188 -15 OFFCURVE",
"382 28 OFFCURVE",
"522 28 CURVE SMOOTH",
"609 28 OFFCURVE",
"675 11 OFFCURVE",
"675 -39 CURVE SMOOTH",
"675 -54 OFFCURVE",
"669 -70 OFFCURVE",
"657 -91 CURVE SMOOTH",
"646 -109 OFFCURVE",
"662 -103 OFFCURVE",
"669 -92 CURVE SMOOTH",
"690 -63 OFFCURVE",
"698 -40 OFFCURVE",
"698 -20 CURVE SMOOTH",
"698 24 OFFCURVE",
"657 47 OFFCURVE",
"627 53 CURVE SMOOTH",
"590 59 OFFCURVE",
"552 62 OFFCURVE",
"513 62 CURVE SMOOTH",
"423 62 OFFCURVE",
"330 48 OFFCURVE",
"238 31 CURVE",
"370 126 OFFCURVE",
"646 250 OFFCURVE",
"675 382 CURVE",
"682 448 OFFCURVE",
"624 463 OFFCURVE",
"564 463 CURVE SMOOTH",
"529 463 OFFCURVE",
"494 458 OFFCURVE",
"471 454 CURVE SMOOTH"
);
},
{
closed = 1;
nodes = (
"298 305 OFFCURVE",
"306 295 OFFCURVE",
"315 280 CURVE",
"321 265 OFFCURVE",
"321 240 OFFCURVE",
"300 260 CURVE",
"279 286 OFFCURVE",
"281 313 OFFCURVE",
"281 319 CURVE"
);
}
);
width = 672;
}
);
note = two;
unicode = 0032;
},
{
glyphname = three;
layers = (
{
hints = (
{
horizontal = 1;
place = "{-35, 17}";
type = Stem;
},
{
horizontal = 1;
place = "{403, 30}";
type = Stem;
},
{
place = "{92, 18}";
type = Stem;
},
{
place = "{400, 49}";
type = Stem;
},
{
place = "{456, 48}";
type = Stem;
}
);
layerId = "B8E2B95E-9E44-4943-9D49-9B6A251F446D";
paths = (
{
closed = 1;
nodes = (
"442 269 LINE SMOOTH",
"516 275 OFFCURVE",
"548 242 OFFCURVE",
"548 193 CURVE SMOOTH",
"548 136 OFFCURVE",
"480 18 OFFCURVE",
"310 -37 CURVE SMOOTH",
"272 -49 OFFCURVE",
"225 -60 OFFCURVE",
"186 -60 CURVE SMOOTH",
"136 -60 OFFCURVE",
"97 -43 OFFCURVE",
"97 6 CURVE SMOOTH",
"97 79 OFFCURVE",
"181 149 OFFCURVE",
"245 173 CURVE SMOOTH",
"258 179 OFFCURVE",
"257 190 OFFCURVE",
"244 185 CURVE SMOOTH",
"164 160 OFFCURVE",
"54 86 OFFCURVE",
"54 11 CURVE SMOOTH",
"54 -55 OFFCURVE",
"120 -76 OFFCURVE",
"197 -76 CURVE SMOOTH",
"250 -76 OFFCURVE",
"308 -66 OFFCURVE",
"353 -52 CURVE SMOOTH",
"440 -23 OFFCURVE",
"595 77 OFFCURVE",
"595 186 CURVE SMOOTH",
"595 199 OFFCURVE",
"593 213 OFFCURVE",
"588 226 CURVE SMOOTH",
"571 269 OFFCURVE",
"515 277 OFFCURVE",
"468 276 CURVE",
"532 296 OFFCURVE",
"601 335 OFFCURVE",
"607 391 CURVE SMOOTH",
"611 422 OFFCURVE",
"581 446 OFFCURVE",
"551 450 CURVE SMOOTH",
"539 451 OFFCURVE",
"524 453 OFFCURVE",
"507 453 CURVE SMOOTH",
"452 453 OFFCURVE",
"380 440 OFFCURVE",
"326 386 CURVE SMOOTH",
"310 368 OFFCURVE",
"317 355 OFFCURVE",
"329 367 CURVE",
"357 401 OFFCURVE",
"413 421 OFFCURVE",
"476 421 CURVE SMOOTH",
"487 421 OFFCURVE",
"498 420 OFFCURVE",
"509 419 CURVE SMOOTH",
"533 417 OFFCURVE",
"550 404 OFFCURVE",
"550 385 CURVE SMOOTH",
"550 366 OFFCURVE",
"533 341 OFFCURVE",
"487 311 CURVE SMOOTH",
"449 286 OFFCURVE",
"432 280 OFFCURVE",
"403 278 CURVE",
"400 280 OFFCURVE",
"395 280 OFFCURVE",
"390 280 CURVE",
"384 282 OFFCURVE",
"379 282 OFFCURVE",
"377 283 CURVE",
"356 286 OFFCURVE",
"347 278 OFFCURVE",
"346 266 CURVE",
"344 259 OFFCURVE",
"348 256 OFFCURVE",
"355 256 CURVE",
"361 254 OFFCURVE",
"370 256 OFFCURVE",
"380 259 CURVE",
"391 260 OFFCURVE",
"401 262 OFFCURVE",
"440 269 CURVE SMOOTH"
);
}
);
width = 540;
}
);
note = three;
unicode = 0033;
},
{
glyphname = four;
layers = (
{
hints = (
{
horizontal = 1;
place = "{-35, 24}";
type = Stem;
}
);
layerId = "B8E2B95E-9E44-4943-9D49-9B6A251F446D";
paths = (
{
closed = 1;
nodes = (
"526 486 OFFCURVE",
"524 486 OFFCURVE",
"523 485 CURVE SMOOTH",
"441 400 OFFCURVE",
"235 216 OFFCURVE",
"165 158 CURVE",
"148 161 OFFCURVE",
"131 162 OFFCURVE",
"115 162 CURVE SMOOTH",
"94 162 OFFCURVE",
"75 159 OFFCURVE",
"58 150 CURVE SMOOTH",
"35 138 OFFCURVE",
"66 110 OFFCURVE",
"106 110 CURVE SMOOTH",
"126 110 OFFCURVE",
"148 117 OFFCURVE",
"167 138 CURVE",
"213 131 OFFCURVE",
"272 114 OFFCURVE",
"339 106 CURVE",
"317 55 OFFCURVE",
"296 6 OFFCURVE",
"275 -38 CURVE SMOOTH",
"264 -64 OFFCURVE",
"266 -74 OFFCURVE",
"273 -74 CURVE SMOOTH",
"280 -74 OFFCURVE",
"291 -65 OFFCURVE",
"297 -50 CURVE SMOOTH",
"317 -4 OFFCURVE",
"341 48 OFFCURVE",
"368 103 CURVE",
"382 102 OFFCURVE",
"396 102 OFFCURVE",
"411 102 CURVE SMOOTH",
"429 102 OFFCURVE",
"447 102 OFFCURVE",
"466 104 CURVE SMOOTH",
"571 116 OFFCURVE",
"665 161 OFFCURVE",
"695 262 CURVE SMOOTH",
"703 289 OFFCURVE",
"697 326 OFFCURVE",
"671 335 CURVE",
"665 336 OFFCURVE",
"657 331 OFFCURVE",
"668 324 CURVE SMOOTH",
"678 319 OFFCURVE",
"682 310 OFFCURVE",
"682 299 CURVE SMOOTH",
"682 288 OFFCURVE",
"678 276 OFFCURVE",
"674 263 CURVE SMOOTH",
"643 173 OFFCURVE",
"502 134 OFFCURVE",
"380 130 CURVE",
"436 245 OFFCURVE",
"502 364 OFFCURVE",
"567 448 CURVE",
"583 463 OFFCURVE",
"543 486 OFFCURVE",
"530 486 CURVE SMOOTH"
);
},
{
closed = 1;
nodes = (
"241 140 OFFCURVE",
"214 148 OFFCURVE",
"185 154 CURVE",
"220 184 OFFCURVE",
"389 310 OFFCURVE",
"453 373 CURVE",
"425 305 OFFCURVE",
"388 216 OFFCURVE",
"350 128 CURVE",
"319 128 OFFCURVE",
"289 131 OFFCURVE",
"265 136 CURVE SMOOTH"
);
}
);
width = 475;
}
);
note = four;
unicode = 0034;
},
{
glyphname = five;
layers = (
{
hints = (
{
horizontal = 1;
place = "{-26, 21}";
type = Stem;
},
{
horizontal = 1;
place = "{271, 22}";
type = Stem;
},
{
place = "{408, 56}";
type = Stem;
}
);
layerId = "B8E2B95E-9E44-4943-9D49-9B6A251F446D";
paths = (
{
closed = 1;
nodes = (
"523 418 OFFCURVE",
"644 432 OFFCURVE",
"695 433 CURVE SMOOTH",
"707 433 OFFCURVE",
"710 446 OFFCURVE",
"697 448 CURVE",
"643 450 OFFCURVE",
"487 439 OFFCURVE",
"468 439 CURVE",
"461 444 OFFCURVE",
"446 448 OFFCURVE",
"439 446 CURVE",
"430 449 OFFCURVE",
"389 427 OFFCURVE",
"388 415 CURVE",
"386 413 OFFCURVE",
"400 403 OFFCURVE",
"410 395 CURVE",
"372 347 OFFCURVE",
"347 307 OFFCURVE",
"329 271 CURVE SMOOTH",
"325 262 OFFCURVE",
"317 241 OFFCURVE",
"329 239 CURVE SMOOTH",
"342 235 OFFCURVE",
"352 235 OFFCURVE",
"361 246 CURVE",
"367 259 LINE",
"368 259 LINE SMOOTH",
"371 259 OFFCURVE",
"388 265 OFFCURVE",
"403 271 CURVE SMOOTH",
"426 279 OFFCURVE",
"454 285 OFFCURVE",
"480 285 CURVE SMOOTH",
"527 285 OFFCURVE",
"568 266 OFFCURVE",
"568 210 CURVE SMOOTH",
"568 152 OFFCURVE",
"499 35 OFFCURVE",
"329 -20 CURVE SMOOTH",
"291 -32 OFFCURVE",
"242 -43 OFFCURVE",
"200 -43 CURVE SMOOTH",
"147 -43 OFFCURVE",
"103 -26 OFFCURVE",
"103 23 CURVE SMOOTH",
"103 96 OFFCURVE",
"200 166 OFFCURVE",
"264 190 CURVE SMOOTH",
"277 196 OFFCURVE",
"276 206 OFFCURVE",
"263 202 CURVE SMOOTH",
"184 176 OFFCURVE",
"73 103 OFFCURVE",
"73 28 CURVE SMOOTH",
"73 -38 OFFCURVE",
"139 -60 OFFCURVE",
"216 -60 CURVE SMOOTH",
"269 -60 OFFCURVE",
"327 -49 OFFCURVE",
"372 -35 CURVE SMOOTH",
"459 -7 OFFCURVE",
"614 93 OFFCURVE",
"614 202 CURVE SMOOTH",
"614 215 OFFCURVE",
"612 229 OFFCURVE",
"607 242 CURVE SMOOTH",
"591 282 OFFCURVE",
"544 295 OFFCURVE",
"495 295 CURVE SMOOTH",
"449 295 OFFCURVE",
"401 284 OFFCURVE",
"373 272 CURVE",
"378 283 OFFCURVE",
"382 294 OFFCURVE",
"385 299 CURVE SMOOTH",
"402 330 OFFCURVE",
"426 374 OFFCURVE",
"446 394 CURVE"
);
}
);
width = 504;
}
);
note = five;
unicode = 0035;
},
{
glyphname = six;
layers = (
{
hints = (
{
horizontal = 1;
place = "{-30, 16}";
type = Stem;
},
{
horizontal = 1;
place = "{-11, 22}";
type = Stem;
},
{
horizontal = 1;
place = "{250, 19}";
type = Stem;
},
{
horizontal = 1;
place = "{313, -20}";
target = down;
type = TopGhost;
},
{
place = "{22, 25}";
type = Stem;
},
{
place = "{110, 47}";
type = Stem;
},
{
place = "{224, 24}";
type = Stem;
},
{
place = "{280, 18}";
type = Stem;
},
{
place = "{377, 51}";
type = Stem;
}
);
layerId = "B8E2B95E-9E44-4943-9D49-9B6A251F446D";
paths = (
{
closed = 1;
nodes = (
"386 449 OFFCURVE",
"95 249 OFFCURVE",
"95 82 CURVE SMOOTH",
"95 63 OFFCURVE",
"99 44 OFFCURVE",
"107 26 CURVE SMOOTH",
"129 -22 OFFCURVE",
"174 -42 OFFCURVE",
"226 -42 CURVE SMOOTH",
"314 -42 OFFCURVE",
"424 15 OFFCURVE",
"484 92 CURVE SMOOTH",
"506 118 OFFCURVE",
"519 154 OFFCURVE",
"519 184 CURVE SMOOTH",
"519 206 OFFCURVE",
"512 224 OFFCURVE",
"496 232 CURVE SMOOTH",
"487 237 OFFCURVE",
"471 241 OFFCURVE",
"450 241 CURVE SMOOTH",
"391 241 OFFCURVE",
"291 209 OFFCURVE",
"194 79 CURVE SMOOTH",
"192 76 OFFCURVE",
"198 72 OFFCURVE",
"208 77 CURVE",
"290 172 OFFCURVE",
"371 209 OFFCURVE",
"421 209 CURVE SMOOTH",
"456 209 OFFCURVE",
"476 191 OFFCURVE",
"470 162 CURVE SMOOTH",
"452 84 OFFCURVE",
"290 -42 OFFCURVE",
"188 -20 CURVE SMOOTH",
"148 -12 OFFCURVE",
"134 23 OFFCURVE",
"134 61 CURVE SMOOTH",
"134 91 OFFCURVE",
"143 122 OFFCURVE",
"154 148 CURVE SMOOTH",
"206 258 OFFCURVE",
"413 443 OFFCURVE",
"578 464 CURVE SMOOTH",
"607 468 OFFCURVE",
"595 480 OFFCURVE",
"580 478 CURVE SMOOTH"
);
}
);
width = 468;
}
);
note = six;
unicode = 0036;
},
{
glyphname = seven;
layers = (
{
hints = (
{
horizontal = 1;
place = "{-30, 24}";
type = Stem;
},
{
horizontal = 1;
place = "{423, 21}";
target = up;
type = BottomGhost;
},
{
place = "{447, 45}";
type = Stem;
}
);
layerId = "B8E2B95E-9E44-4943-9D49-9B6A251F446D";
paths = (
{
closed = 1;
nodes = (
"197 -100 OFFCURVE",
"177 -90 OFFCURVE",
"165 -83 CURVE SMOOTH",
"100 -43 OFFCURVE",
"541 416 OFFCURVE",
"585 385 CURVE",
"598 378 OFFCURVE",
"610 374 OFFCURVE",
"616 374 CURVE SMOOTH",
"629 374 OFFCURVE",
"627 384 OFFCURVE",
"603 394 CURVE",
"628 404 OFFCURVE",
"616 419 OFFCURVE",
"595 416 CURVE",
"570 409 LINE",
"510 426 LINE SMOOTH",
"467 441 OFFCURVE",
"405 453 OFFCURVE",
"342 453 CURVE SMOOTH",
"238 453 OFFCURVE",
"132 422 OFFCURVE",
"105 328 CURVE SMOOTH",
"99 305 OFFCURVE",
"121 271 OFFCURVE",
"143 264 CURVE SMOOTH",
"148 263 OFFCURVE",
"163 268 OFFCURVE",
"155 275 CURVE",
"141 282 OFFCURVE",
"144 301 OFFCURVE",
"153 322 CURVE",
"177 397 OFFCURVE",
"301 428 OFFCURVE",
"402 428 CURVE SMOOTH",
"427 428 OFFCURVE",
"452 426 OFFCURVE",
"472 422 CURVE SMOOTH",
"498 419 OFFCURVE",
"525 410 OFFCURVE",
"552 401 CURVE",
"450 349 OFFCURVE",
"198 91 OFFCURVE",
"165 42 CURVE SMOOTH",
"138 3 OFFCURVE",
"126 -30 OFFCURVE",
"126 -54 CURVE SMOOTH",
"126 -78 OFFCURVE",
"139 -93 OFFCURVE",
"161 -96 CURVE SMOOTH"
);
}
);
width = 432;
}
);
note = seven;
unicode = 0037;
},
{
glyphname = eight;
layers = (
{
hints = (
{
horizontal = 1;
place = "{-14, 14}";
type = Stem;
},
{
horizontal = 1;
place = "{437, 17}";
type = Stem;
},
{
place = "{130, 43}";
type = Stem;
},
{
place = "{275, 33}";
type = Stem;
},
{
place = "{330, 46}";
type = Stem;
}
);
layerId = "B8E2B95E-9E44-4943-9D49-9B6A251F446D";
paths = (
{
closed = 1;
nodes = (
"649 450 OFFCURVE",
"636 456 OFFCURVE",
"622 450 CURVE SMOOTH",
"605 443 OFFCURVE",
"605 443 OFFCURVE",
"563 421 CURVE",
"539 458 OFFCURVE",
"494 468 OFFCURVE",
"450 473 CURVE SMOOTH",
"340 484 OFFCURVE",
"275 421 OFFCURVE",
"275 343 CURVE SMOOTH",
"275 319 OFFCURVE",
"281 286 OFFCURVE",
"295 258 CURVE",
"226 205 OFFCURVE",
"110 134 OFFCURVE",
"110 52 CURVE SMOOTH",
"110 5 OFFCURVE",
"143 -17 OFFCURVE",
"192 -17 CURVE SMOOTH",
"241 -17 OFFCURVE",
"289 -6 OFFCURVE",
"330 28 CURVE SMOOTH",
"366 59 OFFCURVE",
"383 96 OFFCURVE",
"383 139 CURVE SMOOTH",
"383 175 OFFCURVE",
"371 215 OFFCURVE",
"348 259 CURVE",
"349 265 OFFCURVE",
"378 288 OFFCURVE",
"439 328 CURVE SMOOTH",
"498 367 OFFCURVE",
"546 395 OFFCURVE",
"552 395 CURVE",
"564 376 OFFCURVE",
"563 368 OFFCURVE",
"564 365 CURVE",
"565 353 OFFCURVE",
"581 341 OFFCURVE",
"581 372 CURVE SMOOTH",
"581 379 OFFCURVE",
"577 398 OFFCURVE",
"572 407 CURVE",
"582 409 OFFCURVE",
"598 420 OFFCURVE",
"624 434 CURVE SMOOTH"
);
},
{
closed = 1;
nodes = (
"487 370 OFFCURVE",
"370 305 OFFCURVE",
"338 282 CURVE",
"322 314 OFFCURVE",
"313 338 OFFCURVE",
"313 355 CURVE SMOOTH",
"313 419 OFFCURVE",
"383 455 OFFCURVE",
"444 455 CURVE SMOOTH",
"492 455 OFFCURVE",
"538 424 OFFCURVE",
"546 406 CURVE"
);
},
{
closed = 1;
nodes = (
"340 139 OFFCURVE",
"340 129 OFFCURVE",
"340 120 CURVE SMOOTH",
"340 46 OFFCURVE",
"288 -1 OFFCURVE",
"203 -1 CURVE SMOOTH",
"173 -1 OFFCURVE",
"158 14 OFFCURVE",
"158 46 CURVE SMOOTH",
"158 72 OFFCURVE",
"166 103 OFFCURVE",
"204 148 CURVE SMOOTH",
"239 188 OFFCURVE",
"288 221 OFFCURVE",
"304 234 CURVE",
"320 205 OFFCURVE",
"335 168 OFFCURVE",
"338 149 CURVE SMOOTH"
);
}
);
width = 444;
}
);
note = eight;
unicode = 0038;
},
{
glyphname = nine;
layers = (
{
hints = (
{
horizontal = 1;
place = "{-30, 16}";
type = Stem;
},
{
horizontal = 1;
place = "{-11, 22}";
type = Stem;
},
{
horizontal = 1;
place = "{157, 27}";
type = Stem;
},
{
horizontal = 1;
place = "{250, 19}";
type = Stem;
},
{
horizontal = 1;
place = "{313, -20}";
target = down;
type = TopGhost;
},
{
horizontal = 1;
place = "{446, 16}";
type = Stem;
},
{
place = "{32, 25}";
type = Stem;
},
{
place = "{120, 47}";
type = Stem;
},
{
place = "{150, 48}";
type = Stem;
},
{
place = "{234, 24}";
type = Stem;
},
{
place = "{290, 18}";
type = Stem;
},
{
place = "{387, 51}";
type = Stem;
},
{
place = "{479, 18}";
type = Stem;
}
);
layerId = "B8E2B95E-9E44-4943-9D49-9B6A251F446D";
paths = (
{
closed = 1;
nodes = (
"297 -40 OFFCURVE",
"564 160 OFFCURVE",
"545 347 CURVE SMOOTH",
"538 420 OFFCURVE",
"507 469 OFFCURVE",
"419 466 CURVE SMOOTH",
"302 460 OFFCURVE",
"123 338 OFFCURVE",
"136 212 CURVE SMOOTH",
"138 188 OFFCURVE",
"152 167 OFFCURVE",
"178 157 CURVE SMOOTH",
"187 154 OFFCURVE",
"202 151 OFFCURVE",
"220 151 CURVE SMOOTH",
"276 151 OFFCURVE",
"369 176 OFFCURVE",
"454 278 CURVE",
"456 282 OFFCURVE",
"456 290 OFFCURVE",
"448 288 CURVE",
"395 238 OFFCURVE",
"334 198 OFFCURVE",
"288 188 CURVE SMOOTH",
"272 184 OFFCURVE",
"259 183 OFFCURVE",
"247 183 CURVE SMOOTH",
"205 183 OFFCURVE",
"190 205 OFFCURVE",
"190 234 CURVE SMOOTH",
"190 265 OFFCURVE",
"207 303 OFFCURVE",
"230 332 CURVE SMOOTH",
"273 386 OFFCURVE",
"342 437 OFFCURVE",
"420 440 CURVE SMOOTH",
"484 443 OFFCURVE",
"503 402 OFFCURVE",
"503 355 CURVE SMOOTH",
"503 323 OFFCURVE",
"494 288 OFFCURVE",
"485 262 CURVE SMOOTH",
"446 148 OFFCURVE",
"272 -34 OFFCURVE",
"108 -64 CURVE SMOOTH",
"80 -68 OFFCURVE",
"93 -79 OFFCURVE",
"108 -77 CURVE SMOOTH"
);
}
);
width = 420;
}
);
note = nine;
unicode = 0039;
},
{
glyphname = colon;
layers = (
{
hints = (
{
horizontal = 1;
place = "{-10, 21}";
target = up;
type = BottomGhost;
},
{
place = "{201, 63}";
type = Stem;
},
{
place = "{304, 63}";
type = Stem;
},
{
horizontal = 1;
place = "{-10, 58}";
type = Stem;
}
);
layerId = "B8E2B95E-9E44-4943-9D49-9B6A251F446D";
paths = (
{
closed = 1;
nodes = (
"238 50 OFFCURVE",
"211 44 OFFCURVE",
"204 26 CURVE SMOOTH",
"196 8 OFFCURVE",
"203 -8 OFFCURVE",
"217 -10 CURVE SMOOTH",
"231 -12 OFFCURVE",
"249 -2 OFFCURVE",
"258 15 CURVE SMOOTH",
"267 32 OFFCURVE",
"267 47 OFFCURVE",
"255 48 CURVE SMOOTH"
);
},
{
closed = 1;
nodes = (
"341 322 OFFCURVE",
"314 316 OFFCURVE",
"307 298 CURVE SMOOTH",
"299 280 OFFCURVE",
"306 264 OFFCURVE",
"320 262 CURVE SMOOTH",
"334 260 OFFCURVE",
"352 270 OFFCURVE",
"361 287 CURVE SMOOTH",
"370 304 OFFCURVE",
"370 319 OFFCURVE",
"358 320 CURVE SMOOTH"
);
}
);
width = 294;
}
);
note = colon;
unicode = 003A;
},
{
glyphname = semicolon;
layers = (
{
hints = (
{
horizontal = 1;
place = "{-11, 21}";
target = up;
type = BottomGhost;
},
{
horizontal = 1;
place = "{262, 58}";
type = Stem;
},
{
place = "{168, 90}";
type = Stem;
},
{
place = "{309, 63}";
type = Stem;
}
);
layerId = "B8E2B95E-9E44-4943-9D49-9B6A251F446D";
paths = (
{
closed = 1;
nodes = (
"346 322 OFFCURVE",
"319 316 OFFCURVE",
"312 298 CURVE SMOOTH",
"304 280 OFFCURVE",
"311 264 OFFCURVE",
"325 262 CURVE SMOOTH",
"339 260 OFFCURVE",
"357 270 OFFCURVE",
"366 287 CURVE SMOOTH",
"375 304 OFFCURVE",
"375 319 OFFCURVE",
"363 320 CURVE SMOOTH"
);
},
{
closed = 1;
nodes = (
"223 55 OFFCURVE",
"201 45 OFFCURVE",
"194 27 CURVE SMOOTH",
"186 9 OFFCURVE",
"199 -11 OFFCURVE",
"216 -11 CURVE",
"208 -39 OFFCURVE",
"184 -69 OFFCURVE",
"176 -77 CURVE SMOOTH",
"161 -92 OFFCURVE",
"168 -95 OFFCURVE",
"179 -90 CURVE SMOOTH",
"212 -76 OFFCURVE",
"234 -33 OFFCURVE",
"249 -1 CURVE SMOOTH",
"261 25 OFFCURVE",
"262 44 OFFCURVE",
"245 49 CURVE SMOOTH"
);
}
);
width = 294;
}
);
note = semicolon;
unicode = 003B;
},
{
glyphname = less;
layers = (
{
hints = (
{
horizontal = 1;
place = "{136, 306}";
type = Stem;
},
{
place = "{84, 144}";
type = Stem;
}
);
layerId = "B8E2B95E-9E44-4943-9D49-9B6A251F446D";
paths = (
{
closed = 1;
nodes = (
"371 418 OFFCURVE",
"360 434 OFFCURVE",
"334 414 CURVE SMOOTH",
"315 398 OFFCURVE",
"272 365 OFFCURVE",
"225 322 CURVE SMOOTH",
"171 272 OFFCURVE",
"143 247 OFFCURVE",
"141 240 CURVE",
"139 237 OFFCURVE",
"140 235 OFFCURVE",
"141 234 CURVE SMOOTH",
"182 188 OFFCURVE",
"244 113 OFFCURVE",
"268 61 CURVE SMOOTH",
"279 37 OFFCURVE",
"287 72 OFFCURVE",
"279 93 CURVE SMOOTH",
"276 100 OFFCURVE",
"229 162 OFFCURVE",
"196 244 CURVE",
"216 275 OFFCURVE",
"327 378 OFFCURVE",
"360 407 CURVE SMOOTH"
);
}
);
width = 373;
}
);
note = less;
unicode = 003C;
},
{
glyphname = equal;
layers = (
{
hints = (
{
horizontal = 1;
place = "{110, 105}";
type = Stem;
}
);
layerId = "B8E2B95E-9E44-4943-9D49-9B6A251F446D";
paths = (
{
closed = 1;
nodes = (
"463 255 OFFCURVE",
"450 259 OFFCURVE",
"425 261 CURVE SMOOTH",
"367 266 OFFCURVE",
"341 266 OFFCURVE",
"311 266 CURVE SMOOTH",
"286 266 OFFCURVE",
"266 265 OFFCURVE",
"251 261 CURVE SMOOTH",
"221 253 OFFCURVE",
"206 245 OFFCURVE",
"206 236 CURVE SMOOTH",
"206 232 OFFCURVE",
"215 229 OFFCURVE",
"232 229 CURVE SMOOTH",
"301 234 OFFCURVE",
"351 243 OFFCURVE",
"425 243 CURVE SMOOTH",
"450 243 OFFCURVE",
"463 246 OFFCURVE",
"463 251 CURVE SMOOTH"
);
},
{
closed = 1;
nodes = (
"424 126 OFFCURVE",
"410 130 OFFCURVE",
"385 132 CURVE SMOOTH",
"327 138 OFFCURVE",
"305 142 OFFCURVE",
"275 142 CURVE SMOOTH",
"250 142 OFFCURVE",
"231 140 OFFCURVE",
"216 136 CURVE SMOOTH",
"186 128 OFFCURVE",
"170 120 OFFCURVE",
"170 111 CURVE SMOOTH",
"170 106 OFFCURVE",
"180 104 OFFCURVE",
"196 104 CURVE SMOOTH",
"267 104 OFFCURVE",
"311 110 OFFCURVE",
"385 114 CURVE SMOOTH",
"410 115 OFFCURVE",
"424 117 OFFCURVE",
"424 122 CURVE SMOOTH"
);
}
);
width = 377;
}
);
note = equal;
unicode = 003D;
},
{
glyphname = greater;
layers = (
{
hints = (
{
horizontal = 1;
place = "{129, 306}";
type = Stem;
},
{
place = "{89, 144}";
type = Stem;
}
);
layerId = "B8E2B95E-9E44-4943-9D49-9B6A251F446D";
paths = (
{
closed = 1;
nodes = (
"144 53 OFFCURVE",
"155 37 OFFCURVE",
"181 57 CURVE SMOOTH",
"200 73 OFFCURVE",
"243 106 OFFCURVE",
"290 149 CURVE SMOOTH",
"344 199 OFFCURVE",
"372 224 OFFCURVE",
"374 231 CURVE",
"376 234 OFFCURVE",
"375 236 OFFCURVE",
"374 237 CURVE SMOOTH",
"333 283 OFFCURVE",
"271 358 OFFCURVE",
"247 410 CURVE SMOOTH",
"236 434 OFFCURVE",
"228 399 OFFCURVE",
"236 378 CURVE SMOOTH",
"239 371 OFFCURVE",
"286 309 OFFCURVE",
"319 227 CURVE",
"299 196 OFFCURVE",
"188 93 OFFCURVE",
"155 64 CURVE SMOOTH"
);
}
);
width = 318;
}
);
note = greater;
unicode = 003E;
},
{
glyphname = exclam;
layers = (
{
hints = (
{
horizontal = 1;
place = "{-10, 21}";
target = up;
type = BottomGhost;
},
{
place = "{200, 63}";
type = Stem;
},
{
horizontal = 1;
place = "{-10, 58}";
type = Stem;
}
);
layerId = "B8E2B95E-9E44-4943-9D49-9B6A251F446D";
paths = (
{
closed = 1;
nodes = (
"237 50 OFFCURVE",
"210 44 OFFCURVE",
"203 26 CURVE SMOOTH",
"195 8 OFFCURVE",
"202 -8 OFFCURVE",
"216 -10 CURVE SMOOTH",
"230 -12 OFFCURVE",
"248 -2 OFFCURVE",
"257 15 CURVE SMOOTH",
"266 32 OFFCURVE",
"266 47 OFFCURVE",
"254 48 CURVE SMOOTH"
);
},
{
closed = 1;
nodes = (
"473 471 OFFCURVE",
"441 479 OFFCURVE",
"432 476 CURVE SMOOTH",
"419 472 OFFCURVE",
"275 167 OFFCURVE",
"275 160 CURVE SMOOTH",
"275 156 OFFCURVE",
"277 154 OFFCURVE",
"281 154 CURVE SMOOTH",
"287 154 OFFCURVE",
"291 158 OFFCURVE",
"294 165 CURVE SMOOTH",
"348 268 OFFCURVE",
"408 367 OFFCURVE",
"475 461 CURVE"
);
}
);
width = 374;
}
);
note = exclam;
unicode = 0021;
},
{
glyphname = question;
layers = (
{
hints = (
{
horizontal = 1;
place = "{-10, 21}";
target = up;
type = BottomGhost;
},
{
horizontal = 1;
place = "{363, 20}";
type = Stem;
},
{
horizontal = 1;
place = "{547, 16}";
type = Stem;
},
{
place = "{267, 63}";
type = Stem;
},
{
place = "{376, 20}";
type = Stem;
},
{
place = "{649, 39}";
type = Stem;
},
{
place = "{313, 31}";
type = Stem;
},
{
place = "{323, 16}";
type = Stem;
},
{
horizontal = 1;
place = "{-10, 58}";
type = Stem;
}
);
layerId = "B8E2B95E-9E44-4943-9D49-9B6A251F446D";
paths = (
{
closed = 1;
nodes = (
"614 563 OFFCURVE",
"599 563 OFFCURVE",
"584 563 CURVE SMOOTH",
"428 563 OFFCURVE",
"350 483 OFFCURVE",
"335 467 CURVE",
"315 485 LINE SMOOTH",
"307 492 OFFCURVE",
"298 486 OFFCURVE",
"306 479 CURVE SMOOTH",
"315 471 OFFCURVE",
"321 464 OFFCURVE",
"327 460 CURVE",
"318 453 OFFCURVE",
"315 440 OFFCURVE",
"313 431 CURVE SMOOTH",
"306 392 OFFCURVE",
"348 363 OFFCURVE",
"375 363 CURVE SMOOTH",
"387 363 OFFCURVE",
"396 369 OFFCURVE",
"396 382 CURVE SMOOTH",
"396 389 OFFCURVE",
"394 398 OFFCURVE",
"388 410 CURVE SMOOTH",
"380 425 OFFCURVE",
"367 438 OFFCURVE",
"353 451 CURVE",
"371 472 OFFCURVE",
"479 547 OFFCURVE",
"600 547 CURVE SMOOTH",
"635 547 OFFCURVE",
"653 534 OFFCURVE",
"649 507 CURVE SMOOTH",
"643 471 OFFCURVE",
"583 406 OFFCURVE",
"498 339 CURVE SMOOTH",
"430 285 OFFCURVE",
"353 219 OFFCURVE",
"327 160 CURVE SMOOTH",
"315 132 OFFCURVE",
"336 124 OFFCURVE",
"339 146 CURVE",
"388 233 OFFCURVE",
"663 378 OFFCURVE",
"688 494 CURVE SMOOTH",
"696 537 OFFCURVE",
"668 558 OFFCURVE",
"630 561 CURVE SMOOTH"
);
},
{
closed = 1;
nodes = (
"304 50 OFFCURVE",
"277 44 OFFCURVE",
"270 26 CURVE SMOOTH",
"262 8 OFFCURVE",
"269 -8 OFFCURVE",
"283 -10 CURVE SMOOTH",
"297 -12 OFFCURVE",
"315 -2 OFFCURVE",
"324 15 CURVE SMOOTH",
"333 32 OFFCURVE",
"333 47 OFFCURVE",
"321 48 CURVE SMOOTH"
);
},
{
closed = 1;
nodes = (
"358 428 OFFCURVE",
"366 420 OFFCURVE",
"373 406 CURVE SMOOTH",
"378 394 OFFCURVE",
"378 372 OFFCURVE",
"360 390 CURVE SMOOTH",
"342 411 OFFCURVE",
"344 435 OFFCURVE",
"344 441 CURVE"
);
}
);
width = 562;
}
);
note = question;
unicode = 003F;
},
{
glyphname = at;
layers = (
{
hints = (
{
horizontal = 1;
place = "{-4, 17}";
type = Stem;
},
{
horizontal = 1;
place = "{112, 10}";
type = Stem;
},
{
horizontal = 1;
place = "{300, 22}";
type = Stem;
},
{
horizontal = 1;
place = "{415, 16}";
type = Stem;
},
{
place = "{239, 43}";
type = Stem;
},
{
place = "{368, 25}";
type = Stem;
},
{
place = "{606, 11}";
type = Stem;
},
{
place = "{738, 40}";
type = Stem;
},
{
horizontal = 1;
place = "{131, 19}";
type = Stem;
},
{
place = "{566, 37}";
type = Stem;
}
);
layerId = "B8E2B95E-9E44-4943-9D49-9B6A251F446D";
paths = (
{
closed = 1;
nodes = (
"240 145 OFFCURVE",
"239 133 OFFCURVE",
"239 122 CURVE SMOOTH",
"239 45 OFFCURVE",
"309 -4 OFFCURVE",
"404 -4 CURVE SMOOTH",
"557 -4 OFFCURVE",
"701 65 OFFCURVE",
"734 148 CURVE SMOOTH",
"739 161 OFFCURVE",
"742 190 OFFCURVE",
"710 152 CURVE SMOOTH",
"639 68 OFFCURVE",
"553 13 OFFCURVE",
"400 13 CURVE SMOOTH",
"316 13 OFFCURVE",
"282 59 OFFCURVE",
"282 116 CURVE SMOOTH",
"282 127 OFFCURVE",
"284 139 OFFCURVE",
"286 151 CURVE SMOOTH",
"307 252 OFFCURVE",
"450 371 OFFCURVE",
"567 404 CURVE SMOOTH",
"595 412 OFFCURVE",
"619 415 OFFCURVE",
"640 415 CURVE SMOOTH",
"708 415 OFFCURVE",
"738 377 OFFCURVE",
"738 328 CURVE SMOOTH",
"738 279 OFFCURVE",
"708 218 OFFCURVE",
"656 172 CURVE",
"642 162 OFFCURVE",
"629 154 OFFCURVE",
"618 150 CURVE",
"598 146 OFFCURVE",
"597 173 OFFCURVE",
"621 220 CURVE",
"626 233 OFFCURVE",
"629 243 OFFCURVE",
"625 246 CURVE SMOOTH",
"620 251 OFFCURVE",
"606 253 OFFCURVE",
"600 249 CURVE SMOOTH",
"494 163 LINE SMOOTH",
"482 152 OFFCURVE",
"439 122 OFFCURVE",
"413 122 CURVE SMOOTH",
"399 122 OFFCURVE",
"390 131 OFFCURVE",
"393 154 CURVE SMOOTH",
"400 205 OFFCURVE",
"526 307 OFFCURVE",
"585 300 CURVE SMOOTH",
"606 298 OFFCURVE",
"606 277 OFFCURVE",
"606 270 CURVE SMOOTH",
"606 260 OFFCURVE",
"618 266 OFFCURVE",
"617 278 CURVE SMOOTH",
"613 306 OFFCURVE",
"602 322 OFFCURVE",
"573 322 CURVE SMOOTH",
"559 322 OFFCURVE",
"541 318 OFFCURVE",
"518 311 CURVE SMOOTH",
"451 290 OFFCURVE",
"368 208 OFFCURVE",
"368 155 CURVE SMOOTH",
"368 145 OFFCURVE",
"371 135 OFFCURVE",
"378 128 CURVE SMOOTH",
"388 117 OFFCURVE",
"401 112 OFFCURVE",
"415 112 CURVE SMOOTH",
"473 112 OFFCURVE",
"555 193 OFFCURVE",
"582 220 CURVE",
"574 202 OFFCURVE",
"566 179 OFFCURVE",
"566 159 CURVE SMOOTH",
"566 141 OFFCURVE",
"578 131 OFFCURVE",
"599 131 CURVE SMOOTH",
"619 131 OFFCURVE",
"648 141 OFFCURVE",
"678 166 CURVE SMOOTH",
"742 218 OFFCURVE",
"778 282 OFFCURVE",
"778 334 CURVE SMOOTH",
"778 389 OFFCURVE",
"738 431 OFFCURVE",
"647 431 CURVE SMOOTH",
"622 431 OFFCURVE",
"592 428 OFFCURVE",
"559 421 CURVE SMOOTH",
"425 393 OFFCURVE",
"271 273 OFFCURVE",
"243 157 CURVE SMOOTH"
);
}
);
width = 673;
}
);
note = at;
unicode = 0040;
},
{
glyphname = A;
layers = (
{
hints = (
{
horizontal = 1;
place = "{-350, 30}";
type = Stem;
},
{
horizontal = 1;
place = "{54, 25}";
type = Stem;
},
{
horizontal = 1;
place = "{100, 9}";
type = Stem;
},
{
horizontal = 1;
place = "{112, 30}";
type = Stem;
},
{
horizontal = 1;
place = "{511, 19}";
type = Stem;
},
{
place = "{1322, 66}";
type = Stem;
},
{
place = "{1924, 40}";
type = Stem;
}
);
layerId = "B8E2B95E-9E44-4943-9D49-9B6A251F446D";
paths = (
{
closed = 1;
nodes = (
"976 505 OFFCURVE",
"1009 486 OFFCURVE",
"1009 430 CURVE SMOOTH",
"1009 355 OFFCURVE",
"965 218 OFFCURVE",
"924 116 CURVE",
"900 114 OFFCURVE",
"878 113 OFFCURVE",
"858 113 CURVE SMOOTH",
"838 113 OFFCURVE",
"822 114 OFFCURVE",
"811 115 CURVE",
"773 162 OFFCURVE",
"654 222 OFFCURVE",
"577 222 CURVE SMOOTH",
"552 222 OFFCURVE",
"532 216 OFFCURVE",
"520 201 CURVE SMOOTH",
"507 185 OFFCURVE",
"518 165 OFFCURVE",
"543 151 CURVE SMOOTH",
"588 124 OFFCURVE",
"694 111 OFFCURVE",
"745 102 CURVE SMOOTH",
"769 98 OFFCURVE",
"789 94 OFFCURVE",
"792 93 CURVE SMOOTH",
"806 89 OFFCURVE",
"859 5 OFFCURVE",
"873 -32 CURVE",
"873 -37 OFFCURVE",
"873 -41 OFFCURVE",
"874 -43 CURVE",
"877 -71 OFFCURVE",
"926 -50 OFFCURVE",
"921 -22 CURVE",
"921 -17 OFFCURVE",
"915 3 OFFCURVE",
"919 21 CURVE SMOOTH",
"923 45 OFFCURVE",
"938 85 OFFCURVE",
"946 102 CURVE",
"1035 113 OFFCURVE",
"1129 141 OFFCURVE",
"1125 198 CURVE SMOOTH",
"1124 213 OFFCURVE",
"1113 216 OFFCURVE",
"1114 200 CURVE SMOOTH",
"1117 151 OFFCURVE",
"1035 128 OFFCURVE",
"953 119 CURVE",
"1004 213 OFFCURVE",
"1049 332 OFFCURVE",
"1049 414 CURVE SMOOTH",
"1049 480 OFFCURVE",
"1008 527 OFFCURVE",
"959 530 CURVE SMOOTH",
"748 544 OFFCURVE",
"165 167 OFFCURVE",
"-6 -10 CURVE SMOOTH",
"-63 -69 OFFCURVE",
"-94 -125 OFFCURVE",
"-77 -168 CURVE SMOOTH",
"-53 -230 OFFCURVE",
"42 -221 OFFCURVE",
"8 -197 CURVE SMOOTH",
"-14 -182 OFFCURVE",
"-23 -160 OFFCURVE",
"-23 -136 CURVE SMOOTH",
"-23 -108 OFFCURVE",
"-10 -78 OFFCURVE",
"11 -55 CURVE SMOOTH",
"160 108 OFFCURVE",
"669 505 OFFCURVE",
"929 505 CURVE SMOOTH"
);
},
{
closed = 1;
nodes = (
"724 123 OFFCURVE",
"633 141 OFFCURVE",
"594 155 CURVE SMOOTH",
"575 162 OFFCURVE",
"546 188 OFFCURVE",
"602 184 CURVE SMOOTH",
"659 179 OFFCURVE",
"730 143 OFFCURVE",
"761 121 CURVE"
);
},
{
closed = 1;
nodes = (
"845 95 OFFCURVE",
"875 96 OFFCURVE",
"909 98 CURVE",
"901 76 OFFCURVE",
"895 52 OFFCURVE",
"890 29 CURVE SMOOTH",
"888 20 OFFCURVE",
"887 12 OFFCURVE",
"886 4 CURVE",
"870 38 OFFCURVE",
"843 74 OFFCURVE",
"825 96 CURVE"
);
}
);
width = 1006;
}
);
note = A;
unicode = 0041;
},
{
glyphname = B;
layers = (
{
hints = (
{
horizontal = 1;
place = "{-129, 33}";
type = Stem;
},
{
horizontal = 1;
place = "{46, 24}";
type = Stem;
},
{
horizontal = 1;
place = "{239, 20}";
type = Stem;
},
{
horizontal = 1;
place = "{295, 43}";
type = Stem;
},
{
horizontal = 1;
place = "{517, 25}";
type = Stem;
},
{
place = "{7, 34}";
type = Stem;
},
{
place = "{791, 26}";
type = Stem;
},
{
place = "{824, 25}";
type = Stem;
},
{
place = "{1038, 34}";
type = Stem;
},
{
place = "{1584, 33}";
type = Stem;
},
{
place = "{1756, 43}";
type = Stem;
}
);
layerId = "B8E2B95E-9E44-4943-9D49-9B6A251F446D";
paths = (
{
closed = 1;
nodes = (
"1726 385 OFFCURVE",
"1766 422 OFFCURVE",
"1766 453 CURVE SMOOTH",
"1766 510 OFFCURVE",
"1631 548 OFFCURVE",
"1422 550 CURVE SMOOTH",
"858 555 OFFCURVE",
"2 403 OFFCURVE",
"7 172 CURVE SMOOTH",
"8 103 OFFCURVE",
"129 55 OFFCURVE",
"224 55 CURVE SMOOTH",
"249 55 OFFCURVE",
"280 68 OFFCURVE",
"236 68 CURVE SMOOTH",
"159 68 OFFCURVE",
"57 106 OFFCURVE",
"57 162 CURVE SMOOTH",
"57 384 OFFCURVE",
"893 535 OFFCURVE",
"1406 535 CURVE SMOOTH",
"1516 535 OFFCURVE",
"1707 507 OFFCURVE",
"1707 446 CURVE SMOOTH",
"1707 423 OFFCURVE",
"1679 395 OFFCURVE",
"1609 362 CURVE SMOOTH",
"1531 326 OFFCURVE",
"1429 284 OFFCURVE",
"1385 274 CURVE",
"1381 274 OFFCURVE",
"1338 278 OFFCURVE",
"1338 259 CURVE SMOOTH",
"1338 251 OFFCURVE",
"1351 226 OFFCURVE",
"1372 226 CURVE SMOOTH",
"1381 226 OFFCURVE",
"1378 229 OFFCURVE",
"1386 229 CURVE SMOOTH",
"1479 229 OFFCURVE",
"1578 172 OFFCURVE",
"1578 91 CURVE SMOOTH",
"1578 70 OFFCURVE",
"1572 48 OFFCURVE",
"1557 25 CURVE SMOOTH",
"1502 -63 OFFCURVE",
"1374 -95 OFFCURVE",
"1251 -95 CURVE SMOOTH",
"1177 -95 OFFCURVE",
"1105 -84 OFFCURVE",
"1051 -66 CURVE SMOOTH",
"907 -19 OFFCURVE",
"817 57 OFFCURVE",
"817 181 CURVE SMOOTH",
"817 199 OFFCURVE",
"819 219 OFFCURVE",
"823 239 CURVE",
"858 240 OFFCURVE",
"898 243 OFFCURVE",
"934 243 CURVE SMOOTH",
"951 243 OFFCURVE",
"968 242 OFFCURVE",
"983 240 CURVE SMOOTH",
"1003 236 OFFCURVE",
"997 245 OFFCURVE",
"987 251 CURVE SMOOTH",
"971 259 OFFCURVE",
"903 259 OFFCURVE",
"889 259 CURVE SMOOTH",
"875 259 OFFCURVE",
"848 257 OFFCURVE",
"828 259 CURVE",
"834 280 LINE",
"858 285 OFFCURVE",
"848 306 OFFCURVE",
"838 299 CURVE SMOOTH",
"832 295 OFFCURVE",
"806 299 OFFCURVE",
"781 299 CURVE SMOOTH",
"757 299 OFFCURVE",
"735 295 OFFCURVE",
"735 276 CURVE SMOOTH",
"735 249 OFFCURVE",
"763 241 OFFCURVE",
"802 239 CURVE",
"794 219 OFFCURVE",
"791 199 OFFCURVE",
"791 180 CURVE SMOOTH",
"791 56 OFFCURVE",
"934 -53 OFFCURVE",
"1046 -95 CURVE SMOOTH",
"1107 -118 OFFCURVE",
"1193 -132 OFFCURVE",
"1280 -132 CURVE SMOOTH",
"1409 -132 OFFCURVE",
"1541 -100 OFFCURVE",
"1596 -10 CURVE SMOOTH",
"1613 17 OFFCURVE",
"1620 43 OFFCURVE",
"1620 69 CURVE SMOOTH",
"1620 161 OFFCURVE",
"1520 239 OFFCURVE",
"1382 259 CURVE",
"1420 264 OFFCURVE",
"1553 308 OFFCURVE",
"1636 345 CURVE SMOOTH"
);
},
{
closed = 1;
nodes = (
"1371 400 OFFCURVE",
"1354 417 OFFCURVE",
"1341 418 CURVE",
"1337 419 OFFCURVE",
"1316 408 OFFCURVE",
"1288 386 CURVE SMOOTH",
"1231 336 OFFCURVE",
"1094 192 OFFCURVE",
"1079 123 CURVE",
"1079 116 OFFCURVE",
"1075 108 OFFCURVE",
"1074 101 CURVE SMOOTH",
"1071 78 OFFCURVE",
"1080 60 OFFCURVE",
"1109 40 CURVE SMOOTH",
"1119 34 OFFCURVE",
"1122 41 OFFCURVE",
"1118 48 CURVE SMOOTH",
"1109 61 OFFCURVE",
"1104 73 OFFCURVE",
"1106 86 CURVE SMOOTH",
"1115 176 OFFCURVE",
"1279 340 OFFCURVE",
"1361 377 CURVE",
"1364 379 OFFCURVE",
"1369 381 OFFCURVE",
"1370 389 CURVE SMOOTH"
);
},
{
closed = 1;
nodes = (
"819 274 OFFCURVE",
"816 267 OFFCURVE",
"812 261 CURVE",
"804 263 OFFCURVE",
"799 266 OFFCURVE",
"800 271 CURVE SMOOTH",
"801 283 OFFCURVE",
"818 280 OFFCURVE",
"824 280 CURVE"
);
}
);
width = 1577;
}
);
note = B;
unicode = 0042;
},
{
glyphname = C;
layers = (
{
hints = (
{
horizontal = 1;
place = "{-108, 34}";
type = Stem;
},
{
horizontal = 1;
place = "{363, 31}";
type = Stem;
},
{
horizontal = 1;
place = "{508, 34}";
type = Stem;
},
{
place = "{25, 25}";
type = Stem;
},
{
place = "{636, 36}";
type = Stem;
},
{
place = "{736, 49}";
type = Stem;
}
);
layerId = "B8E2B95E-9E44-4943-9D49-9B6A251F446D";
paths = (
{
closed = 1;
nodes = (
"736 470 OFFCURVE",
"734 434 OFFCURVE",
"698 404 CURVE SMOOTH",
"664 377 OFFCURVE",
"669 410 OFFCURVE",
"681 427 CURVE SMOOTH",
"696 447 OFFCURVE",
"711 459 OFFCURVE",
"737 479 CURVE"
);
},
{
closed = 1;
nodes = (
"757 -115 OFFCURVE",
"1087 -10 OFFCURVE",
"1278 206 CURVE SMOOTH",
"1283 212 OFFCURVE",
"1279 219 OFFCURVE",
"1274 215 CURVE SMOOTH",
"1065 13 OFFCURVE",
"759 -69 OFFCURVE",
"494 -85 CURVE SMOOTH",
"464 -87 OFFCURVE",
"436 -88 OFFCURVE",
"410 -88 CURVE SMOOTH",
"162 -88 OFFCURVE",
"51 -13 OFFCURVE",
"51 109 CURVE SMOOTH",
"51 303 OFFCURVE",
"363 511 OFFCURVE",
"615 511 CURVE SMOOTH",
"628 511 OFFCURVE",
"640 510 OFFCURVE",
"653 509 CURVE SMOOTH",
"687 506 OFFCURVE",
"712 502 OFFCURVE",
"725 493 CURVE",
"698 474 OFFCURVE",
"674 455 OFFCURVE",
"658 433 CURVE SMOOTH",
"643 412 OFFCURVE",
"637 397 OFFCURVE",
"637 386 CURVE SMOOTH",
"637 370 OFFCURVE",
"649 363 OFFCURVE",
"667 363 CURVE SMOOTH",
"711 363 OFFCURVE",
"788 406 OFFCURVE",
"786 464 CURVE SMOOTH",
"785 478 OFFCURVE",
"778 488 OFFCURVE",
"764 499 CURVE",
"802 526 OFFCURVE",
"840 553 OFFCURVE",
"861 581 CURVE SMOOTH",
"876 602 OFFCURVE",
"860 601 OFFCURVE",
"842 582 CURVE SMOOTH",
"820 556 OFFCURVE",
"783 533 OFFCURVE",
"748 509 CURVE",
"729 522 OFFCURVE",
"678 542 OFFCURVE",
"640 543 CURVE SMOOTH",
"278 550 OFFCURVE",
"25 333 OFFCURVE",
"25 112 CURVE SMOOTH",
"25 -41 OFFCURVE",
"184 -126 OFFCURVE",
"450 -126 CURVE SMOOTH",
"466 -126 OFFCURVE",
"482 -126 OFFCURVE",
"499 -125 CURVE SMOOTH"
);
}
);
width = 1025;
}
);
note = C;
unicode = 0043;
},
{
glyphname = D;
layers = (
{
hints = (
{
horizontal = 1;
place = "{-95, 32}";
type = Stem;
},
{
horizontal = 1;
place = "{30, 25}";
type = Stem;
},
{
horizontal = 1;
place = "{500, 22}";
type = Stem;
},
{
place = "{-22, 34}";
type = Stem;
},
{
place = "{2122, 26}";
type = Stem;
}
);
layerId = "B8E2B95E-9E44-4943-9D49-9B6A251F446D";
paths = (
{
closed = 1;
nodes = (
"1251 -64 OFFCURVE",
"1175 -56 OFFCURVE",
"1088 -33 CURVE SMOOTH",
"1061 -25 OFFCURVE",
"1058 -31 OFFCURVE",
"1082 -45 CURVE SMOOTH",
"1143 -78 OFFCURVE",
"1232 -94 OFFCURVE",
"1330 -95 CURVE SMOOTH",
"1482 -96 OFFCURVE",
"1999 -30 OFFCURVE",
"1999 195 CURVE SMOOTH",
"1999 279 OFFCURVE",
"1949 342 OFFCURVE",
"1875 390 CURVE SMOOTH",
"1745 474 OFFCURVE",
"1507 510 OFFCURVE",
"1245 510 CURVE SMOOTH",
"685 510 OFFCURVE",
"11 348 OFFCURVE",
"14 153 CURVE SMOOTH",
"15 83 OFFCURVE",
"136 25 OFFCURVE",
"220 25 CURVE SMOOTH",
"241 25 OFFCURVE",
"265 26 OFFCURVE",
"280 32 CURVE SMOOTH",
"299 39 OFFCURVE",
"284 50 OFFCURVE",
"267 49 CURVE SMOOTH",
"247 48 OFFCURVE",
"222 50 OFFCURVE",
"217 50 CURVE SMOOTH",
"149 50 OFFCURVE",
"43 80 OFFCURVE",
"44 137 CURVE SMOOTH",
"46 299 OFFCURVE",
"736 483 OFFCURVE",
"1293 483 CURVE SMOOTH",
"1523 483 OFFCURVE",
"1729 452 OFFCURVE",
"1856 375 CURVE SMOOTH",
"1939 325 OFFCURVE",
"1972 275 OFFCURVE",
"1972 228 CURVE SMOOTH",
"1972 173 OFFCURVE",
"1926 122 OFFCURVE",
"1863 83 CURVE SMOOTH",
"1708 -14 OFFCURVE",
"1433 -59 OFFCURVE",
"1328 -62 CURVE SMOOTH"
);
},
{
closed = 1;
nodes = (
"1189 322 OFFCURVE",
"1168 347 OFFCURVE",
"1158 347 CURVE SMOOTH",
"1155 347 OFFCURVE",
"1115 325 OFFCURVE",
"1085 293 CURVE SMOOTH",
"1081 288 OFFCURVE",
"1077 280 OFFCURVE",
"1082 276 CURVE SMOOTH",
"1088 271 OFFCURVE",
"1089 272 OFFCURVE",
"1083 264 CURVE SMOOTH",
"1031 202 OFFCURVE",
"965 118 OFFCURVE",
"925 65 CURVE SMOOTH",
"909 44 OFFCURVE",
"857 -29 OFFCURVE",
"857 -58 CURVE SMOOTH",
"857 -73 OFFCURVE",
"875 -97 OFFCURVE",
"893 -103 CURVE SMOOTH",
"896 -104 OFFCURVE",
"905 -106 OFFCURVE",
"913 -97 CURVE SMOOTH",
"937 -71 OFFCURVE",
"986 -35 OFFCURVE",
"1002 -24 CURVE SMOOTH",
"1022 -11 OFFCURVE",
"1042 1 OFFCURVE",
"1051 11 CURVE SMOOTH",
"1058 18 OFFCURVE",
"1055 21 OFFCURVE",
"1047 17 CURVE",
"1010 -8 OFFCURVE",
"941 -42 OFFCURVE",
"923 -51 CURVE SMOOTH",
"899 -64 OFFCURVE",
"890 -67 OFFCURVE",
"908 -37 CURVE SMOOTH",
"953 34 OFFCURVE",
"1019 118 OFFCURVE",
"1086 192 CURVE SMOOTH",
"1126 237 OFFCURVE",
"1189 309 OFFCURVE",
"1189 312 CURVE SMOOTH"
);
}
);
width = 1929;
}
);
note = D;
unicode = 0044;
},
{
glyphname = E;
layers = (
{
hints = (
{
horizontal = 1;
place = "{-163, 45}";
type = Stem;
},
{
horizontal = 1;
place = "{152, 67}";
type = Stem;
},
{
horizontal = 1;
place = "{238, 29}";
type = Stem;
},
{
horizontal = 1;
place = "{372, 12}";
type = Stem;
},
{
horizontal = 1;
place = "{500, 23}";
type = Stem;
},
{
place = "{31, 24}";
type = Stem;
},
{
place = "{1017, 34}";
type = Stem;
}
);
layerId = "B8E2B95E-9E44-4943-9D49-9B6A251F446D";
paths = (
{
closed = 1;
nodes = (
"134 174 OFFCURVE",
"164 173 OFFCURVE",
"199 173 CURVE",
"181 141 OFFCURVE",
"172 108 OFFCURVE",
"172 72 CURVE SMOOTH",
"172 -32 OFFCURVE",
"301 -112 OFFCURVE",
"548 -112 CURVE SMOOTH",
"561 -112 OFFCURVE",
"574 -111 OFFCURVE",
"588 -111 CURVE SMOOTH",
"734 -107 OFFCURVE",
"912 -68 OFFCURVE",
"1068 9 CURVE SMOOTH",
"1157 53 OFFCURVE",
"1239 108 OFFCURVE",
"1302 177 CURVE SMOOTH",
"1307 182 OFFCURVE",
"1303 189 OFFCURVE",
"1298 185 CURVE SMOOTH",
"1107 9 OFFCURVE",
"820 -72 OFFCURVE",
"591 -78 CURVE SMOOTH",
"516 -79 OFFCURVE",
"452 -75 OFFCURVE",
"401 -65 CURVE SMOOTH",
"275 -41 OFFCURVE",
"227 11 OFFCURVE",
"227 72 CURVE SMOOTH",
"227 108 OFFCURVE",
"237 142 OFFCURVE",
"255 172 CURVE",
"281 172 OFFCURVE",
"308 172 OFFCURVE",
"337 172 CURVE SMOOTH",
"447 172 OFFCURVE",
"568 174 OFFCURVE",
"631 186 CURVE SMOOTH",
"690 197 OFFCURVE",
"684 205 OFFCURVE",
"658 203 CURVE SMOOTH",
"619 199 OFFCURVE",
"556 198 OFFCURVE",
"489 198 CURVE SMOOTH",
"416 198 OFFCURVE",
"337 199 OFFCURVE",
"275 202 CURVE",
"361 310 OFFCURVE",
"547 374 OFFCURVE",
"714 403 CURVE",
"838 366 OFFCURVE",
"978 329 OFFCURVE",
"1090 314 CURVE SMOOTH",
"1165 302 OFFCURVE",
"1168 348 OFFCURVE",
"1155 369 CURVE SMOOTH",
"1130 409 OFFCURVE",
"1051 445 OFFCURVE",
"931 450 CURVE SMOOTH",
"919 450 OFFCURVE",
"907 451 OFFCURVE",
"894 451 CURVE SMOOTH",
"831 451 OFFCURVE",
"762 444 OFFCURVE",
"693 432 CURVE",
"640 449 OFFCURVE",
"591 465 OFFCURVE",
"556 478 CURVE SMOOTH",
"458 514 OFFCURVE",
"320 550 OFFCURVE",
"209 550 CURVE SMOOTH",
"125 550 OFFCURVE",
"55 530 OFFCURVE",
"30 474 CURVE SMOOTH",
"18 448 OFFCURVE",
"26 408 OFFCURVE",
"57 369 CURVE SMOOTH",
"90 330 OFFCURVE",
"180 286 OFFCURVE",
"209 280 CURVE",
"224 275 OFFCURVE",
"201 294 OFFCURVE",
"187 299 CURVE",
"150 318 OFFCURVE",
"102 347 OFFCURVE",
"77 374 CURVE SMOOTH",
"45 405 OFFCURVE",
"41 431 OFFCURVE",
"50 453 CURVE SMOOTH",
"71 501 OFFCURVE",
"134 519 OFFCURVE",
"212 519 CURVE SMOOTH",
"326 519 OFFCURVE",
"473 481 OFFCURVE",
"568 450 CURVE SMOOTH",
"593 441 OFFCURVE",
"620 433 OFFCURVE",
"648 424 CURVE",
"472 386 OFFCURVE",
"300 311 OFFCURVE",
"220 205 CURVE",
"201 207 OFFCURVE",
"186 208 OFFCURVE",
"176 210 CURVE SMOOTH",
"152 217 OFFCURVE",
"128 221 OFFCURVE",
"108 221 CURVE SMOOTH",
"83 221 OFFCURVE",
"65 215 OFFCURVE",
"66 201 CURVE SMOOTH",
"68 186 OFFCURVE",
"78 174 OFFCURVE",
"116 174 CURVE SMOOTH"
);
},
{
closed = 1;
nodes = (
"1024 420 OFFCURVE",
"1098 402 OFFCURVE",
"1120 370 CURVE SMOOTH",
"1129 355 OFFCURVE",
"1121 325 OFFCURVE",
"1067 335 CURVE SMOOTH",
"997 345 OFFCURVE",
"876 377 OFFCURVE",
"763 411 CURVE",
"827 419 OFFCURVE",
"886 423 OFFCURVE",
"933 422 CURVE SMOOTH"
);
}
);
width = 1075;
}
);
note = E;
unicode = 0045;
},
{
glyphname = F;
layers = (
{
hints = (
{
horizontal = 1;
place = "{-124, 21}";
target = up;
type = BottomGhost;
},
{
horizontal = 1;
place = "{120, 25}";
type = Stem;
},
{
horizontal = 1;
place = "{171, 28}";
type = Stem;
},
{
horizontal = 1;
place = "{514, 23}";
type = Stem;
},
{
place = "{16, 32}";
type = Stem;
},
{
place = "{1248, 22}";
type = Stem;
}
);
layerId = "B8E2B95E-9E44-4943-9D49-9B6A251F446D";
paths = (
{
closed = 1;
nodes = (
"722 181 OFFCURVE",
"711 173 OFFCURVE",
"711 164 CURVE SMOOTH",
"711 152 OFFCURVE",
"731 136 OFFCURVE",
"772 134 CURVE SMOOTH",
"788 133 OFFCURVE",
"805 132 OFFCURVE",
"822 132 CURVE SMOOTH",
"914 132 OFFCURVE",
"1018 147 OFFCURVE",
"1117 162 CURVE",
"1030 46 OFFCURVE",
"925 -63 OFFCURVE",
"886 -100 CURVE SMOOTH",
"855 -128 OFFCURVE",
"880 -129 OFFCURVE",
"898 -114 CURVE SMOOTH",
"969 -57 OFFCURVE",
"1095 56 OFFCURVE",
"1183 172 CURVE",
"1208 176 OFFCURVE",
"1328 193 OFFCURVE",
"1351 195 CURVE SMOOTH",
"1360 196 OFFCURVE",
"1360 209 OFFCURVE",
"1351 208 CURVE SMOOTH",
"1198 191 LINE",
"1240 248 OFFCURVE",
"1269 305 OFFCURVE",
"1275 354 CURVE SMOOTH",
"1291 496 OFFCURVE",
"1143 530 OFFCURVE",
"944 530 CURVE SMOOTH",
"605 530 OFFCURVE",
"12 464 OFFCURVE",
"12 227 CURVE SMOOTH",
"12 160 OFFCURVE",
"116 122 OFFCURVE",
"203 122 CURVE SMOOTH",
"220 122 OFFCURVE",
"290 123 OFFCURVE",
"309 128 CURVE SMOOTH",
"332 134 OFFCURVE",
"318 143 OFFCURVE",
"298 141 CURVE SMOOTH",
"285 140 OFFCURVE",
"270 139 OFFCURVE",
"256 139 CURVE SMOOTH",
"155 139 OFFCURVE",
"42 168 OFFCURVE",
"42 228 CURVE SMOOTH",
"42 424 OFFCURVE",
"697 513 OFFCURVE",
"966 513 CURVE SMOOTH",
"1142 513 OFFCURVE",
"1234 472 OFFCURVE",
"1234 386 CURVE SMOOTH",
"1234 335 OFFCURVE",
"1202 268 OFFCURVE",
"1135 186 CURVE",
"1050 180 OFFCURVE",
"957 177 OFFCURVE",
"872 177 CURVE SMOOTH",
"826 177 OFFCURVE",
"782 178 OFFCURVE",
"744 180 CURVE SMOOTH"
);
}
);
width = 1233;
}
);
note = F;
unicode = 0046;
},
{
glyphname = G;
layers = (
{
hints = (
{
horizontal = 1;
place = "{-384, 14}";
type = Stem;
},
{
horizontal = 1;
place = "{-65, 34}";
type = Stem;
},
{
horizontal = 1;
place = "{370, 7}";
type = Stem;
},
{
horizontal = 1;
place = "{507, 17}";
type = Stem;
},
{
place = "{43, 22}";
type = Stem;
},
{
place = "{735, 41}";
type = Stem;
},
{
place = "{1148, 19}";
type = Stem;
}
);
layerId = "B8E2B95E-9E44-4943-9D49-9B6A251F446D";
paths = (
{
closed = 1;
nodes = (
"1068 299 OFFCURVE",
"1069 298 OFFCURVE",
"1070 298 CURVE",
"992 142 OFFCURVE",
"642 -32 OFFCURVE",
"412 -32 CURVE SMOOTH",
"292 -32 OFFCURVE",
"191 13 OFFCURVE",
"191 95 CURVE SMOOTH",
"191 129 OFFCURVE",
"209 168 OFFCURVE",
"249 214 CURVE",
"498 214 OFFCURVE",
"763 302 OFFCURVE",
"876 388 CURVE SMOOTH",
"904 410 OFFCURVE",
"947 447 OFFCURVE",
"947 482 CURVE SMOOTH",
"948 516 OFFCURVE",
"910 528 OFFCURVE",
"861 529 CURVE SMOOTH",
"660 532 OFFCURVE",
"380 411 OFFCURVE",
"250 280 CURVE SMOOTH",
"236 265 OFFCURVE",
"223 251 OFFCURVE",
"212 237 CURVE",
"119 252 OFFCURVE",
"77 300 OFFCURVE",
"77 353 CURVE SMOOTH",
"77 395 OFFCURVE",
"115 449 OFFCURVE",
"167 480 CURVE SMOOTH",
"182 489 OFFCURVE",
"162 491 OFFCURVE",
"149 484 CURVE SMOOTH",
"93 454 OFFCURVE",
"63 398 OFFCURVE",
"63 353 CURVE SMOOTH",
"63 294 OFFCURVE",
"103 237 OFFCURVE",
"200 219 CURVE",
"170 176 OFFCURVE",
"156 134 OFFCURVE",
"156 97 CURVE SMOOTH",
"156 7 OFFCURVE",
"241 -57 OFFCURVE",
"401 -57 CURVE SMOOTH",
"645 -57 OFFCURVE",
"1007 106 OFFCURVE",
"1084 285 CURVE",
"1090 274 OFFCURVE",
"1093 256 OFFCURVE",
"1093 235 CURVE SMOOTH",
"1093 179 OFFCURVE",
"1073 99 OFFCURVE",
"1043 38 CURVE",
"1022 37 OFFCURVE",
"1002 34 OFFCURVE",
"981 29 CURVE SMOOTH",
"807 -11 OFFCURVE",
"378 -163 OFFCURVE",
"344 -381 CURVE SMOOTH",
"331 -469 OFFCURVE",
"412 -499 OFFCURVE",
"482 -497 CURVE SMOOTH",
"710 -495 OFFCURVE",
"967 -211 OFFCURVE",
"1081 19 CURVE",
"1101 20 OFFCURVE",
"1121 20 OFFCURVE",
"1141 18 CURVE SMOOTH",
"1186 15 OFFCURVE",
"1230 5 OFFCURVE",
"1239 -14 CURVE",
"1241 -21 OFFCURVE",
"1253 -15 OFFCURVE",
"1249 -8 CURVE",
"1239 17 OFFCURVE",
"1190 30 OFFCURVE",
"1144 36 CURVE SMOOTH",
"1126 38 OFFCURVE",
"1109 39 OFFCURVE",
"1091 40 CURVE",
"1100 59 LINE SMOOTH",
"1132 133 OFFCURVE",
"1148 202 OFFCURVE",
"1148 253 CURVE SMOOTH",
"1148 306 OFFCURVE",
"1130 339 OFFCURVE",
"1097 335 CURVE SMOOTH",
"1060 330 OFFCURVE",
"1059 302 OFFCURVE",
"1067 299 CURVE"
);
},
{
closed = 1;
nodes = (
"406 -480 OFFCURVE",
"364 -449 OFFCURVE",
"364 -400 CURVE SMOOTH",
"364 -353 OFFCURVE",
"403 -289 OFFCURVE",
"497 -219 CURVE SMOOTH",
"641 -112 OFFCURVE",
"826 -25 OFFCURVE",
"976 5 CURVE SMOOTH",
"994 9 OFFCURVE",
"1012 12 OFFCURVE",
"1030 14 CURVE",
"928 -178 OFFCURVE",
"693 -475 OFFCURVE",
"469 -479 CURVE SMOOTH"
);
},
{
closed = 1;
nodes = (
"580 449 OFFCURVE",
"736 507 OFFCURVE",
"839 512 CURVE SMOOTH",
"885 514 OFFCURVE",
"902 504 OFFCURVE",
"902 488 CURVE SMOOTH",
"902 466 OFFCURVE",
"869 434 OFFCURVE",
"843 412 CURVE SMOOTH",
"699 292 OFFCURVE",
"436 232 OFFCURVE",
"278 232 CURVE SMOOTH",
"266 232 LINE",
"324 290 OFFCURVE",
"406 349 OFFCURVE",
"484 394 CURVE SMOOTH"
);
}
);
width = 1175;
}
);
note = G;
unicode = 0047;
},
{
glyphname = H;
layers = (
{
hints = (
{
horizontal = 1;
place = "{-126, 21}";
target = up;
type = BottomGhost;
},
{
horizontal = 1;
place = "{96, 17}";
type = Stem;
},
{
horizontal = 1;
place = "{119, 24}";
type = Stem;
},
{
horizontal = 1;
place = "{180, 40}";
type = Stem;
},
{
horizontal = 1;
place = "{529, 18}";
type = Stem;
},
{
place = "{20, 32}";
type = Stem;
},
{
place = "{1176, 63}";
type = Stem;
},
{
place = "{1557, 41}";
type = Stem;
},
{
place = "{1710, 12}";
type = Stem;
},
{
horizontal = 1;
place = "{511, 22}";
type = Stem;
}
);
layerId = "B8E2B95E-9E44-4943-9D49-9B6A251F446D";
paths = (
{
closed = 1;
nodes = (
"1263 490 OFFCURVE",
"1106 531 OFFCURVE",
"915 531 CURVE SMOOTH",
"674 531 OFFCURVE",
"378 466 OFFCURVE",
"306 444 CURVE SMOOTH",
"126 389 OFFCURVE",
"31 321 OFFCURVE",
"21 246 CURVE SMOOTH",
"12 176 OFFCURVE",
"139 119 OFFCURVE",
"233 119 CURVE SMOOTH",
"256 119 OFFCURVE",
"283 121 OFFCURVE",
"301 126 CURVE SMOOTH",
"323 133 OFFCURVE",
"309 144 OFFCURVE",
"289 143 CURVE SMOOTH",
"267 142 OFFCURVE",
"239 144 OFFCURVE",
"234 144 CURVE SMOOTH",
"157 144 OFFCURVE",
"44 173 OFFCURVE",
"53 229 CURVE SMOOTH",
"64 300 OFFCURVE",
"180 362 OFFCURVE",
"344 414 CURVE SMOOTH",
"425 440 OFFCURVE",
"728 511 OFFCURVE",
"954 511 CURVE SMOOTH",
"1083 511 OFFCURVE",
"1188 488 OFFCURVE",
"1213 420 CURVE SMOOTH",
"1252 316 OFFCURVE",
"945 -27 OFFCURVE",
"866 -101 CURVE SMOOTH",
"835 -130 OFFCURVE",
"860 -130 OFFCURVE",
"878 -115 CURVE SMOOTH",
"998 -20 OFFCURVE",
"1232 213 OFFCURVE",
"1248 357 CURVE SMOOTH"
);
},
{
closed = 1;
nodes = (
"1937 493 OFFCURVE",
"1949 494 OFFCURVE",
"1950 498 CURVE",
"1954 535 OFFCURVE",
"1941 548 OFFCURVE",
"1922 548 CURVE SMOOTH",
"1890 548 OFFCURVE",
"1841 513 OFFCURVE",
"1830 500 CURVE SMOOTH",
"1756 417 OFFCURVE",
"1670 262 OFFCURVE",
"1619 115 CURVE",
"1603 114 OFFCURVE",
"1587 114 OFFCURVE",
"1573 114 CURVE SMOOTH",
"1547 114 OFFCURVE",
"1525 115 OFFCURVE",
"1511 117 CURVE",
"1476 152 OFFCURVE",
"1342 216 OFFCURVE",
"1268 216 CURVE SMOOTH",
"1248 216 OFFCURVE",
"1233 212 OFFCURVE",
"1225 201 CURVE SMOOTH",
"1212 185 OFFCURVE",
"1223 165 OFFCURVE",
"1248 151 CURVE SMOOTH",
"1293 124 OFFCURVE",
"1399 111 OFFCURVE",
"1450 102 CURVE SMOOTH",
"1474 98 OFFCURVE",
"1494 94 OFFCURVE",
"1497 93 CURVE SMOOTH",
"1511 89 OFFCURVE",
"1574 1 OFFCURVE",
"1591 -36 CURVE",
"1592 -41 OFFCURVE",
"1592 -45 OFFCURVE",
"1593 -47 CURVE",
"1599 -74 OFFCURVE",
"1645 -50 OFFCURVE",
"1638 -22 CURVE SMOOTH",
"1637 -17 OFFCURVE",
"1630 3 OFFCURVE",
"1632 21 CURVE SMOOTH",
"1634 45 OFFCURVE",
"1642 73 OFFCURVE",
"1651 102 CURVE",
"1740 113 OFFCURVE",
"1834 141 OFFCURVE",
"1830 198 CURVE SMOOTH",
"1829 213 OFFCURVE",
"1818 216 OFFCURVE",
"1819 200 CURVE SMOOTH",
"1823 146 OFFCURVE",
"1740 125 OFFCURVE",
"1656 117 CURVE",
"1699 234 OFFCURVE",
"1784 373 OFFCURVE",
"1851 455 CURVE SMOOTH",
"1855 461 OFFCURVE",
"1946 568 OFFCURVE",
"1937 497 CURVE SMOOTH"
);
},
{
closed = 1;
nodes = (
"1429 123 OFFCURVE",
"1338 142 OFFCURVE",
"1299 155 CURVE SMOOTH",
"1280 162 OFFCURVE",
"1250 182 OFFCURVE",
"1306 177 CURVE SMOOTH",
"1363 173 OFFCURVE",
"1416 152 OFFCURVE",
"1466 121 CURVE"
);
},
{
closed = 1;
nodes = (
"1550 95 OFFCURVE",
"1580 96 OFFCURVE",
"1614 98 CURVE",
"1606 76 OFFCURVE",
"1600 52 OFFCURVE",
"1595 29 CURVE SMOOTH",
"1593 20 OFFCURVE",
"1592 12 OFFCURVE",
"1591 4 CURVE",
"1575 38 OFFCURVE",
"1548 74 OFFCURVE",
"1530 96 CURVE"
);
}
);
width = 1729;
}
);
note = H;
unicode = 0048;
},
{
glyphname = I;
layers = (
{
hints = (
{
horizontal = 1;
place = "{-144, 14}";
type = Stem;
},
{
horizontal = 1;
place = "{-72, 21}";
type = Stem;
},
{
horizontal = 1;
place = "{154, 23}";
type = Stem;
},
{
horizontal = 1;
place = "{189, 27}";
type = Stem;
},
{
horizontal = 1;
place = "{533, 17}";
type = Stem;
},
{
place = "{22, 11}";
type = Stem;
},
{
place = "{732, 38}";
type = Stem;
},
{
place = "{982, 24}";
type = Stem;
},
{
place = "{14, 34}";
type = Stem;
}
);
layerId = "B8E2B95E-9E44-4943-9D49-9B6A251F446D";
paths = (
{
closed = 1;
nodes = (
"142 196 OFFCURVE",
"132 223 OFFCURVE",
"120 215 CURVE SMOOTH",
"114 211 OFFCURVE",
"88 215 OFFCURVE",
"63 215 CURVE SMOOTH",
"39 215 OFFCURVE",
"17 211 OFFCURVE",
"17 192 CURVE SMOOTH",
"17 164 OFFCURVE",
"47 156 OFFCURVE",
"88 155 CURVE",
"40 103 OFFCURVE",
"14 45 OFFCURVE",
"14 -7 CURVE SMOOTH",
"14 -90 OFFCURVE",
"78 -157 OFFCURVE",
"221 -157 CURVE SMOOTH",
"396 -157 OFFCURVE",
"579 -51 OFFCURVE",
"719 52 CURVE",
"729 -22 OFFCURVE",
"766 -109 OFFCURVE",
"833 -109 CURVE SMOOTH",
"884 -109 OFFCURVE",
"918 -81 OFFCURVE",
"957 -20 CURVE SMOOTH",
"962 -13 OFFCURVE",
"959 -1 OFFCURVE",
"951 -12 CURVE SMOOTH",
"926 -51 OFFCURVE",
"869 -93 OFFCURVE",
"834 -81 CURVE SMOOTH",
"786 -65 OFFCURVE",
"765 29 OFFCURVE",
"760 83 CURVE",
"853 155 OFFCURVE",
"943 243 OFFCURVE",
"998 319 CURVE SMOOTH",
"1043 381 OFFCURVE",
"1061 434 OFFCURVE",
"1061 473 CURVE SMOOTH",
"1061 521 OFFCURVE",
"1032 549 OFFCURVE",
"990 549 CURVE SMOOTH",
"793 549 OFFCURVE",
"693 224 OFFCURVE",
"717 73 CURVE",
"585 -23 OFFCURVE",
"401 -122 OFFCURVE",
"239 -122 CURVE SMOOTH",
"113 -122 OFFCURVE",
"44 -63 OFFCURVE",
"44 13 CURVE SMOOTH",
"44 57 OFFCURVE",
"67 107 OFFCURVE",
"116 155 CURVE",
"149 156 OFFCURVE",
"185 159 OFFCURVE",
"217 159 CURVE SMOOTH",
"234 159 OFFCURVE",
"250 158 OFFCURVE",
"265 156 CURVE SMOOTH",
"285 152 OFFCURVE",
"279 161 OFFCURVE",
"269 167 CURVE SMOOTH",
"253 175 OFFCURVE",
"185 175 OFFCURVE",
"171 175 CURVE SMOOTH",
"163 175 OFFCURVE",
"151 174 OFFCURVE",
"138 174 CURVE",
"147 182 LINE",
"163 191 OFFCURVE",
"146 210 OFFCURVE",
"123 187 CURVE SMOOTH",
"109 175 LINE",
"93 176 OFFCURVE",
"81 179 OFFCURVE",
"82 187 CURVE SMOOTH",
"83 199 OFFCURVE",
"100 196 OFFCURVE",
"106 196 CURVE SMOOTH"
);
},
{
closed = 1;
nodes = (
"920 249 OFFCURVE",
"840 168 OFFCURVE",
"758 104 CURVE",
"754 211 OFFCURVE",
"793 355 OFFCURVE",
"865 440 CURVE SMOOTH",
"919 503 OFFCURVE",
"969 533 OFFCURVE",
"1003 533 CURVE SMOOTH",
"1028 533 OFFCURVE",
"1044 517 OFFCURVE",
"1044 486 CURVE SMOOTH",
"1044 450 OFFCURVE",
"1022 393 OFFCURVE",
"969 318 CURVE SMOOTH"
);
}
);
width = 929;
}
);
note = I;
unicode = 0049;
},
{
glyphname = J;
layers = (
{
hints = (
{
horizontal = 1;
place = "{-447, 14}";
type = Stem;
},
{
horizontal = 1;
place = "{-380, 28}";
type = Stem;
},
{
horizontal = 1;
place = "{-12, 16}";
type = Stem;
},
{
horizontal = 1;
place = "{169, 19}";
type = Stem;
},
{
horizontal = 1;
place = "{223, 30}";
type = Stem;
},
{
horizontal = 1;
place = "{257, 17}";
type = Stem;
},
{
horizontal = 1;
place = "{332, 7}";
type = Stem;
},
{
horizontal = 1;
place = "{520, 30}";
type = Stem;
},
{
place = "{-98, 34}";
type = Stem;
},
{
place = "{12, 24}";
type = Stem;
},
{
place = "{156, 13}";
type = Stem;
},
{
place = "{256, 26}";
type = Stem;
},
{
place = "{287, 20}";
type = Stem;
},
{
place = "{318, 30}";
type = Stem;
},
{
place = "{1254, 36}";
type = Stem;
},
{
horizontal = 1;
place = "{-5, 13}";
type = Stem;
},
{
place = "{31, 30}";
type = Stem;
}
);
layerId = "B8E2B95E-9E44-4943-9D49-9B6A251F446D";
paths = (
{
closed = 1;
nodes = (
"1222 172 OFFCURVE",
"1258 282 OFFCURVE",
"1258 349 CURVE SMOOTH",
"1258 470 OFFCURVE",
"1115 510 OFFCURVE",
"954 510 CURVE SMOOTH",
"626 510 OFFCURVE",
"22 388 OFFCURVE",
"22 116 CURVE SMOOTH",
"22 37 OFFCURVE",
"104 -8 OFFCURVE",
"196 -8 CURVE SMOOTH",
"219 -8 OFFCURVE",
"244 -5 OFFCURVE",
"267 1 CURVE SMOOTH",
"301 10 OFFCURVE",
"267 14 OFFCURVE",
"249 11 CURVE SMOOTH",
"236 9 OFFCURVE",
"223 8 OFFCURVE",
"209 8 CURVE SMOOTH",
"138 8 OFFCURVE",
"61 37 OFFCURVE",
"61 110 CURVE SMOOTH",
"61 312 OFFCURVE",
"619 488 OFFCURVE",
"965 488 CURVE SMOOTH",
"1056 488 OFFCURVE",
"1229 479 OFFCURVE",
"1229 363 CURVE SMOOTH",
"1229 293 OFFCURVE",
"1185 198 OFFCURVE",
"1135 110 CURVE SMOOTH",
"1122 87 OFFCURVE",
"1107 63 OFFCURVE",
"1090 39 CURVE",
"893 28 OFFCURVE",
"653 -53 OFFCURVE",
"502 -133 CURVE SMOOTH",
"387 -193 OFFCURVE",
"304 -268 OFFCURVE",
"288 -351 CURVE SMOOTH",
"273 -434 OFFCURVE",
"364 -461 OFFCURVE",
"443 -460 CURVE SMOOTH",
"678 -458 OFFCURVE",
"969 -213 OFFCURVE",
"1131 23 CURVE",
"1150 23 OFFCURVE",
"1168 23 OFFCURVE",
"1186 22 CURVE SMOOTH",
"1236 18 OFFCURVE",
"1286 10 OFFCURVE",
"1296 -9 CURVE",
"1298 -15 OFFCURVE",
"1311 -10 OFFCURVE",
"1307 -3 CURVE SMOOTH",
"1296 21 OFFCURVE",
"1241 33 OFFCURVE",
"1188 38 CURVE SMOOTH",
"1173 39 OFFCURVE",
"1158 40 OFFCURVE",
"1143 40 CURVE",
"1154 56 OFFCURVE",
"1164 73 OFFCURVE",
"1174 90 CURVE SMOOTH"
);
},
{
closed = 1;
nodes = (
"358 -444 OFFCURVE",
"313 -413 OFFCURVE",
"313 -367 CURVE SMOOTH",
"313 -321 OFFCURVE",
"357 -259 OFFCURVE",
"465 -193 CURVE SMOOTH",
"637 -85 OFFCURVE",
"870 4 OFFCURVE",
"1077 20 CURVE",
"928 -186 OFFCURVE",
"653 -440 OFFCURVE",
"428 -443 CURVE SMOOTH"
);
}
);
width = 1250;
}
);
note = J;
unicode = 004A;
},
{
glyphname = K;
layers = (
{
hints = (
{
horizontal = 1;
place = "{-227, 51}";
type = Stem;
},
{
horizontal = 1;
place = "{112, 25}";
type = Stem;
},
{
horizontal = 1;
place = "{513, 23}";
type = Stem;
},
{
horizontal = 1;
place = "{570, 24}";
type = Stem;
},
{
place = "{5, 25}";
type = Stem;
},
{
place = "{1017, 21}";
type = Stem;
},
{
place = "{1687, 21}";
type = Stem;
},
{
place = "{1821, 27}";
type = Stem;
}
);
layerId = "B8E2B95E-9E44-4943-9D49-9B6A251F446D";
paths = (
{
closed = 1;
nodes = (
"702 175 OFFCURVE",
"686 159 OFFCURVE",
"696 148 CURVE SMOOTH",
"729 115 OFFCURVE",
"763 84 OFFCURVE",
"798 54 CURVE",
"744 -10 OFFCURVE",
"675 -89 OFFCURVE",
"664 -100 CURVE SMOOTH",
"633 -128 OFFCURVE",
"658 -129 OFFCURVE",
"677 -114 CURVE SMOOTH",
"705 -91 OFFCURVE",
"761 -33 OFFCURVE",
"821 35 CURVE",
"834 25 LINE",
"702 -85 OFFCURVE",
"602 -193 OFFCURVE",
"571 -277 CURVE SMOOTH",
"569 -283 OFFCURVE",
"588 -289 OFFCURVE",
"591 -283 CURVE SMOOTH",
"618 -213 OFFCURVE",
"723 -109 OFFCURVE",
"862 3 CURVE",
"1045 -134 OFFCURVE",
"1258 -225 OFFCURVE",
"1493 -227 CURVE SMOOTH",
"1575 -227 OFFCURVE",
"1708 -202 OFFCURVE",
"1708 -109 CURVE SMOOTH",
"1708 -95 OFFCURVE",
"1705 -80 OFFCURVE",
"1699 -63 CURVE SMOOTH",
"1689 -36 OFFCURVE",
"1675 -49 OFFCURVE",
"1683 -73 CURVE SMOOTH",
"1711 -155 OFFCURVE",
"1598 -176 OFFCURVE",
"1543 -176 CURVE SMOOTH",
"1303 -176 OFFCURVE",
"1077 -109 OFFCURVE",
"885 21 CURVE",
"1178 255 OFFCURVE",
"1605 516 OFFCURVE",
"1790 567 CURVE SMOOTH",
"1809 572 OFFCURVE",
"1821 573 OFFCURVE",
"1821 562 CURVE SMOOTH",
"1821 555 OFFCURVE",
"1817 544 OFFCURVE",
"1808 526 CURVE SMOOTH",
"1795 498 OFFCURVE",
"1825 523 OFFCURVE",
"1834 536 CURVE SMOOTH",
"1844 551 OFFCURVE",
"1848 563 OFFCURVE",
"1848 572 CURVE SMOOTH",
"1848 587 OFFCURVE",
"1836 594 OFFCURVE",
"1818 594 CURVE SMOOTH",
"1808 594 OFFCURVE",
"1797 592 OFFCURVE",
"1785 588 CURVE SMOOTH",
"1568 524 OFFCURVE",
"1143 278 OFFCURVE",
"855 42 CURVE",
"838 55 LINE",
"933 165 OFFCURVE",
"1031 298 OFFCURVE",
"1038 365 CURVE SMOOTH",
"1053 496 OFFCURVE",
"927 536 OFFCURVE",
"771 536 CURVE SMOOTH",
"562 536 OFFCURVE",
"298 464 OFFCURVE",
"243 442 CURVE SMOOTH",
"102 386 OFFCURVE",
"13 317 OFFCURVE",
"5 241 CURVE SMOOTH",
"-2 170 OFFCURVE",
"98 112 OFFCURVE",
"172 112 CURVE SMOOTH",
"190 112 OFFCURVE",
"211 114 OFFCURVE",
"225 119 CURVE SMOOTH",
"243 126 OFFCURVE",
"231 137 OFFCURVE",
"215 136 CURVE SMOOTH",
"198 135 OFFCURVE",
"176 137 OFFCURVE",
"172 137 CURVE SMOOTH",
"113 137 OFFCURVE",
"23 167 OFFCURVE",
"30 224 CURVE SMOOTH",
"39 296 OFFCURVE",
"130 359 OFFCURVE",
"259 413 CURVE SMOOTH",
"319 438 OFFCURVE",
"584 513 OFFCURVE",
"784 513 CURVE SMOOTH",
"895 513 OFFCURVE",
"987 490 OFFCURVE",
"1012 422 CURVE SMOOTH",
"1015 412 OFFCURVE",
"1017 403 OFFCURVE",
"1017 392 CURVE SMOOTH",
"1017 304 OFFCURVE",
"909 186 OFFCURVE",
"859 127 CURVE SMOOTH",
"849 115 OFFCURVE",
"833 95 OFFCURVE",
"814 73 CURVE",
"781 100 OFFCURVE",
"749 129 OFFCURVE",
"718 160 CURVE SMOOTH"
);
}
);
width = 1350;
}
);
note = K;
unicode = 004B;
},
{
glyphname = L;
layers = (
{
hints = (
{
horizontal = 1;
place = "{-105, 21}";
target = up;
type = BottomGhost;
},
{
horizontal = 1;
place = "{-78, 13}";
type = Stem;
},
{
horizontal = 1;
place = "{-61, 42}";
type = Stem;
},
{
horizontal = 1;
place = "{-31, 24}";
type = Stem;
},
{
place = "{20, 401}";
type = Stem;
}
);
layerId = "B8E2B95E-9E44-4943-9D49-9B6A251F446D";
paths = (
{
closed = 1;
nodes = (
"225 131 LINE",
"135 208 OFFCURVE",
"79 267 OFFCURVE",
"47 266 CURVE SMOOTH",
"33 266 OFFCURVE",
"16 251 OFFCURVE",
"19 201 CURVE SMOOTH",
"22 155 OFFCURVE",
"62 -36 OFFCURVE",
"101 -82 CURVE SMOOTH",
"155 -142 OFFCURVE",
"227 48 OFFCURVE",
"248 86 CURVE",
"423 -54 OFFCURVE",
"612 -220 OFFCURVE",
"795 -251 CURVE SMOOTH",
"821 -255 OFFCURVE",
"848 -258 OFFCURVE",
"875 -258 CURVE SMOOTH",
"952 -258 OFFCURVE",
"1023 -235 OFFCURVE",
"1023 -158 CURVE SMOOTH",
"1023 -141 OFFCURVE",
"1019 -122 OFFCURVE",
"1012 -100 CURVE SMOOTH",
"1003 -71 OFFCURVE",
"993 -84 OFFCURVE",
"1001 -109 CURVE SMOOTH",
"1004 -120 OFFCURVE",
"1006 -131 OFFCURVE",
"1006 -140 CURVE SMOOTH",
"1006 -195 OFFCURVE",
"955 -217 OFFCURVE",
"888 -217 CURVE SMOOTH",
"857 -217 OFFCURVE",
"823 -212 OFFCURVE",
"788 -204 CURVE SMOOTH",
"600 -160 OFFCURVE",
"423 -31 OFFCURVE",
"258 106 CURVE",
"274 135 OFFCURVE",
"306 197 OFFCURVE",
"319 224 CURVE",
"485 220 OFFCURVE",
"680 380 OFFCURVE",
"765 493 CURVE SMOOTH",
"793 530 OFFCURVE",
"811 577 OFFCURVE",
"811 617 CURVE SMOOTH",
"811 666 OFFCURVE",
"784 705 OFFCURVE",
"715 705 CURVE SMOOTH",
"526 705 OFFCURVE",
"400 480 OFFCURVE",
"285 247 CURVE",
"278 251 OFFCURVE",
"205 270 OFFCURVE",
"214 351 CURVE SMOOTH",
"216 369 OFFCURVE",
"203 367 OFFCURVE",
"200 349 CURVE SMOOTH",
"186 263 OFFCURVE",
"272 232 OFFCURVE",
"277 228 CURVE"
);
},
{
closed = 1;
nodes = (
"759 675 OFFCURVE",
"777 653 OFFCURVE",
"777 620 CURVE SMOOTH",
"777 572 OFFCURVE",
"739 500 OFFCURVE",
"674 433 CURVE SMOOTH",
"623 381 OFFCURVE",
"486 255 OFFCURVE",
"326 239 CURVE",
"367 332 OFFCURVE",
"553 675 OFFCURVE",
"719 675 CURVE SMOOTH"
);
},
{
closed = 1;
nodes = (
"96 221 OFFCURVE",
"143 173 OFFCURVE",
"215 113 CURVE",
"165 20 OFFCURVE",
"129 -45 OFFCURVE",
"111 -42 CURVE",
"77 -4 OFFCURVE",
"51 161 OFFCURVE",
"51 201 CURVE SMOOTH",
"51 218 OFFCURVE",
"59 224 OFFCURVE",
"70 223 CURVE SMOOTH"
);
}
);
width = 493;
}
);
note = L;
unicode = 004C;
},
{
glyphname = M;
layers = (
{
hints = (
{
horizontal = 1;
place = "{-161, 21}";
target = up;
type = BottomGhost;
},
{
horizontal = 1;
place = "{-122, 21}";
target = up;
type = BottomGhost;
},
{
horizontal = 1;
place = "{-14, 14}";
type = Stem;
},
{
horizontal = 1;
place = "{188, 36}";
type = Stem;
},
{
horizontal = 1;
place = "{319, 43}";
type = Stem;
},
{
horizontal = 1;
place = "{516, 22}";
type = Stem;
},
{
place = "{1178, 40}";
type = Stem;
},
{
place = "{1270, 56}";
type = Stem;
},
{
place = "{1364, 58}";
type = Stem;
},
{
place = "{1433, 36}";
type = Stem;
}
);
layerId = "B8E2B95E-9E44-4943-9D49-9B6A251F446D";
paths = (
{
closed = 1;
nodes = (
"638 613 OFFCURVE",
"-8 259 OFFCURVE",
"39 32 CURVE SMOOTH",
"50 -23 OFFCURVE",
"99 -43 OFFCURVE",
"156 -43 CURVE SMOOTH",
"188 -43 OFFCURVE",
"222 -37 OFFCURVE",
"253 -27 CURVE SMOOTH",
"271 -20 OFFCURVE",
"255 -11 OFFCURVE",
"239 -15 CURVE SMOOTH",
"213 -21 OFFCURVE",
"180 -29 OFFCURVE",
"150 -29 CURVE SMOOTH",
"114 -29 OFFCURVE",
"83 -17 OFFCURVE",
"75 23 CURVE SMOOTH",
"34 247 OFFCURVE",
"680 596 OFFCURVE",
"1077 596 CURVE SMOOTH",
"1164 596 OFFCURVE",
"1194 559 OFFCURVE",
"1194 505 CURVE SMOOTH",
"1194 455 OFFCURVE",
"1168 391 OFFCURVE",
"1138 330 CURVE SMOOTH",
"1046 146 OFFCURVE",
"886 -102 OFFCURVE",
"886 -134 CURVE SMOOTH",
"886 -157 OFFCURVE",
"917 -172 OFFCURVE",
"931 -149 CURVE SMOOTH",
"1035 18 OFFCURVE",
"1238 313 OFFCURVE",
"1406 404 CURVE SMOOTH",
"1419 411 OFFCURVE",
"1429 414 OFFCURVE",
"1436 414 CURVE SMOOTH",
"1451 414 OFFCURVE",
"1456 401 OFFCURVE",
"1456 387 CURVE SMOOTH",
"1456 373 OFFCURVE",
"1452 358 OFFCURVE",
"1448 350 CURVE SMOOTH",
"1413 275 OFFCURVE",
"1343 95 OFFCURVE",
"1343 80 CURVE SMOOTH",
"1343 56 OFFCURVE",
"1361 51 OFFCURVE",
"1373 69 CURVE SMOOTH",
"1385 87 OFFCURVE",
"1483 186 OFFCURVE",
"1520 211 CURVE SMOOTH",
"1552 234 OFFCURVE",
"1557 198 OFFCURVE",
"1565 149 CURVE SMOOTH",
"1581 60 OFFCURVE",
"1585 -7 OFFCURVE",
"1650 -7 CURVE SMOOTH",
"1673 -7 OFFCURVE",
"1704 1 OFFCURVE",
"1745 20 CURVE SMOOTH",
"1805 47 OFFCURVE",
"1869 95 OFFCURVE",
"1927 142 CURVE SMOOTH",
"1984 190 OFFCURVE",
"2003 232 OFFCURVE",
"1977 210 CURVE SMOOTH",
"1914 158 LINE SMOOTH",
"1858 113 OFFCURVE",
"1798 68 OFFCURVE",
"1742 40 CURVE SMOOTH",
"1723 31 OFFCURVE",
"1703 25 OFFCURVE",
"1685 25 CURVE SMOOTH",
"1667 25 OFFCURVE",
"1651 31 OFFCURVE",
"1642 45 CURVE SMOOTH",
"1621 75 OFFCURVE",
"1613 196 OFFCURVE",
"1594 240 CURVE SMOOTH",
"1584 263 OFFCURVE",
"1562 268 OFFCURVE",
"1542 254 CURVE SMOOTH",
"1521 240 OFFCURVE",
"1414 138 OFFCURVE",
"1400 129 CURVE",
"1400 169 OFFCURVE",
"1478 324 OFFCURVE",
"1503 370 CURVE SMOOTH",
"1510 384 OFFCURVE",
"1514 396 OFFCURVE",
"1514 406 CURVE SMOOTH",
"1514 435 OFFCURVE",
"1486 448 OFFCURVE",
"1445 442 CURVE SMOOTH",
"1312 424 OFFCURVE",
"1092 121 OFFCURVE",
"1025 30 CURVE",
"1034 56 OFFCURVE",
"1120 201 OFFCURVE",
"1177 313 CURVE SMOOTH",
"1213 383 OFFCURVE",
"1240 451 OFFCURVE",
"1240 504 CURVE SMOOTH",
"1240 570 OFFCURVE",
"1198 613 OFFCURVE",
"1082 613 CURVE SMOOTH"
);
}
);
width = 1733;
}
);
note = M;
unicode = 004D;
},
{
glyphname = N;
layers = (
{
hints = (
{
horizontal = 1;
place = "{550, 14}";
type = Stem;
},
{
place = "{45, 41}";
type = Stem;
},
{
place = "{1303, 44}";
type = Stem;
}
);
layerId = "B8E2B95E-9E44-4943-9D49-9B6A251F446D";
paths = (
{
closed = 1;
nodes = (
"899 504 LINE SMOOTH",
"903 518 OFFCURVE",
"894 550 OFFCURVE",
"882 511 CURVE SMOOTH",
"876 493 LINE",
"828 551 OFFCURVE",
"752 574 OFFCURVE",
"666 574 CURVE SMOOTH",
"647 574 OFFCURVE",
"627 573 OFFCURVE",
"607 571 CURVE SMOOTH",
"440 554 OFFCURVE",
"280 477 OFFCURVE",
"145 372 CURVE SMOOTH",
"80 321 OFFCURVE",
"13 258 OFFCURVE",
"-2 208 CURVE SMOOTH",
"-6 196 OFFCURVE",
"-2 180 OFFCURVE",
"4 161 CURVE SMOOTH",
"8 149 OFFCURVE",
"18 154 OFFCURVE",
"18 158 CURVE SMOOTH",
"17 199 OFFCURVE",
"82 268 OFFCURVE",
"147 327 CURVE SMOOTH",
"274 442 OFFCURVE",
"431 536 OFFCURVE",
"613 558 CURVE SMOOTH",
"631 560 OFFCURVE",
"648 561 OFFCURVE",
"665 561 CURVE SMOOTH",
"751 561 OFFCURVE",
"824 532 OFFCURVE",
"862 458 CURVE",
"774 259 OFFCURVE",
"528 -26 OFFCURVE",
"385 -103 CURVE SMOOTH",
"339 -129 OFFCURVE",
"283 -148 OFFCURVE",
"224 -148 CURVE SMOOTH",
"207 -148 OFFCURVE",
"190 -147 OFFCURVE",
"173 -143 CURVE SMOOTH",
"110 -132 OFFCURVE",
"63 -97 OFFCURVE",
"41 -38 CURVE",
"35 -16 OFFCURVE",
"21 -15 OFFCURVE",
"29 -41 CURVE",
"53 -101 OFFCURVE",
"105 -138 OFFCURVE",
"166 -156 CURVE SMOOTH",
"189 -162 OFFCURVE",
"214 -165 OFFCURVE",
"239 -165 CURVE SMOOTH",
"301 -165 OFFCURVE",
"367 -148 OFFCURVE",
"417 -125 CURVE SMOOTH",
"573 -50 OFFCURVE",
"768 210 OFFCURVE",
"871 437 CURVE",
"876 421 OFFCURVE",
"881 404 OFFCURVE",
"884 386 CURVE SMOOTH",
"889 353 OFFCURVE",
"891 318 OFFCURVE",
"891 282 CURVE SMOOTH",
"891 166 OFFCURVE",
"869 44 OFFCURVE",
"850 -30 CURVE SMOOTH",
"847 -41 OFFCURVE",
"854 -44 OFFCURVE",
"864 -43 CURVE",
"858 -69 OFFCURVE",
"856 -93 OFFCURVE",
"859 -114 CURVE SMOOTH",
"860 -123 OFFCURVE",
"873 -125 OFFCURVE",
"874 -110 CURVE SMOOTH",
"874 -88 OFFCURVE",
"877 -63 OFFCURVE",
"883 -35 CURVE",
"891 -30 OFFCURVE",
"898 -23 OFFCURVE",
"899 -18 CURVE SMOOTH",
"905 10 OFFCURVE",
"912 41 OFFCURVE",
"918 75 CURVE",
"924 90 OFFCURVE",
"930 105 OFFCURVE",
"937 120 CURVE SMOOTH",
"1012 280 OFFCURVE",
"1215 562 OFFCURVE",
"1348 559 CURVE SMOOTH",
"1376 558 OFFCURVE",
"1403 556 OFFCURVE",
"1398 526 CURVE SMOOTH",
"1396 508 OFFCURVE",
"1405 516 OFFCURVE",
"1408 524 CURVE SMOOTH",
"1420 560 OFFCURVE",
"1391 584 OFFCURVE",
"1363 586 CURVE SMOOTH",
"1187 601 OFFCURVE",
"1011 336 OFFCURVE",
"927 142 CURVE",
"931 181 OFFCURVE",
"934 220 OFFCURVE",
"934 260 CURVE SMOOTH",
"934 309 OFFCURVE",
"930 358 OFFCURVE",
"919 403 CURVE SMOOTH",
"912 431 OFFCURVE",
"901 455 OFFCURVE",
"888 476 CURVE"
);
}
);
width = 993;
}
);
note = N;
unicode = 004E;
},
{
glyphname = O;
layers = (
{
hints = (
{
horizontal = 1;
place = "{-50, 18}";
type = Stem;
},
{
horizontal = 1;
place = "{500, 21}";
type = Stem;
},
{
horizontal = 1;
place = "{635, 22}";
type = Stem;
},
{
place = "{-6, 43}";
type = Stem;
},
{
place = "{477, 30}";
type = Stem;
},
{
place = "{1154, 54}";
type = Stem;
}
);
layerId = "B8E2B95E-9E44-4943-9D49-9B6A251F446D";
paths = (
{
closed = 1;
nodes = (
"1030 497 OFFCURVE",
"1036 480 OFFCURVE",
"1020 454 CURVE",
"1008 440 LINE SMOOTH",
"1004 434 OFFCURVE",
"1012 433 OFFCURVE",
"1014 435 CURVE",
"1032 447 OFFCURVE",
"1051 459 OFFCURVE",
"1058 480 CURVE SMOOTH",
"1066 505 OFFCURVE",
"1039 518 OFFCURVE",
"1009 521 CURVE SMOOTH",
"869 531 OFFCURVE",
"695 435 OFFCURVE",
"607 352 CURVE SMOOTH",
"523 272 OFFCURVE",
"477 174 OFFCURVE",
"477 94 CURVE SMOOTH",
"477 12 OFFCURVE",
"526 -50 OFFCURVE",
"633 -50 CURVE SMOOTH",
"851 -50 OFFCURVE",
"1208 159 OFFCURVE",
"1208 412 CURVE SMOOTH",
"1208 630 OFFCURVE",
"881 657 OFFCURVE",
"712 657 CURVE SMOOTH",
"375 657 OFFCURVE",
"1 507 OFFCURVE",
"-6 285 CURVE SMOOTH",
"-7 223 OFFCURVE",
"45 162 OFFCURVE",
"136 137 CURVE SMOOTH",
"157 132 OFFCURVE",
"179 129 OFFCURVE",
"201 129 CURVE SMOOTH",
"211 129 OFFCURVE",
"221 130 OFFCURVE",
"231 131 CURVE SMOOTH",
"251 135 OFFCURVE",
"244 142 OFFCURVE",
"224 141 CURVE SMOOTH",
"202 140 OFFCURVE",
"154 150 OFFCURVE",
"128 158 CURVE SMOOTH",
"55 180 OFFCURVE",
"37 232 OFFCURVE",
"37 282 CURVE SMOOTH",
"37 515 OFFCURVE",
"414 635 OFFCURVE",
"710 635 CURVE SMOOTH",
"938 635 OFFCURVE",
"1154 578 OFFCURVE",
"1154 406 CURVE SMOOTH",
"1154 165 OFFCURVE",
"781 -32 OFFCURVE",
"632 -32 CURVE SMOOTH",
"559 -32 OFFCURVE",
"507 6 OFFCURVE",
"507 77 CURVE SMOOTH",
"507 133 OFFCURVE",
"540 210 OFFCURVE",
"622 305 CURVE SMOOTH",
"699 393 OFFCURVE",
"873 508 OFFCURVE",
"989 500 CURVE SMOOTH"
);
}
);
width = 1089;
}
);
note = O;
unicode = 004F;
},
{
glyphname = P;
layers = (
{
hints = (
{
horizontal = 1;
place = "{-22, 16}";
type = Stem;
},
{
horizontal = 1;
place = "{156, 14}";
type = Stem;
},
{
horizontal = 1;
place = "{245, 17}";
type = Stem;
},
{
horizontal = 1;
place = "{568, 18}";
type = Stem;
},
{
place = "{67, 35}";
type = Stem;
},
{
place = "{855, 28}";
type = Stem;
},
{
place = "{1536, 69}";
type = Stem;
},
{
horizontal = 1;
place = "{245, 20}";
type = Stem;
}
);
layerId = "B8E2B95E-9E44-4943-9D49-9B6A251F446D";
paths = (
{
closed = 1;
nodes = (
"1156 426 OFFCURVE",
"1135 443 OFFCURVE",
"1120 443 CURVE SMOOTH",
"1077 443 OFFCURVE",
"1011 360 OFFCURVE",
"949 266 CURVE SMOOTH",
"897 188 OFFCURVE",
"855 95 OFFCURVE",
"855 40 CURVE SMOOTH",
"855 4 OFFCURVE",
"868 -19 OFFCURVE",
"895 -22 CURVE SMOOTH",
"907 -23 OFFCURVE",
"906 -9 OFFCURVE",
"899 -6 CURVE SMOOTH",
"885 1 OFFCURVE",
"883 18 OFFCURVE",
"883 31 CURVE SMOOTH",
"883 121 OFFCURVE",
"1058 347 OFFCURVE",
"1148 398 CURVE SMOOTH",
"1151 400 OFFCURVE",
"1156 404 OFFCURVE",
"1156 413 CURVE SMOOTH"
);
},
{
closed = 1;
nodes = (
"1568 368 OFFCURVE",
"1605 406 OFFCURVE",
"1605 439 CURVE SMOOTH",
"1605 521 OFFCURVE",
"1382 576 OFFCURVE",
"1177 583 CURVE SMOOTH",
"1129 585 OFFCURVE",
"1081 586 OFFCURVE",
"1034 586 CURVE SMOOTH",
"515 586 OFFCURVE",
"51 476 OFFCURVE",
"67 263 CURVE SMOOTH",
"72 176 OFFCURVE",
"181 150 OFFCURVE",
"272 156 CURVE SMOOTH",
"290 158 OFFCURVE",
"275 170 OFFCURVE",
"259 170 CURVE SMOOTH",
"200 171 OFFCURVE",
"106 172 OFFCURVE",
"102 246 CURVE SMOOTH",
"90 460 OFFCURVE",
"612 568 OFFCURVE",
"1058 568 CURVE SMOOTH",
"1105 568 OFFCURVE",
"1151 566 OFFCURVE",
"1196 564 CURVE SMOOTH",
"1327 557 OFFCURVE",
"1536 521 OFFCURVE",
"1536 447 CURVE SMOOTH",
"1536 421 OFFCURVE",
"1510 389 OFFCURVE",
"1445 353 CURVE SMOOTH",
"1340 295 OFFCURVE",
"1197 262 OFFCURVE",
"1095 262 CURVE SMOOTH",
"1078 262 OFFCURVE",
"1062 263 OFFCURVE",
"1048 265 CURVE SMOOTH",
"1039 266 OFFCURVE",
"1022 258 OFFCURVE",
"1022 252 CURVE SMOOTH",
"1022 247 OFFCURVE",
"1032 244 OFFCURVE",
"1064 245 CURVE SMOOTH",
"1202 251 OFFCURVE",
"1366 274 OFFCURVE",
"1479 327 CURVE SMOOTH"
);
}
);
width = 1307;
}
);
note = P;
unicode = 0050;
},
{
glyphname = Q;
layers = (
{
hints = (
{
horizontal = 1;
place = "{-276, 38}";
type = Stem;
},
{
horizontal = 1;
place = "{-82, 20}";
type = Stem;
},
{
horizontal = 1;
place = "{489, 20}";
type = Stem;
},
{
horizontal = 1;
place = "{650, 19}";
type = Stem;
},
{
place = "{146, 32}";
type = Stem;
},
{
place = "{830, 25}";
type = Stem;
},
{
place = "{1101, 25}";
type = Stem;
},
{
horizontal = 1;
place = "{166, 43}";
type = Stem;
},
{
place = "{1027, 49}";
type = Stem;
}
);
layerId = "B8E2B95E-9E44-4943-9D49-9B6A251F446D";
paths = (
{
closed = 1;
nodes = (
"1044 273 OFFCURVE",
"1076 350 OFFCURVE",
"1076 415 CURVE SMOOTH",
"1076 567 OFFCURVE",
"900 649 OFFCURVE",
"680 666 CURVE SMOOTH",
"655 668 OFFCURVE",
"630 669 OFFCURVE",
"605 669 CURVE SMOOTH",
"335 669 OFFCURVE",
"48 568 OFFCURVE",
"17 397 CURVE",
"10 345 OFFCURVE",
"46 289 OFFCURVE",
"120 263 CURVE SMOOTH",
"145 255 OFFCURVE",
"173 250 OFFCURVE",
"201 252 CURVE SMOOTH",
"219 254 OFFCURVE",
"214 260 OFFCURVE",
"197 261 CURVE",
"121 276 OFFCURVE",
"53 326 OFFCURVE",
"64 397 CURVE SMOOTH",
"90 569 OFFCURVE",
"360 650 OFFCURVE",
"600 650 CURVE SMOOTH",
"626 650 OFFCURVE",
"651 649 OFFCURVE",
"676 647 CURVE SMOOTH",
"899 631 OFFCURVE",
"1027 550 OFFCURVE",
"1027 422 CURVE SMOOTH",
"1027 360 OFFCURVE",
"997 287 OFFCURVE",
"934 205 CURVE SMOOTH",
"825 62 OFFCURVE",
"652 -35 OFFCURVE",
"528 -57 CURVE",
"499 -38 OFFCURVE",
"470 -17 OFFCURVE",
"441 4 CURVE SMOOTH",
"414 23 OFFCURVE",
"390 43 OFFCURVE",
"368 61 CURVE",
"378 120 OFFCURVE",
"417 198 OFFCURVE",
"489 294 CURVE SMOOTH",
"560 388 OFFCURVE",
"701 489 OFFCURVE",
"797 489 CURVE SMOOTH",
"831 489 OFFCURVE",
"837 473 OFFCURVE",
"825 449 CURVE",
"816 435 LINE SMOOTH",
"813 429 OFFCURVE",
"819 429 OFFCURVE",
"821 431 CURVE SMOOTH",
"835 443 OFFCURVE",
"851 455 OFFCURVE",
"855 475 CURVE SMOOTH",
"860 498 OFFCURVE",
"837 508 OFFCURVE",
"812 509 CURVE SMOOTH",
"697 509 OFFCURVE",
"565 442 OFFCURVE",
"483 353 CURVE SMOOTH",
"408 271 OFFCURVE",
"352 170 OFFCURVE",
"339 86 CURVE",
"256 157 OFFCURVE",
"205 210 OFFCURVE",
"174 209 CURVE SMOOTH",
"160 209 OFFCURVE",
"143 194 OFFCURVE",
"146 144 CURVE SMOOTH",
"149 96 OFFCURVE",
"185 16 OFFCURVE",
"223 -2 CURVE SMOOTH",
"233 -7 OFFCURVE",
"238 1 OFFCURVE",
"229 5 CURVE SMOOTH",
"196 21 OFFCURVE",
"178 103 OFFCURVE",
"178 144 CURVE SMOOTH",
"178 161 OFFCURVE",
"186 167 OFFCURVE",
"197 166 CURVE SMOOTH",
"222 164 OFFCURVE",
"269 124 OFFCURVE",
"337 68 CURVE",
"329 -17 OFFCURVE",
"372 -82 OFFCURVE",
"495 -82 CURVE SMOOTH",
"505 -82 OFFCURVE",
"516 -81 OFFCURVE",
"527 -80 CURVE",
"644 -164 OFFCURVE",
"764 -257 OFFCURVE",
"905 -273 CURVE SMOOTH",
"918 -274 OFFCURVE",
"935 -276 OFFCURVE",
"953 -276 CURVE SMOOTH",
"1026 -276 OFFCURVE",
"1126 -257 OFFCURVE",
"1126 -160 CURVE SMOOTH",
"1126 -132 OFFCURVE",
"1117 -88 OFFCURVE",
"1086 -65 CURVE SMOOTH",
"1073 -56 OFFCURVE",
"1063 -58 OFFCURVE",
"1070 -68 CURVE SMOOTH",
"1089 -94 OFFCURVE",
"1101 -125 OFFCURVE",
"1101 -161 CURVE SMOOTH",
"1101 -222 OFFCURVE",
"1043 -238 OFFCURVE",
"989 -238 CURVE SMOOTH",
"966 -238 OFFCURVE",
"944 -235 OFFCURVE",
"928 -232 CURVE SMOOTH",
"820 -210 OFFCURVE",
"708 -169 OFFCURVE",
"558 -76 CURVE",
"692 -51 OFFCURVE",
"859 46 OFFCURVE",
"970 182 CURVE SMOOTH"
);
},
{
closed = 1;
nodes = (
"501 -61 LINE",
"494 -61 OFFCURVE",
"486 -62 OFFCURVE",
"480 -62 CURVE SMOOTH",
"400 -62 OFFCURVE",
"360 -25 OFFCURVE",
"366 44 CURVE",
"438 -13 LINE"
);
}
);
width = 936;
}
);
note = Q;
unicode = 0051;
},
{
glyphname = R;
layers = (
{
hints = (
{
horizontal = 1;
place = "{-129, 33}";
type = Stem;
},
{
horizontal = 1;
place = "{46, 24}";
type = Stem;
},
{
horizontal = 1;
place = "{239, 20}";
type = Stem;
},
{
horizontal = 1;
place = "{295, 43}";
type = Stem;
},
{
horizontal = 1;
place = "{517, 25}";
type = Stem;
},
{
place = "{7, 34}";
type = Stem;
},
{
place = "{791, 26}";
type = Stem;
},
{
place = "{824, 25}";
type = Stem;
},
{
place = "{1038, 34}";
type = Stem;
},
{
place = "{1584, 33}";
type = Stem;
},
{
place = "{1756, 43}";
type = Stem;
}
);
layerId = "B8E2B95E-9E44-4943-9D49-9B6A251F446D";
paths = (
{
closed = 1;
nodes = (
"1874 -122 OFFCURVE",
"1816 -149 OFFCURVE",
"1721 -149 CURVE SMOOTH",
"1691 -149 OFFCURVE",
"1657 -146 OFFCURVE",
"1621 -141 CURVE SMOOTH",
"1464 -120 OFFCURVE",
"1147 33 OFFCURVE",
"1004 200 CURVE",
"1007 204 OFFCURVE",
"1010 209 OFFCURVE",
"1014 213 CURVE",
"1013 208 OFFCURVE",
"1022 205 OFFCURVE",
"1056 208 CURVE SMOOTH",
"1195 221 OFFCURVE",
"1361 253 OFFCURVE",
"1477 312 CURVE SMOOTH",
"1570 359 OFFCURVE",
"1608 400 OFFCURVE",
"1608 434 CURVE SMOOTH",
"1608 512 OFFCURVE",
"1405 553 OFFCURVE",
"1208 553 CURVE",
"1213 563 OFFCURVE",
"1217 574 OFFCURVE",
"1221 584 CURVE SMOOTH",
"1225 598 OFFCURVE",
"1216 630 OFFCURVE",
"1204 591 CURVE SMOOTH",
"1190 553 LINE",
"1188 553 LINE SMOOTH",
"614 544 OFFCURVE",
"52 403 OFFCURVE",
"57 172 CURVE SMOOTH",
"58 99 OFFCURVE",
"134 72 OFFCURVE",
"213 72 CURVE SMOOTH",
"228 72 OFFCURVE",
"242 73 OFFCURVE",
"257 75 CURVE SMOOTH",
"275 78 OFFCURVE",
"261 90 OFFCURVE",
"245 89 CURVE SMOOTH",
"233 89 OFFCURVE",
"220 88 OFFCURVE",
"207 88 CURVE SMOOTH",
"152 88 OFFCURVE",
"91 97 OFFCURVE",
"91 156 CURVE SMOOTH",
"91 389 OFFCURVE",
"717 530 OFFCURVE",
"1182 534 CURVE",
"1140 440 OFFCURVE",
"1063 329 OFFCURVE",
"980 228 CURVE",
"918 301 OFFCURVE",
"870 350 OFFCURVE",
"845 349 CURVE SMOOTH",
"831 349 OFFCURVE",
"802 345 OFFCURVE",
"805 295 CURVE SMOOTH",
"808 247 OFFCURVE",
"843 216 OFFCURVE",
"878 199 CURVE SMOOTH",
"888 195 OFFCURVE",
"892 202 OFFCURVE",
"885 206 CURVE SMOOTH",
"853 221 OFFCURVE",
"837 254 OFFCURVE",
"837 295 CURVE SMOOTH",
"837 312 OFFCURVE",
"845 318 OFFCURVE",
"856 317 CURVE SMOOTH",
"875 316 OFFCURVE",
"922 270 OFFCURVE",
"970 217 CURVE",
"879 109 OFFCURVE",
"779 16 OFFCURVE",
"707 -23 CURVE SMOOTH",
"661 -49 OFFCURVE",
"605 -68 OFFCURVE",
"546 -68 CURVE SMOOTH",
"529 -68 OFFCURVE",
"512 -67 OFFCURVE",
"495 -63 CURVE SMOOTH",
"432 -52 OFFCURVE",
"385 -17 OFFCURVE",
"363 42 CURVE",
"357 64 OFFCURVE",
"343 65 OFFCURVE",
"351 39 CURVE SMOOTH",
"380 -56 OFFCURVE",
"475 -94 OFFCURVE",
"573 -94 CURVE SMOOTH",
"628 -94 OFFCURVE",
"684 -82 OFFCURVE",
"730 -61 CURVE SMOOTH",
"813 -21 OFFCURVE",
"908 74 OFFCURVE",
"995 189 CURVE",
"1112 59 OFFCURVE",
"1361 -165 OFFCURVE",
"1627 -179 CURVE SMOOTH",
"1637 -180 OFFCURVE",
"1649 -180 OFFCURVE",
"1663 -180 CURVE SMOOTH",
"1745 -180 OFFCURVE",
"1872 -164 OFFCURVE",
"1872 -86 CURVE SMOOTH",
"1872 -74 OFFCURVE",
"1869 -62 OFFCURVE",
"1863 -47 CURVE SMOOTH",
"1855 -25 OFFCURVE",
"1844 -36 OFFCURVE",
"1851 -56 CURVE SMOOTH"
);
},
{
closed = 1;
nodes = (
"1034 227 OFFCURVE",
"1023 223 OFFCURVE",
"1017 218 CURVE",
"1090 319 OFFCURVE",
"1155 432 OFFCURVE",
"1200 535 CURVE",
"1206 535 LINE SMOOTH",
"1336 535 OFFCURVE",
"1541 511 OFFCURVE",
"1541 438 CURVE SMOOTH",
"1541 411 OFFCURVE",
"1513 378 OFFCURVE",
"1444 337 CURVE SMOOTH",
"1317 262 OFFCURVE",
"1141 219 OFFCURVE",
"1041 227 CURVE SMOOTH"
);
}
);
width = 1364;
}
);
note = R;
unicode = 0052;
},
{
glyphname = S;
layers = (
{
hints = (
{
horizontal = 1;
place = "{-131, 40}";
type = Stem;
},
{
horizontal = 1;
place = "{94, 25}";
type = Stem;
},
{
horizontal = 1;
place = "{363, 22}";
type = Stem;
},
{
horizontal = 1;
place = "{603, 42}";
type = Stem;
},
{
place = "{241, 25}";
type = Stem;
},
{
place = "{355, 47}";
type = Stem;
},
{
place = "{877, 23}";
type = Stem;
},
{
place = "{319, 20}";
type = Stem;
}
);
layerId = "B8E2B95E-9E44-4943-9D49-9B6A251F446D";
paths = (
{
closed = 1;
nodes = (
"775 171 OFFCURVE",
"781 185 OFFCURVE",
"769 179 CURVE SMOOTH",
"677 132 OFFCURVE",
"522 119 OFFCURVE",
"373 119 CURVE SMOOTH",
"362 119 OFFCURVE",
"352 119 OFFCURVE",
"341 119 CURVE",
"337 130 LINE SMOOTH",
"331 146 OFFCURVE",
"322 165 OFFCURVE",
"317 179 CURVE SMOOTH",
"291 247 OFFCURVE",
"266 323 OFFCURVE",
"266 398 CURVE SMOOTH",
"266 440 OFFCURVE",
"267 603 OFFCURVE",
"592 603 CURVE SMOOTH",
"702 603 OFFCURVE",
"877 580 OFFCURVE",
"877 490 CURVE SMOOTH",
"877 427 OFFCURVE",
"757 385 OFFCURVE",
"683 385 CURVE SMOOTH",
"667 385 OFFCURVE",
"667 363 OFFCURVE",
"683 363 CURVE SMOOTH",
"759 363 OFFCURVE",
"900 421 OFFCURVE",
"900 493 CURVE SMOOTH",
"900 594 OFFCURVE",
"744 645 OFFCURVE",
"586 645 CURVE SMOOTH",
"445 645 OFFCURVE",
"248 593 OFFCURVE",
"241 446 CURVE SMOOTH",
"237 363 OFFCURVE",
"270 267 OFFCURVE",
"300 180 CURVE SMOOTH",
"305 166 OFFCURVE",
"310 149 OFFCURVE",
"317 131 CURVE SMOOTH",
"318 127 OFFCURVE",
"319 123 OFFCURVE",
"321 119 CURVE",
"202 121 OFFCURVE",
"94 131 OFFCURVE",
"34 138 CURVE",
"30 151 OFFCURVE",
"17 169 OFFCURVE",
"-11 175 CURVE SMOOTH",
"-24 178 OFFCURVE",
"-34 179 OFFCURVE",
"-42 179 CURVE SMOOTH",
"-64 179 OFFCURVE",
"-69 170 OFFCURVE",
"-69 158 CURVE SMOOTH",
"-67 136 OFFCURVE",
"-21 116 OFFCURVE",
"31 109 CURVE",
"58 -14 OFFCURVE",
"175 -131 OFFCURVE",
"319 -131 CURVE SMOOTH",
"382 -131 OFFCURVE",
"402 -102 OFFCURVE",
"402 -62 CURVE SMOOTH",
"402 -14 OFFCURVE",
"373 48 OFFCURVE",
"352 94 CURVE",
"526 98 OFFCURVE",
"701 120 OFFCURVE",
"766 165 CURVE SMOOTH"
);
},
{
closed = 1;
nodes = (
"353 -78 OFFCURVE",
"323 -96 OFFCURVE",
"277 -91 CURVE SMOOTH",
"203 -82 OFFCURVE",
"101 -28 OFFCURVE",
"44 109 CURVE",
"119 97 OFFCURVE",
"223 92 OFFCURVE",
"330 93 CURVE",
"345 47 OFFCURVE",
"356 -1 OFFCURVE",
"355 -38 CURVE SMOOTH"
);
}
);
width = 547;
}
);
note = S;
unicode = 0053;
},
{
glyphname = T;
layers = (
{
hints = (
{
horizontal = 1;
place = "{-172, 19}";
type = Stem;
},
{
horizontal = 1;
place = "{548, 20}";
type = Stem;
},
{
place = "{15, 30}";
type = Stem;
},
{
horizontal = 1;
place = "{542, 14}";
type = Stem;
},
{
place = "{-18, 16}";
type = Stem;
}
);
layerId = "B8E2B95E-9E44-4943-9D49-9B6A251F446D";
paths = (
{
closed = 1;
nodes = (
"922 583 OFFCURVE",
"913 615 OFFCURVE",
"901 576 CURVE SMOOTH",
"895 559 LINE",
"834 565 OFFCURVE",
"762 568 OFFCURVE",
"685 568 CURVE SMOOTH",
"383 568 OFFCURVE",
"11 515 OFFCURVE",
"15 334 CURVE SMOOTH",
"17 267 OFFCURVE",
"116 217 OFFCURVE",
"203 207 CURVE SMOOTH",
"220 205 OFFCURVE",
"286 197 OFFCURVE",
"315 201 CURVE SMOOTH",
"337 204 OFFCURVE",
"323 214 OFFCURVE",
"303 215 CURVE SMOOTH",
"191 223 OFFCURVE",
"47 262 OFFCURVE",
"45 331 CURVE SMOOTH",
"41 490 OFFCURVE",
"468 548 OFFCURVE",
"770 548 CURVE SMOOTH",
"813 548 OFFCURVE",
"854 547 OFFCURVE",
"890 545 CURVE",
"809 340 OFFCURVE",
"526 -13 OFFCURVE",
"367 -102 CURVE SMOOTH",
"317 -131 OFFCURVE",
"257 -153 OFFCURVE",
"194 -153 CURVE SMOOTH",
"176 -153 OFFCURVE",
"158 -151 OFFCURVE",
"139 -147 CURVE SMOOTH",
"72 -135 OFFCURVE",
"22 -96 OFFCURVE",
"-2 -30 CURVE",
"-8 -5 OFFCURVE",
"-24 -4 OFFCURVE",
"-15 -33 CURVE",
"11 -100 OFFCURVE",
"67 -142 OFFCURVE",
"132 -162 CURVE SMOOTH",
"156 -169 OFFCURVE",
"182 -172 OFFCURVE",
"209 -172 CURVE SMOOTH",
"276 -172 OFFCURVE",
"347 -153 OFFCURVE",
"401 -127 CURVE SMOOTH",
"578 -39 OFFCURVE",
"809 304 OFFCURVE",
"908 544 CURVE",
"952 540 LINE SMOOTH",
"1078 526 OFFCURVE",
"1250 490 OFFCURVE",
"1273 377 CURVE SMOOTH",
"1281 337 OFFCURVE",
"1308 362 OFFCURVE",
"1297 415 CURVE SMOOTH",
"1282 480 OFFCURVE",
"1131 534 OFFCURVE",
"932 556 CURVE",
"926 556 OFFCURVE",
"920 557 OFFCURVE",
"914 558 CURVE",
"915 561 OFFCURVE",
"916 565 OFFCURVE",
"918 569 CURVE"
);
}
);
width = 763;
}
);
note = T;
unicode = 0054;
},
{
glyphname = U;
layers = (
{
hints = (
{
horizontal = 1;
place = "{-161, 21}";
target = up;
type = BottomGhost;
},
{
horizontal = 1;
place = "{-122, 21}";
target = up;
type = BottomGhost;
},
{
horizontal = 1;
place = "{-14, 14}";
type = Stem;
},
{
horizontal = 1;
place = "{188, 36}";
type = Stem;
},
{
horizontal = 1;
place = "{319, 43}";
type = Stem;
},
{
horizontal = 1;
place = "{516, 22}";
type = Stem;
},
{
place = "{13, 28}";
type = Stem;
},
{
place = "{255, 26}";
type = Stem;
},
{
place = "{1178, 40}";
type = Stem;
},
{
place = "{1270, 56}";
type = Stem;
},
{
place = "{1364, 58}";
type = Stem;
},
{
place = "{1433, 36}";
type = Stem;
},
{
horizontal = 1;
place = "{-12, 16}";
type = Stem;
}
);
layerId = "B8E2B95E-9E44-4943-9D49-9B6A251F446D";
paths = (
{
closed = 1;
nodes = (
"1130 -95 OFFCURVE",
"1116 -60 OFFCURVE",
"1116 -22 CURVE SMOOTH",
"1116 10 OFFCURVE",
"1126 45 OFFCURVE",
"1129 61 CURVE SMOOTH",
"1153 181 OFFCURVE",
"1213 308 OFFCURVE",
"1282 383 CURVE",
"1292 386 OFFCURVE",
"1321 421 OFFCURVE",
"1331 440 CURVE SMOOTH",
"1338 453 OFFCURVE",
"1299 468 OFFCURVE",
"1286 468 CURVE SMOOTH",
"1252 468 OFFCURVE",
"1237 435 OFFCURVE",
"1206 386 CURVE SMOOTH",
"1127 262 OFFCURVE",
"997 141 OFFCURVE",
"958 107 CURVE SMOOTH",
"888 48 OFFCURVE",
"826 12 OFFCURVE",
"795 12 CURVE SMOOTH",
"781 12 OFFCURVE",
"773 19 OFFCURVE",
"773 34 CURVE SMOOTH",
"773 56 OFFCURVE",
"789 95 OFFCURVE",
"827 153 CURVE SMOOTH",
"877 231 OFFCURVE",
"1011 381 OFFCURVE",
"1044 469 CURVE SMOOTH",
"1049 482 OFFCURVE",
"1051 494 OFFCURVE",
"1051 506 CURVE SMOOTH",
"1051 570 OFFCURVE",
"979 606 OFFCURVE",
"857 606 CURVE SMOOTH",
"440 606 OFFCURVE",
"-9 267 OFFCURVE",
"30 43 CURVE SMOOTH",
"40 -11 OFFCURVE",
"81 -30 OFFCURVE",
"129 -30 CURVE SMOOTH",
"155 -30 OFFCURVE",
"184 -24 OFFCURVE",
"210 -15 CURVE",
"225 -8 OFFCURVE",
"212 1 OFFCURVE",
"198 -3 CURVE SMOOTH",
"176 -9 OFFCURVE",
"148 -17 OFFCURVE",
"124 -17 CURVE SMOOTH",
"95 -17 OFFCURVE",
"70 -6 OFFCURVE",
"64 33 CURVE SMOOTH",
"29 254 OFFCURVE",
"466 590 OFFCURVE",
"855 590 CURVE SMOOTH",
"957 590 OFFCURVE",
"994 554 OFFCURVE",
"994 503 CURVE SMOOTH",
"994 394 OFFCURVE",
"829 214 OFFCURVE",
"779 149 CURVE SMOOTH",
"738 96 OFFCURVE",
"722 57 OFFCURVE",
"722 31 CURVE SMOOTH",
"722 1 OFFCURVE",
"744 -12 OFFCURVE",
"775 -12 CURVE SMOOTH",
"809 -12 OFFCURVE",
"854 4 OFFCURVE",
"894 33 CURVE SMOOTH",
"991 103 OFFCURVE",
"1115 237 OFFCURVE",
"1171 305 CURVE",
"1165 293 OFFCURVE",
"1160 280 OFFCURVE",
"1155 268 CURVE SMOOTH",
"1119 188 OFFCURVE",
"1083 74 OFFCURVE",
"1090 -15 CURVE SMOOTH",
"1093 -53 OFFCURVE",
"1108 -108 OFFCURVE",
"1169 -107 CURVE SMOOTH",
"1208 -107 OFFCURVE",
"1236 -93 OFFCURVE",
"1268 -73 CURVE SMOOTH",
"1290 -60 OFFCURVE",
"1282 -51 OFFCURVE",
"1269 -60 CURVE SMOOTH",
"1255 -70 OFFCURVE",
"1227 -82 OFFCURVE",
"1184 -88 CURVE SMOOTH"
);
}
);
width = 1248;
}
);
note = U;
unicode = 0055;
},
{
glyphname = V;
layers = (
{
hints = (
{
horizontal = 1;
place = "{-124, 21}";
target = up;
type = BottomGhost;
},
{
horizontal = 1;
place = "{-17, 21}";
target = up;
type = BottomGhost;
},
{
horizontal = 1;
place = "{120, 25}";
type = Stem;
},
{
horizontal = 1;
place = "{171, 28}";
type = Stem;
},
{
horizontal = 1;
place = "{253, 15}";
type = Stem;
},
{
horizontal = 1;
place = "{514, 23}";
type = Stem;
},
{
place = "{16, 32}";
type = Stem;
},
{
place = "{48, 41}";
type = Stem;
},
{
place = "{1248, 22}";
type = Stem;
}
);
layerId = "B8E2B95E-9E44-4943-9D49-9B6A251F446D";
paths = (
{
closed = 1;
nodes = (
"861 -56 OFFCURVE",
"905 -8 OFFCURVE",
"919 12 CURVE",
"919 29 OFFCURVE",
"952 61 OFFCURVE",
"983 96 CURVE SMOOTH",
"1143 278 OFFCURVE",
"1394 476 OFFCURVE",
"1558 517 CURVE SMOOTH",
"1572 521 OFFCURVE",
"1577 520 OFFCURVE",
"1569 498 CURVE SMOOTH",
"1565 484 OFFCURVE",
"1578 496 OFFCURVE",
"1581 502 CURVE SMOOTH",
"1595 528 OFFCURVE",
"1573 550 OFFCURVE",
"1550 546 CURVE",
"1389 545 OFFCURVE",
"1022 178 OFFCURVE",
"884 28 CURVE",
"943 105 OFFCURVE",
"1062 278 OFFCURVE",
"1061 385 CURVE SMOOTH",
"1061 514 OFFCURVE",
"921 549 OFFCURVE",
"753 549 CURVE SMOOTH",
"736 549 OFFCURVE",
"719 549 OFFCURVE",
"702 548 CURVE SMOOTH",
"541 543 OFFCURVE",
"-5 478 OFFCURVE",
"-5 246 CURVE SMOOTH",
"-5 207 OFFCURVE",
"22 169 OFFCURVE",
"87 142 CURVE SMOOTH",
"123 127 OFFCURVE",
"181 121 OFFCURVE",
"234 121 CURVE SMOOTH",
"278 121 OFFCURVE",
"317 125 OFFCURVE",
"336 130 CURVE SMOOTH",
"359 136 OFFCURVE",
"318 142 OFFCURVE",
"298 141 CURVE SMOOTH",
"288 141 OFFCURVE",
"278 140 OFFCURVE",
"267 140 CURVE SMOOTH",
"213 140 OFFCURVE",
"150 147 OFFCURVE",
"107 160 CURVE SMOOTH",
"49 178 OFFCURVE",
"27 207 OFFCURVE",
"27 240 CURVE SMOOTH",
"27 462 OFFCURVE",
"624 525 OFFCURVE",
"715 528 CURVE SMOOTH",
"735 529 OFFCURVE",
"755 529 OFFCURVE",
"774 529 CURVE SMOOTH",
"903 529 OFFCURVE",
"989 510 OFFCURVE",
"1015 452 CURVE SMOOTH",
"1020 440 OFFCURVE",
"1023 425 OFFCURVE",
"1023 409 CURVE SMOOTH",
"1023 312 OFFCURVE",
"936 147 OFFCURVE",
"850 38 CURVE SMOOTH",
"796 -30 LINE SMOOTH",
"774 -58 OFFCURVE",
"833 -63 OFFCURVE",
"852 -58 CURVE SMOOTH"
);
}
);
width = 1180;
}
);
note = V;
unicode = 0056;
},
{
glyphname = W;
layers = (
{
hints = (
{
horizontal = 1;
place = "{-32, 16}";
type = Stem;
},
{
horizontal = 1;
place = "{121, 19}";
type = Stem;
},
{
horizontal = 1;
place = "{581, 16}";
type = Stem;
},
{
place = "{12, 30}";
type = Stem;
},
{
place = "{1014, 37}";
type = Stem;
},
{
place = "{1158, 40}";
type = Stem;
},
{
place = "{1628, 50}";
type = Stem;
},
{
horizontal = 1;
place = "{543, 14}";
type = Stem;
}
);
layerId = "B8E2B95E-9E44-4943-9D49-9B6A251F446D";
paths = (
{
closed = 1;
nodes = (
"1182 284 LINE SMOOTH",
"1171 259 OFFCURVE",
"1158 197 OFFCURVE",
"1158 135 CURVE SMOOTH",
"1158 51 OFFCURVE",
"1182 -34 OFFCURVE",
"1271 -32 CURVE SMOOTH",
"1409 -32 OFFCURVE",
"1542 99 OFFCURVE",
"1617 214 CURVE SMOOTH",
"1651 265 OFFCURVE",
"1678 343 OFFCURVE",
"1678 412 CURVE SMOOTH",
"1678 490 OFFCURVE",
"1643 556 OFFCURVE",
"1545 557 CURVE SMOOTH",
"1527 557 OFFCURVE",
"1506 553 OFFCURVE",
"1486 546 CURVE SMOOTH",
"1474 541 OFFCURVE",
"1477 535 OFFCURVE",
"1489 535 CURVE",
"1507 541 OFFCURVE",
"1525 544 OFFCURVE",
"1539 543 CURVE SMOOTH",
"1606 540 OFFCURVE",
"1628 482 OFFCURVE",
"1628 415 CURVE SMOOTH",
"1628 354 OFFCURVE",
"1609 286 OFFCURVE",
"1588 245 CURVE SMOOTH",
"1530 128 OFFCURVE",
"1411 -16 OFFCURVE",
"1279 -16 CURVE SMOOTH",
"1219 -16 OFFCURVE",
"1198 37 OFFCURVE",
"1198 104 CURVE SMOOTH",
"1198 213 OFFCURVE",
"1254 358 OFFCURVE",
"1289 364 CURVE SMOOTH",
"1300 366 OFFCURVE",
"1341 405 OFFCURVE",
"1352 426 CURVE SMOOTH",
"1360 440 OFFCURVE",
"1316 456 OFFCURVE",
"1302 456 CURVE SMOOTH",
"1264 456 OFFCURVE",
"1256 426 OFFCURVE",
"1221 372 CURVE",
"1208 343 LINE",
"1079 232 OFFCURVE",
"953 103 OFFCURVE",
"884 28 CURVE",
"943 105 OFFCURVE",
"1052 307 OFFCURVE",
"1051 422 CURVE SMOOTH",
"1051 560 OFFCURVE",
"915 597 OFFCURVE",
"751 597 CURVE SMOOTH",
"734 597 OFFCURVE",
"717 597 OFFCURVE",
"699 596 CURVE SMOOTH",
"432 586 OFFCURVE",
"12 464 OFFCURVE",
"12 227 CURVE SMOOTH",
"12 160 OFFCURVE",
"110 121 OFFCURVE",
"197 121 CURVE SMOOTH",
"214 121 OFFCURVE",
"280 121 OFFCURVE",
"309 128 CURVE SMOOTH",
"332 134 OFFCURVE",
"318 142 OFFCURVE",
"298 141 CURVE SMOOTH",
"288 141 OFFCURVE",
"278 140 OFFCURVE",
"268 140 CURVE SMOOTH",
"162 140 OFFCURVE",
"42 165 OFFCURVE",
"42 228 CURVE SMOOTH",
"42 424 OFFCURVE",
"520 571 OFFCURVE",
"760 580 CURVE SMOOTH",
"772 581 OFFCURVE",
"784 581 OFFCURVE",
"796 581 CURVE SMOOTH",
"898 581 OFFCURVE",
"979 557 OFFCURVE",
"1006 494 CURVE SMOOTH",
"1011 480 OFFCURVE",
"1014 464 OFFCURVE",
"1014 444 CURVE SMOOTH",
"1014 335 OFFCURVE",
"936 146 OFFCURVE",
"850 38 CURVE SMOOTH",
"796 -30 LINE SMOOTH",
"774 -58 OFFCURVE",
"833 -63 OFFCURVE",
"852 -58 CURVE SMOOTH",
"861 -56 OFFCURVE",
"905 -8 OFFCURVE",
"919 12 CURVE",
"919 29 OFFCURVE",
"956 67 OFFCURVE",
"987 102 CURVE SMOOTH",
"1041 164 OFFCURVE",
"1116 240 OFFCURVE",
"1192 308 CURVE"
);
}
);
width = 1550;
}
);
note = W;
unicode = 0057;
},
{
glyphname = X;
layers = (
{
hints = (
{
horizontal = 1;
place = "{-142, 31}";
type = Stem;
},
{
horizontal = 1;
place = "{-41, 21}";
target = up;
type = BottomGhost;
},
{
horizontal = 1;
place = "{121, 19}";
type = Stem;
},
{
horizontal = 1;
place = "{581, 16}";
type = Stem;
},
{
place = "{52, 30}";
type = Stem;
},
{
place = "{464, 15}";
type = Stem;
},
{
place = "{1079, 48}";
type = Stem;
}
);
layerId = "B8E2B95E-9E44-4943-9D49-9B6A251F446D";
paths = (
{
closed = 1;
nodes = (
"1392 644 OFFCURVE",
"1392 661 OFFCURVE",
"1381 661 CURVE SMOOTH",
"1372 661 OFFCURVE",
"1355 649 OFFCURVE",
"1351 641 CURVE SMOOTH",
"1302 550 OFFCURVE",
"1221 450 OFFCURVE",
"1127 353 CURVE",
"1114 511 OFFCURVE",
"1029 597 OFFCURVE",
"788 597 CURVE SMOOTH",
"772 597 OFFCURVE",
"756 597 OFFCURVE",
"739 596 CURVE SMOOTH",
"472 586 OFFCURVE",
"52 464 OFFCURVE",
"52 227 CURVE SMOOTH",
"52 160 OFFCURVE",
"150 121 OFFCURVE",
"237 121 CURVE SMOOTH",
"254 121 OFFCURVE",
"320 121 OFFCURVE",
"349 128 CURVE SMOOTH",
"372 134 OFFCURVE",
"358 142 OFFCURVE",
"338 141 CURVE SMOOTH",
"328 141 OFFCURVE",
"318 140 OFFCURVE",
"308 140 CURVE SMOOTH",
"202 140 OFFCURVE",
"82 165 OFFCURVE",
"82 228 CURVE SMOOTH",
"82 424 OFFCURVE",
"560 571 OFFCURVE",
"800 580 CURVE SMOOTH",
"810 580 OFFCURVE",
"820 581 OFFCURVE",
"829 581 CURVE SMOOTH",
"1034 581 OFFCURVE",
"1084 467 OFFCURVE",
"1079 305 CURVE",
"871 103 OFFCURVE",
"617 -74 OFFCURVE",
"497 -108 CURVE SMOOTH",
"480 -114 OFFCURVE",
"474 -113 OFFCURVE",
"484 -86 CURVE",
"487 -70 OFFCURVE",
"473 -84 OFFCURVE",
"469 -91 CURVE SMOOTH",
"453 -122 OFFCURVE",
"480 -148 OFFCURVE",
"508 -142 CURVE",
"624 -139 OFFCURVE",
"877 78 OFFCURVE",
"1078 278 CURVE",
"1076 245 OFFCURVE",
"1072 210 OFFCURVE",
"1067 175 CURVE SMOOTH",
"1059 118 OFFCURVE",
"1044 65 OFFCURVE",
"1027 26 CURVE SMOOTH",
"1021 12 OFFCURVE",
"1018 -1 OFFCURVE",
"1018 -11 CURVE SMOOTH",
"1018 -38 OFFCURVE",
"1036 -51 OFFCURVE",
"1054 -34 CURVE SMOOTH",
"1084 -7 OFFCURVE",
"1109 74 OFFCURVE",
"1123 201 CURVE SMOOTH",
"1127 235 OFFCURVE",
"1129 268 OFFCURVE",
"1129 298 CURVE SMOOTH",
"1129 309 OFFCURVE",
"1129 319 OFFCURVE",
"1128 329 CURVE",
"1236 440 OFFCURVE",
"1323 539 OFFCURVE",
"1352 584 CURVE SMOOTH"
);
}
);
width = 1180;
}
);
note = X;
unicode = 0058;
},
{
glyphname = Y;
layers = (
{
hints = (
{
horizontal = 1;
place = "{-556, 18}";
type = Stem;
},
{
horizontal = 1;
place = "{-27, 19}";
type = Stem;
},
{
horizontal = 1;
place = "{224, 23}";
type = Stem;
},
{
place = "{10, 43}";
type = Stem;
},
{
place = "{295, 42}";
type = Stem;
},
{
place = "{860, 63}";
type = Stem;
},
{
horizontal = 1;
place = "{-68, 24}";
type = Stem;
},
{
horizontal = 1;
place = "{-33, 23}";
type = Stem;
},
{
horizontal = 1;
place = "{420, 38}";
type = Stem;
},
{
horizontal = 1;
place = "{-33, 21}";
target = up;
type = BottomGhost;
}
);
layerId = "B8E2B95E-9E44-4943-9D49-9B6A251F446D";
paths = (
{
closed = 1;
nodes = (
"354 265 LINE",
"322 192 OFFCURVE",
"294 72 OFFCURVE",
"295 19 CURVE SMOOTH",
"296 -42 OFFCURVE",
"330 -68 OFFCURVE",
"370 -68 CURVE SMOOTH",
"391 -68 OFFCURVE",
"415 -61 OFFCURVE",
"435 -48 CURVE SMOOTH",
"494 -12 OFFCURVE",
"556 51 OFFCURVE",
"618 120 CURVE SMOOTH",
"696 207 OFFCURVE",
"773 292 OFFCURVE",
"856 403 CURVE",
"859 394 OFFCURVE",
"860 381 OFFCURVE",
"860 366 CURVE SMOOTH",
"860 270 OFFCURVE",
"806 77 OFFCURVE",
"759 -6 CURVE",
"758 -7 OFFCURVE",
"757 -9 OFFCURVE",
"757 -10 CURVE",
"736 -12 OFFCURVE",
"716 -15 OFFCURVE",
"695 -20 CURVE SMOOTH",
"520 -64 OFFCURVE",
"87 -224 OFFCURVE",
"47 -443 CURVE SMOOTH",
"31 -531 OFFCURVE",
"111 -559 OFFCURVE",
"181 -556 CURVE SMOOTH",
"410 -549 OFFCURVE",
"639 -319 OFFCURVE",
"795 -28 CURVE",
"805 -28 OFFCURVE",
"814 -27 OFFCURVE",
"824 -27 CURVE SMOOTH",
"834 -27 OFFCURVE",
"844 -28 OFFCURVE",
"854 -28 CURVE SMOOTH",
"899 -30 OFFCURVE",
"943 -39 OFFCURVE",
"952 -58 CURVE",
"953 -65 OFFCURVE",
"966 -58 OFFCURVE",
"962 -52 CURVE",
"952 -27 OFFCURVE",
"904 -15 OFFCURVE",
"858 -10 CURVE SMOOTH",
"841 -9 OFFCURVE",
"823 -8 OFFCURVE",
"806 -8 CURVE",
"863 107 OFFCURVE",
"920 286 OFFCURVE",
"923 349 CURVE SMOOTH",
"926 416 OFFCURVE",
"902 459 OFFCURVE",
"861 458 CURVE SMOOTH",
"811 457 OFFCURVE",
"820 430 OFFCURVE",
"833 425 CURVE SMOOTH",
"843 420 LINE",
"770 317 OFFCURVE",
"684 225 OFFCURVE",
"599 140 CURVE SMOOTH",
"531 71 OFFCURVE",
"464 6 OFFCURVE",
"426 -19 CURVE SMOOTH",
"400 -37 OFFCURVE",
"382 -44 OFFCURVE",
"368 -44 CURVE SMOOTH",
"345 -44 OFFCURVE",
"337 -23 OFFCURVE",
"337 6 CURVE SMOOTH",
"337 58 OFFCURVE",
"362 134 OFFCURVE",
"372 163 CURVE SMOOTH",
"426 323 OFFCURVE",
"541 492 OFFCURVE",
"585 552 CURVE SMOOTH",
"593 564 OFFCURVE",
"551 580 OFFCURVE",
"538 580 CURVE SMOOTH",
"519 580 OFFCURVE",
"481 521 OFFCURVE",
"447 461 CURVE",
"442 456 LINE SMOOTH",
"343 356 OFFCURVE",
"205 253 OFFCURVE",
"97 247 CURVE SMOOTH",
"61 246 OFFCURVE",
"51 263 OFFCURVE",
"53 293 CURVE",
"61 348 OFFCURVE",
"112 405 OFFCURVE",
"153 438 CURVE SMOOTH",
"159 442 OFFCURVE",
"142 441 OFFCURVE",
"131 434 CURVE SMOOTH",
"70 399 OFFCURVE",
"10 326 OFFCURVE",
"10 276 CURVE SMOOTH",
"10 248 OFFCURVE",
"29 227 OFFCURVE",
"77 224 CURVE SMOOTH",
"158 218 OFFCURVE",
"295 291 OFFCURVE",
"402 380 CURVE",
"384 346 LINE"
);
},
{
closed = 1;
nodes = (
"107 -540 OFFCURVE",
"66 -511 OFFCURVE",
"66 -463 CURVE SMOOTH",
"66 -416 OFFCURVE",
"106 -350 OFFCURVE",
"204 -277 CURVE SMOOTH",
"351 -167 OFFCURVE",
"538 -76 OFFCURVE",
"689 -44 CURVE SMOOTH",
"707 -40 OFFCURVE",
"725 -36 OFFCURVE",
"743 -33 CURVE",
"609 -265 OFFCURVE",
"390 -529 OFFCURVE",
"169 -538 CURVE SMOOTH"
);
}
);
width = 829;
}
);
note = Y;
unicode = 0059;
},
{
glyphname = Z;
layers = (
{
hints = (
{
horizontal = 1;
place = "{-336, 19}";
type = Stem;
},
{
horizontal = 1;
place = "{-72, 15}";
type = Stem;
},
{
horizontal = 1;
place = "{68, 12}";
type = Stem;
},
{
horizontal = 1;
place = "{531, 26}";
type = Stem;
},
{
place = "{213, 18}";
type = Stem;
}
);
layerId = "B8E2B95E-9E44-4943-9D49-9B6A251F446D";
paths = (
{
closed = 1;
nodes = (
"208 381 OFFCURVE",
"214 346 OFFCURVE",
"243 338 CURVE",
"250 337 OFFCURVE",
"259 341 OFFCURVE",
"246 348 CURVE SMOOTH",
"223 358 OFFCURVE",
"231 382 OFFCURVE",
"241 405 CURVE SMOOTH",
"278 496 OFFCURVE",
"456 531 OFFCURVE",
"598 531 CURVE SMOOTH",
"635 531 OFFCURVE",
"669 528 OFFCURVE",
"698 524 CURVE SMOOTH",
"734 518 OFFCURVE",
"768 509 OFFCURVE",
"799 498 CURVE",
"660 431 OFFCURVE",
"478 206 OFFCURVE",
"341 81 CURVE",
"180 76 OFFCURVE",
"48 23 OFFCURVE",
"31 -30 CURVE SMOOTH",
"28 -41 OFFCURVE",
"26 -51 OFFCURVE",
"26 -60 CURVE SMOOTH",
"26 -90 OFFCURVE",
"43 -100 OFFCURVE",
"52 -70 CURVE SMOOTH",
"78 19 OFFCURVE",
"210 60 OFFCURVE",
"326 67 CURVE",
"262 11 OFFCURVE",
"171 -52 OFFCURVE",
"132 -57 CURVE SMOOTH",
"106 -60 OFFCURVE",
"94 -52 OFFCURVE",
"92 -54 CURVE",
"88 -61 OFFCURVE",
"101 -71 OFFCURVE",
"118 -72 CURVE SMOOTH",
"192 -76 OFFCURVE",
"287 -8 OFFCURVE",
"367 68 CURVE",
"380 68 OFFCURVE",
"393 67 OFFCURVE",
"405 66 CURVE SMOOTH",
"670 47 OFFCURVE",
"1040 -127 OFFCURVE",
"1013 -266 CURVE SMOOTH",
"1006 -302 OFFCURVE",
"954 -317 OFFCURVE",
"893 -317 CURVE SMOOTH",
"870 -317 OFFCURVE",
"846 -315 OFFCURVE",
"822 -311 CURVE SMOOTH",
"806 -309 OFFCURVE",
"795 -314 OFFCURVE",
"811 -320 CURVE SMOOTH",
"833 -327 OFFCURVE",
"883 -333 OFFCURVE",
"897 -334 CURVE SMOOTH",
"907 -335 OFFCURVE",
"917 -336 OFFCURVE",
"928 -336 CURVE SMOOTH",
"987 -336 OFFCURVE",
"1047 -317 OFFCURVE",
"1056 -275 CURVE SMOOTH",
"1086 -106 OFFCURVE",
"714 57 OFFCURVE",
"428 79 CURVE SMOOTH",
"380 81 LINE",
"533 230 OFFCURVE",
"730 413 OFFCURVE",
"847 471 CURVE",
"865 463 OFFCURVE",
"880 455 OFFCURVE",
"893 446 CURVE SMOOTH",
"904 439 OFFCURVE",
"908 451 OFFCURVE",
"902 457 CURVE SMOOTH",
"892 466 OFFCURVE",
"881 474 OFFCURVE",
"868 480 CURVE",
"898 493 OFFCURVE",
"883 510 OFFCURVE",
"858 505 CURVE SMOOTH",
"848 503 OFFCURVE",
"831 510 OFFCURVE",
"821 507 CURVE",
"750 528 LINE SMOOTH",
"693 545 OFFCURVE",
"615 557 OFFCURVE",
"537 557 CURVE SMOOTH",
"398 557 OFFCURVE",
"255 519 OFFCURVE",
"216 406 CURVE SMOOTH"
);
}
);
width = 638;
}
);
note = Z;
unicode = 005A;
},
{
glyphname = bracketleft;
layers = (
{
hints = (
{
horizontal = 1;
place = "{-16, 18}";
type = Stem;
},
{
place = "{7, 17}";
type = Stem;
},
{
place = "{92, 87}";
type = Stem;
},
{
place = "{196, 100}";
type = Stem;
}
);
layerId = "B8E2B95E-9E44-4943-9D49-9B6A251F446D";
paths = (
{
closed = 1;
nodes = (
"668 631 OFFCURVE",
"608 636 OFFCURVE",
"563 636 CURVE SMOOTH",
"536 636 OFFCURVE",
"513 631 OFFCURVE",
"496 619 CURVE SMOOTH",
"388 547 OFFCURVE",
"124 75 OFFCURVE",
"124 -57 CURVE SMOOTH",
"124 -76 OFFCURVE",
"152 -89 OFFCURVE",
"194 -93 CURVE SMOOTH",
"223 -96 OFFCURVE",
"257 -97 OFFCURVE",
"289 -97 CURVE SMOOTH",
"338 -97 OFFCURVE",
"382 -95 OFFCURVE",
"396 -94 CURVE SMOOTH",
"436 -92 OFFCURVE",
"440 -70 OFFCURVE",
"419 -72 CURVE SMOOTH",
"397 -74 OFFCURVE",
"357 -77 OFFCURVE",
"315 -77 CURVE SMOOTH",
"291 -77 OFFCURVE",
"266 -76 OFFCURVE",
"245 -73 CURVE SMOOTH",
"206 -67 OFFCURVE",
"178 -56 OFFCURVE",
"178 -22 CURVE SMOOTH",
"178 109 OFFCURVE",
"449 534 OFFCURVE",
"522 598 CURVE",
"539 609 OFFCURVE",
"579 611 OFFCURVE",
"617 611 CURVE SMOOTH",
"650 611 OFFCURVE",
"681 609 OFFCURVE",
"698 609 CURVE SMOOTH",
"727 608 OFFCURVE",
"723 621 OFFCURVE",
"699 625 CURVE SMOOTH"
);
}
);
width = 441;
}
);
note = bracketleft;
unicode = 005B;
},
{
glyphname = backslash;
layers = (
{
hints = (
{
place = "{93, 32}";
type = Stem;
}
);
layerId = "B8E2B95E-9E44-4943-9D49-9B6A251F446D";
paths = (
{
closed = 1;
nodes = (
"208 288 OFFCURVE",
"359 0 OFFCURVE",
"410 -64 CURVE SMOOTH",
"424 -81 OFFCURVE",
"443 -85 OFFCURVE",
"429 -63 CURVE SMOOTH",
"389 2 OFFCURVE",
"213 329 OFFCURVE",
"176 493 CURVE",
"174 498 OFFCURVE",
"169 503 OFFCURVE",
"160 503 CURVE SMOOTH",
"138 504 OFFCURVE",
"138 481 OFFCURVE",
"154 435 CURVE SMOOTH"
);
}
);
width = 406;
}
);
note = backslash;
unicode = 005C;
},
{
glyphname = bracketright;
layers = (
{
hints = (
{
horizontal = 1;
place = "{-101, 30}";
type = Stem;
},
{
horizontal = 1;
place = "{605, 25}";
type = Stem;
},
{
place = "{689, 47}";
type = Stem;
}
);
layerId = "B8E2B95E-9E44-4943-9D49-9B6A251F446D";
paths = (
{
closed = 1;
nodes = (
"140 -95 OFFCURVE",
"221 -101 OFFCURVE",
"266 -101 CURVE SMOOTH",
"293 -101 OFFCURVE",
"356 -95 OFFCURVE",
"373 -83 CURVE SMOOTH",
"472 -10 OFFCURVE",
"736 461 OFFCURVE",
"736 593 CURVE SMOOTH",
"736 612 OFFCURVE",
"719 626 OFFCURVE",
"666 629 CURVE SMOOTH",
"657 629 OFFCURVE",
"643 630 OFFCURVE",
"628 630 CURVE SMOOTH",
"580 630 OFFCURVE",
"514 628 OFFCURVE",
"498 627 CURVE SMOOTH",
"469 625 OFFCURVE",
"467 601 OFFCURVE",
"486 603 CURVE SMOOTH",
"498 604 OFFCURVE",
"517 605 OFFCURVE",
"538 605 CURVE SMOOTH",
"595 605 OFFCURVE",
"671 600 OFFCURVE",
"689 593 CURVE",
"689 462 OFFCURVE",
"435 3 OFFCURVE",
"344 -55 CURVE",
"303 -68 OFFCURVE",
"215 -71 OFFCURVE",
"156 -71 CURVE SMOOTH",
"134 -71 OFFCURVE",
"116 -70 OFFCURVE",
"106 -70 CURVE SMOOTH",
"77 -69 OFFCURVE",
"85 -85 OFFCURVE",
"109 -89 CURVE SMOOTH"
);
}
);
width = 500;
}
);
note = bracketright;
unicode = 005D;
},
{
glyphname = asciicircum;
layers = (
{
hints = (
{
horizontal = 1;
place = "{324, 127}";
type = Stem;
},
{
place = "{62, 272}";
type = Stem;
}
);
layerId = "B8E2B95E-9E44-4943-9D49-9B6A251F446D";
paths = (
{
closed = 1;
nodes = (
"329 366 OFFCURVE",
"309 410 OFFCURVE",
"296 432 CURVE SMOOTH",
"282 455 OFFCURVE",
"262 446 OFFCURVE",
"246 438 CURVE SMOOTH",
"219 424 OFFCURVE",
"86 343 OFFCURVE",
"84 338 CURVE SMOOTH",
"80 331 OFFCURVE",
"81 328 OFFCURVE",
"86 328 CURVE SMOOTH",
"95 328 OFFCURVE",
"199 383 OFFCURVE",
"253 412 CURVE",
"266 408 OFFCURVE",
"308 343 OFFCURVE",
"340 319 CURVE SMOOTH",
"344 316 OFFCURVE",
"360 323 OFFCURVE",
"352 334 CURVE SMOOTH"
);
}
);
width = 370;
}
);
note = asciicircum;
unicode = 005E;
},
{
glyphname = underscore;
layers = (
{
hints = (
{
horizontal = 1;
place = "{-117, 22}";
type = Stem;
},
{
place = "{1, 795}";
type = Stem;
},
{
horizontal = 1;
place = "{-121, 26}";
type = Stem;
}
);
layerId = "B8E2B95E-9E44-4943-9D49-9B6A251F446D";
paths = (
{
closed = 1;
nodes = (
"716 -97 OFFCURVE",
"510 -95 OFFCURVE",
"326 -95 CURVE SMOOTH",
"197 -95 OFFCURVE",
"79 -96 OFFCURVE",
"29 -97 CURVE SMOOTH",
"-8 -98 OFFCURVE",
"-3 -121 OFFCURVE",
"13 -121 CURVE SMOOTH",
"91 -121 OFFCURVE",
"689 -117 OFFCURVE",
"780 -117 CURVE SMOOTH",
"810 -117 OFFCURVE",
"792 -103 OFFCURVE",
"780 -102 CURVE SMOOTH"
);
}
);
width = 769;
}
);
note = underscore;
unicode = 005F;
},
{
glyphname = grave;
lastChange = "2020-07-28 17:46:26 +0000";
layers = (
{
hints = (
{
horizontal = 1;
place = "{484, 90}";
type = Stem;
},
{
place = "{188, 157}";
type = Stem;
}
);
layerId = "B8E2B95E-9E44-4943-9D49-9B6A251F446D";
paths = (
{
closed = 1;
nodes = (
"159 432 OFFCURVE",
"218 404 OFFCURVE",
"254 389 CURVE SMOOTH",
"271 382 OFFCURVE",
"313 372 OFFCURVE",
"268 399 CURVE SMOOTH",
"228 423 OFFCURVE",
"187 451 OFFCURVE",
"162 471 CURVE",
"148 474 OFFCURVE",
"127 454 OFFCURVE",
"131 448 CURVE"
);
}
);
width = 401;
}
);
note = grave;
unicode = 0060;
},
{
glyphname = a;
layers = (
{
hints = (
{
horizontal = 1;
place = "{-12, 16}";
type = Stem;
},
{
horizontal = 1;
place = "{-5, 13}";
type = Stem;
},
{
horizontal = 1;
place = "{256, 25}";
type = Stem;
},
{
place = "{14, 28}";
type = Stem;
},
{
place = "{255, 27}";
type = Stem;
},
{
place = "{310, 15}";
type = Stem;
}
);
layerId = "B8E2B95E-9E44-4943-9D49-9B6A251F446D";
paths = (
{
closed = 1;
nodes = (
"462 188 OFFCURVE",
"443 191 OFFCURVE",
"435 186 CURVE",
"393 149 OFFCURVE",
"334 102 OFFCURVE",
"292 66 CURVE SMOOTH",
"276 51 OFFCURVE",
"215 9 OFFCURVE",
"179 9 CURVE SMOOTH",
"161 9 OFFCURVE",
"149 20 OFFCURVE",
"153 52 CURVE SMOOTH",
"163 125 OFFCURVE",
"335 266 OFFCURVE",
"415 257 CURVE SMOOTH",
"443 254 OFFCURVE",
"443 224 OFFCURVE",
"443 216 CURVE SMOOTH",
"443 200 OFFCURVE",
"460 209 OFFCURVE",
"458 227 CURVE SMOOTH",
"452 266 OFFCURVE",
"437 287 OFFCURVE",
"398 287 CURVE SMOOTH",
"379 287 OFFCURVE",
"355 282 OFFCURVE",
"324 272 CURVE SMOOTH",
"233 242 OFFCURVE",
"121 128 OFFCURVE",
"121 54 CURVE SMOOTH",
"121 40 OFFCURVE",
"125 26 OFFCURVE",
"134 16 CURVE SMOOTH",
"147 1 OFFCURVE",
"164 -6 OFFCURVE",
"183 -6 CURVE SMOOTH",
"262 -6 OFFCURVE",
"375 107 OFFCURVE",
"411 146 CURVE",
"400 119 OFFCURVE",
"390 88 OFFCURVE",
"389 60 CURVE SMOOTH",
"389 5 OFFCURVE",
"424 -11 OFFCURVE",
"464 -11 CURVE SMOOTH",
"489 -11 OFFCURVE",
"517 -4 OFFCURVE",
"537 3 CURVE SMOOTH",
"643 41 OFFCURVE",
"759 148 OFFCURVE",
"776 170 CURVE SMOOTH",
"783 179 OFFCURVE",
"780 183 OFFCURVE",
"772 180 CURVE",
"758 167 OFFCURVE",
"747 161 OFFCURVE",
"733 149 CURVE SMOOTH",
"676 101 OFFCURVE",
"601 49 OFFCURVE",
"531 23 CURVE SMOOTH",
"498 11 OFFCURVE",
"474 5 OFFCURVE",
"457 5 CURVE SMOOTH",
"434 5 OFFCURVE",
"424 16 OFFCURVE",
"424 35 CURVE SMOOTH",
"424 60 OFFCURVE",
"440 98 OFFCURVE",
"463 145 CURVE SMOOTH",
"471 163 OFFCURVE",
"475 177 OFFCURVE",
"469 182 CURVE SMOOTH"
);
}
);
width = 557;
}
);
note = a;
unicode = 0061;
},
{
glyphname = b;
layers = (
{
hints = (
{
horizontal = 1;
place = "{-16, 15}";
type = Stem;
},
{
horizontal = 1;
place = "{38, 16}";
type = Stem;
},
{
horizontal = 1;
place = "{208, 15}";
type = Stem;
},
{
horizontal = 1;
place = "{459, 51}";
type = Stem;
},
{
place = "{12, 35}";
type = Stem;
},
{
place = "{105, 19}";
type = Stem;
},
{
place = "{375, 33}";
type = Stem;
}
);
layerId = "B8E2B95E-9E44-4943-9D49-9B6A251F446D";
paths = (
{
closed = 1;
nodes = (
"203 32 LINE SMOOTH",
"243 96 OFFCURVE",
"344 171 OFFCURVE",
"414 199 CURVE SMOOTH",
"440 209 OFFCURVE",
"475 219 OFFCURVE",
"502 219 CURVE SMOOTH",
"521 219 OFFCURVE",
"544 212 OFFCURVE",
"546 181 CURVE",
"407 154 OFFCURVE",
"315 105 OFFCURVE",
"287 74 CURVE SMOOTH",
"274 59 OFFCURVE",
"267 45 OFFCURVE",
"267 33 CURVE SMOOTH",
"267 12 OFFCURVE",
"287 -2 OFFCURVE",
"319 -2 CURVE SMOOTH",
"409 -2 OFFCURVE",
"579 75 OFFCURVE",
"579 173 CURVE",
"634 185 OFFCURVE",
"696 193 OFFCURVE",
"762 195 CURVE SMOOTH",
"789 196 OFFCURVE",
"766 204 OFFCURVE",
"762 204 CURVE SMOOTH",
"737 204 OFFCURVE",
"656 199 OFFCURVE",
"578 186 CURVE",
"574 208 OFFCURVE",
"549 238 OFFCURVE",
"491 234 CURVE SMOOTH",
"379 227 OFFCURVE",
"248 132 OFFCURVE",
"187 51 CURVE",
"224 140 OFFCURVE",
"369 391 OFFCURVE",
"542 467 CURVE SMOOTH",
"544 468 OFFCURVE",
"546 468 OFFCURVE",
"547 468 CURVE SMOOTH",
"552 468 OFFCURVE",
"559 464 OFFCURVE",
"562 460 CURVE SMOOTH",
"563 459 OFFCURVE",
"566 451 OFFCURVE",
"568 451 CURVE SMOOTH",
"573 451 OFFCURVE",
"577 463 OFFCURVE",
"577 467 CURVE SMOOTH",
"578 484 OFFCURVE",
"561 518 OFFCURVE",
"542 518 CURVE SMOOTH",
"533 518 OFFCURVE",
"524 513 OFFCURVE",
"517 508 CURVE SMOOTH",
"384 413 OFFCURVE",
"252 258 OFFCURVE",
"182 118 CURVE SMOOTH",
"161 77 OFFCURVE",
"149 39 OFFCURVE",
"149 17 CURVE SMOOTH",
"149 5 OFFCURVE",
"157 -12 OFFCURVE",
"170 -12 CURVE SMOOTH",
"175 -12 OFFCURVE",
"178 -9 OFFCURVE",
"180 -5 CURVE SMOOTH"
);
},
{
closed = 1;
nodes = (
"398 31 OFFCURVE",
"354 19 OFFCURVE",
"325 19 CURVE SMOOTH",
"304 19 OFFCURVE",
"290 25 OFFCURVE",
"290 37 CURVE SMOOTH",
"290 46 OFFCURVE",
"299 59 OFFCURVE",
"319 75 CURVE SMOOTH",
"354 102 OFFCURVE",
"435 139 OFFCURVE",
"543 165 CURVE",
"533 139 OFFCURVE",
"493 92 OFFCURVE",
"435 54 CURVE SMOOTH"
);
}
);
width = 580;
}
);
note = b;
unicode = 0062;
},
{
glyphname = c;
layers = (
{
hints = (
{
horizontal = 1;
place = "{-9, 18}";
type = Stem;
},
{
horizontal = 1;
place = "{261, -20}";
target = down;
type = TopGhost;
},
{
place = "{18, 21}";
type = Stem;
},
{
place = "{187, 20}";
type = Stem;
},
{
place = "{233, 15}";
type = Stem;
}
);
layerId = "B8E2B95E-9E44-4943-9D49-9B6A251F446D";
paths = (
{
closed = 1;
nodes = (
"644 180 OFFCURVE",
"642 183 OFFCURVE",
"633 180 CURVE",
"553 110 OFFCURVE",
"437 31 OFFCURVE",
"334 10 CURVE SMOOTH",
"320 7 OFFCURVE",
"304 6 OFFCURVE",
"288 6 CURVE SMOOTH",
"241 6 OFFCURVE",
"193 20 OFFCURVE",
"190 63 CURVE SMOOTH",
"186 144 OFFCURVE",
"319 247 OFFCURVE",
"390 247 CURVE SMOOTH",
"409 247 OFFCURVE",
"417 241 OFFCURVE",
"417 231 CURVE SMOOTH",
"417 209 OFFCURVE",
"381 173 OFFCURVE",
"370 164 CURVE SMOOTH",
"363 158 OFFCURVE",
"366 150 OFFCURVE",
"369 150 CURVE",
"399 155 OFFCURVE",
"466 228 OFFCURVE",
"454 256 CURVE SMOOTH",
"448 272 OFFCURVE",
"427 281 OFFCURVE",
"398 281 CURVE SMOOTH",
"370 281 OFFCURVE",
"335 273 OFFCURVE",
"297 255 CURVE SMOOTH",
"236 227 OFFCURVE",
"165 149 OFFCURVE",
"165 82 CURVE SMOOTH",
"165 53 OFFCURVE",
"178 27 OFFCURVE",
"210 7 CURVE SMOOTH",
"232 -7 OFFCURVE",
"260 -13 OFFCURVE",
"291 -13 CURVE SMOOTH",
"349 -13 OFFCURVE",
"415 8 OFFCURVE",
"464 36 CURVE SMOOTH",
"509 62 OFFCURVE",
"618 138 OFFCURVE",
"638 171 CURVE SMOOTH"
);
}
);
width = 423;
}
);
note = c;
unicode = 0063;
},
{
glyphname = d;
layers = (
{
hints = (
{
horizontal = 1;
place = "{-12, 15}";
type = Stem;
},
{
horizontal = 1;
place = "{8, 16}";
type = Stem;
},
{
horizontal = 1;
place = "{268, 23}";
type = Stem;
},
{
horizontal = 1;
place = "{389, 51}";
type = Stem;
},
{
place = "{15, 27}";
type = Stem;
},
{
place = "{255, 24}";
type = Stem;
},
{
place = "{570, 14}";
type = Stem;
}
);
layerId = "B8E2B95E-9E44-4943-9D49-9B6A251F446D";
paths = (
{
closed = 1;
nodes = (
"800 184 OFFCURVE",
"800 194 OFFCURVE",
"791 186 CURVE SMOOTH",
"745 147 OFFCURVE",
"695 110 OFFCURVE",
"647 79 CURVE SMOOTH",
"595 45 OFFCURVE",
"535 8 OFFCURVE",
"469 8 CURVE SMOOTH",
"436 8 OFFCURVE",
"424 26 OFFCURVE",
"424 50 CURVE SMOOTH",
"424 98 OFFCURVE",
"471 175 OFFCURVE",
"490 200 CURVE SMOOTH",
"506 221 OFFCURVE",
"524 242 OFFCURVE",
"541 263 CURVE SMOOTH",
"579 307 OFFCURVE",
"621 346 OFFCURVE",
"661 374 CURVE SMOOTH",
"669 379 OFFCURVE",
"707 402 OFFCURVE",
"712 382 CURVE SMOOTH",
"713 376 OFFCURVE",
"714 367 OFFCURVE",
"723 378 CURVE SMOOTH",
"733 391 OFFCURVE",
"718 426 OFFCURVE",
"699 437 CURVE SMOOTH",
"691 442 OFFCURVE",
"679 441 OFFCURVE",
"665 430 CURVE SMOOTH",
"581 366 OFFCURVE",
"526 291 OFFCURVE",
"456 216 CURVE SMOOTH",
"393 149 OFFCURVE",
"320 86 OFFCURVE",
"244 40 CURVE SMOOTH",
"230 31 OFFCURVE",
"214 24 OFFCURVE",
"202 24 CURVE SMOOTH",
"188 24 OFFCURVE",
"179 35 OFFCURVE",
"184 67 CURVE SMOOTH",
"195 142 OFFCURVE",
"323 277 OFFCURVE",
"406 269 CURVE SMOOTH",
"432 266 OFFCURVE",
"441 247 OFFCURVE",
"447 232 CURVE SMOOTH",
"452 220 OFFCURVE",
"464 227 OFFCURVE",
"463 238 CURVE SMOOTH",
"462 254 OFFCURVE",
"453 265 OFFCURVE",
"440 274 CURVE SMOOTH",
"422 286 OFFCURVE",
"403 291 OFFCURVE",
"383 291 CURVE SMOOTH",
"368 291 OFFCURVE",
"352 288 OFFCURVE",
"337 282 CURVE SMOOTH",
"265 251 OFFCURVE",
"156 146 OFFCURVE",
"156 72 CURVE SMOOTH",
"156 57 OFFCURVE",
"160 42 OFFCURVE",
"171 31 CURVE SMOOTH",
"184 16 OFFCURVE",
"203 5 OFFCURVE",
"224 9 CURVE SMOOTH",
"292 19 OFFCURVE",
"422 166 OFFCURVE",
"428 171 CURVE",
"407 137 OFFCURVE",
"388 89 OFFCURVE",
"388 50 CURVE SMOOTH",
"388 11 OFFCURVE",
"407 -19 OFFCURVE",
"463 -15 CURVE SMOOTH",
"537 -9 OFFCURVE",
"593 17 OFFCURVE",
"655 59 CURVE SMOOTH",
"728 107 OFFCURVE",
"780 160 OFFCURVE",
"794 177 CURVE SMOOTH"
);
}
);
width = 568;
}
);
note = d;
unicode = 0064;
},
{
glyphname = e;
layers = (
{
hints = (
{
horizontal = 1;
place = "{-3, 19}";
type = Stem;
},
{
horizontal = 1;
place = "{135, 7}";
type = Stem;
},
{
place = "{1, 28}";
type = Stem;
},
{
place = "{252, 23}";
type = Stem;
}
);
layerId = "B8E2B95E-9E44-4943-9D49-9B6A251F446D";
paths = (
{
closed = 1;
nodes = (
"622 200 OFFCURVE",
"617 206 OFFCURVE",
"610 200 CURVE SMOOTH",
"528 127 OFFCURVE",
"388 18 OFFCURVE",
"278 16 CURVE SMOOTH",
"210 16 OFFCURVE",
"190 48 OFFCURVE",
"197 84 CURVE SMOOTH",
"200 99 OFFCURVE",
"208 116 OFFCURVE",
"219 133 CURVE",
"230 130 OFFCURVE",
"254 128 OFFCURVE",
"276 131 CURVE SMOOTH",
"332 136 OFFCURVE",
"443 161 OFFCURVE",
"443 232 CURVE SMOOTH",
"443 255 OFFCURVE",
"428 275 OFFCURVE",
"395 284 CURVE SMOOTH",
"372 290 OFFCURVE",
"333 284 OFFCURVE",
"312 272 CURVE SMOOTH",
"248 235 OFFCURVE",
"169 158 OFFCURVE",
"169 91 CURVE SMOOTH",
"169 67 OFFCURVE",
"179 45 OFFCURVE",
"202 26 CURVE SMOOTH",
"227 6 OFFCURVE",
"256 -2 OFFCURVE",
"286 -2 CURVE SMOOTH",
"334 -2 OFFCURVE",
"384 18 OFFCURVE",
"424 39 CURVE SMOOTH",
"452 54 OFFCURVE",
"587 149 OFFCURVE",
"616 191 CURVE SMOOTH"
);
},
{
closed = 1;
nodes = (
"369 256 OFFCURVE",
"385 260 OFFCURVE",
"396 260 CURVE SMOOTH",
"412 260 OFFCURVE",
"420 252 OFFCURVE",
"420 241 CURVE SMOOTH",
"420 187 OFFCURVE",
"319 154 OFFCURVE",
"280 146 CURVE SMOOTH",
"258 142 OFFCURVE",
"239 141 OFFCURVE",
"226 143 CURVE",
"258 186 OFFCURVE",
"308 227 OFFCURVE",
"350 247 CURVE SMOOTH"
);
}
);
width = 374;
}
);
note = e;
unicode = 0065;
},
{
glyphname = f;
layers = (
{
hints = (
{
horizontal = 1;
place = "{-448, 14}";
type = Stem;
},
{
horizontal = 1;
place = "{-245, 18}";
type = Stem;
},
{
horizontal = 1;
place = "{-2, 13}";
type = Stem;
},
{
horizontal = 1;
place = "{250, 21}";
type = Stem;
},
{
horizontal = 1;
place = "{250, 23}";
type = Stem;
},
{
horizontal = 1;
place = "{256, 17}";
type = Stem;
},
{
horizontal = 1;
place = "{484, 27}";
type = Stem;
},
{
place = "{-274, 15}";
type = Stem;
},
{
place = "{52, 30}";
type = Stem;
},
{
place = "{348, 7}";
type = Stem;
},
{
place = "{526, 32}";
type = Stem;
}
);
layerId = "B8E2B95E-9E44-4943-9D49-9B6A251F446D";
paths = (
{
closed = 1;
nodes = (
"262 263 OFFCURVE",
"251 243 OFFCURVE",
"259 229 CURVE",
"209 172 OFFCURVE",
"156 103 OFFCURVE",
"108 25 CURVE SMOOTH",
"74 -31 OFFCURVE",
"14 -147 OFFCURVE",
"14 -223 CURVE SMOOTH",
"14 -266 OFFCURVE",
"34 -295 OFFCURVE",
"88 -294 CURVE SMOOTH",
"228 -289 OFFCURVE",
"370 -27 OFFCURVE",
"370 122 CURVE SMOOTH",
"370 165 OFFCURVE",
"358 199 OFFCURVE",
"331 214 CURVE",
"404 216 OFFCURVE",
"496 239 OFFCURVE",
"557 242 CURVE",
"563 243 OFFCURVE",
"568 254 OFFCURVE",
"561 252 CURVE",
"530 248 OFFCURVE",
"494 247 OFFCURVE",
"458 247 CURVE SMOOTH",
"414 247 OFFCURVE",
"368 249 OFFCURVE",
"328 253 CURVE",
"392 319 LINE SMOOTH",
"437 367 OFFCURVE",
"503 405 OFFCURVE",
"511 375 CURVE SMOOTH",
"512 370 OFFCURVE",
"535 396 OFFCURVE",
"524 418 CURVE SMOOTH",
"511 443 OFFCURVE",
"469 434 OFFCURVE",
"397 370 CURVE SMOOTH",
"367 343 OFFCURVE",
"328 305 OFFCURVE",
"285 258 CURVE",
"283 258 OFFCURVE",
"282 259 OFFCURVE",
"281 259 CURVE SMOOTH"
);
},
{
closed = 1;
nodes = (
"58 -282 OFFCURVE",
"45 -261 OFFCURVE",
"45 -231 CURVE SMOOTH",
"45 -168 OFFCURVE",
"101 -60 OFFCURVE",
"135 -3 CURVE SMOOTH",
"188 85 OFFCURVE",
"245 158 OFFCURVE",
"294 215 CURVE",
"297 215 OFFCURVE",
"299 214 OFFCURVE",
"301 214 CURVE",
"330 208 OFFCURVE",
"342 179 OFFCURVE",
"342 137 CURVE SMOOTH",
"342 -2 OFFCURVE",
"206 -278 OFFCURVE",
"92 -281 CURVE SMOOTH"
);
}
);
width = 371;
}
);
note = f;
unicode = 0066;
},
{
glyphname = g;
layers = (
{
hints = (
{
horizontal = 1;
place = "{-447, 14}";
type = Stem;
},
{
horizontal = 1;
place = "{-1, 13}";
type = Stem;
},
{
horizontal = 1;
place = "{257, 17}";
type = Stem;
},
{
place = "{31, 30}";
type = Stem;
},
{
place = "{327, 7}";
type = Stem;
}
);
layerId = "B8E2B95E-9E44-4943-9D49-9B6A251F446D";
paths = (
{
closed = 1;
nodes = (
"414 152 OFFCURVE",
"418 156 OFFCURVE",
"424 160 CURVE",
"430 152 OFFCURVE",
"433 139 OFFCURVE",
"433 123 CURVE SMOOTH",
"433 83 OFFCURVE",
"416 25 OFFCURVE",
"391 -25 CURVE",
"282 -30 OFFCURVE",
"172 -84 OFFCURVE",
"86 -139 CURVE SMOOTH",
"17 -183 OFFCURVE",
"-51 -246 OFFCURVE",
"-54 -319 CURVE SMOOTH",
"-56 -380 OFFCURVE",
"-1 -392 OFFCURVE",
"42 -392 CURVE SMOOTH",
"156 -392 OFFCURVE",
"305 -263 OFFCURVE",
"393 -104 CURVE SMOOTH",
"402 -87 OFFCURVE",
"414 -65 OFFCURVE",
"425 -40 CURVE",
"455 -39 OFFCURVE",
"499 -44 OFFCURVE",
"508 -63 CURVE",
"509 -68 OFFCURVE",
"516 -64 OFFCURVE",
"513 -60 CURVE",
"506 -36 OFFCURVE",
"463 -28 OFFCURVE",
"431 -26 CURVE",
"456 29 OFFCURVE",
"479 94 OFFCURVE",
"479 140 CURVE SMOOTH",
"479 172 OFFCURVE",
"468 195 OFFCURVE",
"437 198 CURVE SMOOTH",
"404 201 OFFCURVE",
"403 171 OFFCURVE",
"410 169 CURVE",
"372 136 OFFCURVE",
"332 100 OFFCURVE",
"296 70 CURVE SMOOTH",
"279 55 OFFCURVE",
"222 8 OFFCURVE",
"190 8 CURVE SMOOTH",
"175 8 OFFCURVE",
"165 19 OFFCURVE",
"169 50 CURVE SMOOTH",
"179 124 OFFCURVE",
"323 265 OFFCURVE",
"405 256 CURVE SMOOTH",
"434 253 OFFCURVE",
"438 224 OFFCURVE",
"438 216 CURVE SMOOTH",
"438 200 OFFCURVE",
"455 209 OFFCURVE",
"453 227 CURVE SMOOTH",
"447 268 OFFCURVE",
"407 282 OFFCURVE",
"370 282 CURVE SMOOTH",
"354 282 OFFCURVE",
"340 279 OFFCURVE",
"328 275 CURVE SMOOTH",
"253 249 OFFCURVE",
"141 133 OFFCURVE",
"141 56 CURVE SMOOTH",
"141 43 OFFCURVE",
"145 30 OFFCURVE",
"152 20 CURVE SMOOTH",
"164 2 OFFCURVE",
"181 -5 OFFCURVE",
"199 -5 CURVE SMOOTH",
"271 -5 OFFCURVE",
"375 109 OFFCURVE",
"412 148 CURVE"
);
},
{
closed = 1;
nodes = (
"-5 -378 OFFCURVE",
"-30 -357 OFFCURVE",
"-30 -324 CURVE SMOOTH",
"-30 -292 OFFCURVE",
"-6 -249 OFFCURVE",
"52 -202 CURVE SMOOTH",
"147 -123 OFFCURVE",
"264 -56 OFFCURVE",
"381 -43 CURVE",
"293 -207 OFFCURVE",
"174 -375 OFFCURVE",
"34 -377 CURVE SMOOTH"
);
}
);
width = 481;
}
);
note = g;
unicode = 0067;
},
{
glyphname = h;
layers = (
{
hints = (
{
horizontal = 1;
place = "{-16, 17}";
type = Stem;
},
{
horizontal = 1;
place = "{-2, 24}";
type = Stem;
},
{
place = "{-7, 19}";
type = Stem;
},
{
place = "{194, 24}";
type = Stem;
}
);
layerId = "B8E2B95E-9E44-4943-9D49-9B6A251F446D";
paths = (
{
closed = 1;
nodes = (
"367 275 OFFCURVE",
"511 380 OFFCURVE",
"572 488 CURVE SMOOTH",
"580 501 OFFCURVE",
"587 518 OFFCURVE",
"587 533 CURVE SMOOTH",
"587 551 OFFCURVE",
"577 565 OFFCURVE",
"549 565 CURVE SMOOTH",
"439 565 OFFCURVE",
"285 371 OFFCURVE",
"214 225 CURVE SMOOTH",
"210 218 OFFCURVE",
"203 212 OFFCURVE",
"187 202 CURVE",
"176 193 OFFCURVE",
"184 187 OFFCURVE",
"196 191 CURVE",
"155 116 OFFCURVE",
"122 41 OFFCURVE",
"136 11 CURVE SMOOTH",
"151 -23 OFFCURVE",
"194 -13 OFFCURVE",
"176 17 CURVE",
"195 31 OFFCURVE",
"362 167 OFFCURVE",
"420 226 CURVE",
"411 193 OFFCURVE",
"405 158 OFFCURVE",
"405 125 CURVE SMOOTH",
"405 49 OFFCURVE",
"435 -17 OFFCURVE",
"518 -17 CURVE SMOOTH",
"563 -17 OFFCURVE",
"614 0 OFFCURVE",
"641 14 CURVE SMOOTH",
"736 58 OFFCURVE",
"840 150 OFFCURVE",
"857 170 CURVE SMOOTH",
"864 179 OFFCURVE",
"861 183 OFFCURVE",
"853 180 CURVE",
"839 167 OFFCURVE",
"828 161 OFFCURVE",
"813 149 CURVE SMOOTH",
"764 109 OFFCURVE",
"701 66 OFFCURVE",
"642 38 CURVE SMOOTH",
"596 13 OFFCURVE",
"559 3 OFFCURVE",
"529 3 CURVE SMOOTH",
"469 3 OFFCURVE",
"442 47 OFFCURVE",
"442 103 CURVE SMOOTH",
"442 145 OFFCURVE",
"457 194 OFFCURVE",
"485 237 CURVE SMOOTH",
"488 242 OFFCURVE",
"494 260 OFFCURVE",
"489 266 CURVE SMOOTH",
"476 286 OFFCURVE",
"466 296 OFFCURVE",
"458 296 CURVE SMOOTH",
"450 296 OFFCURVE",
"442 286 OFFCURVE",
"434 266 CURVE",
"367 208 OFFCURVE",
"195 52 OFFCURVE",
"172 38 CURVE",
"166 62 OFFCURVE",
"196 135 OFFCURVE",
"233 205 CURVE"
);
},
{
closed = 1;
nodes = (
"512 402 OFFCURVE",
"359 296 OFFCURVE",
"245 228 CURVE",
"261 256 OFFCURVE",
"277 284 OFFCURVE",
"292 307 CURVE SMOOTH",
"327 357 OFFCURVE",
"361 393 OFFCURVE",
"393 427 CURVE SMOOTH",
"444 482 OFFCURVE",
"569 582 OFFCURVE",
"569 533 CURVE"
);
}
);
width = 641;
}
);
note = h;
unicode = 0068;
},
{
glyphname = i;
layers = (
{
hints = (
{
horizontal = 1;
place = "{-16, 18}";
type = Stem;
},
{
place = "{7, 17}";
type = Stem;
},
{
place = "{92, 87}";
type = Stem;
},
{
place = "{196, 100}";
type = Stem;
}
);
layerId = "B8E2B95E-9E44-4943-9D49-9B6A251F446D";
paths = (
{
closed = 1;
nodes = (
"400 365 OFFCURVE",
"328 357 OFFCURVE",
"321 339 CURVE SMOOTH",
"313 321 OFFCURVE",
"318 305 OFFCURVE",
"332 303 CURVE SMOOTH",
"346 301 OFFCURVE",
"363 314 OFFCURVE",
"371 332 CURVE SMOOTH",
"379 350 OFFCURVE",
"428 361 OFFCURVE",
"414 363 CURVE SMOOTH"
);
},
{
closed = 1;
nodes = (
"532 179 OFFCURVE",
"529 183 OFFCURVE",
"521 180 CURVE",
"461 132 OFFCURVE",
"408 81 OFFCURVE",
"343 48 CURVE SMOOTH",
"302 27 OFFCURVE",
"253 9 OFFCURVE",
"204 9 CURVE SMOOTH",
"174 9 OFFCURVE",
"159 18 OFFCURVE",
"159 37 CURVE SMOOTH",
"159 54 OFFCURVE",
"171 78 OFFCURVE",
"196 110 CURVE SMOOTH",
"222 143 OFFCURVE",
"267 182 OFFCURVE",
"289 198 CURVE SMOOTH",
"294 202 OFFCURVE",
"301 209 OFFCURVE",
"301 216 CURVE SMOOTH",
"301 231 OFFCURVE",
"269 238 OFFCURVE",
"256 233 CURVE SMOOTH",
"225 220 OFFCURVE",
"206 192 OFFCURVE",
"218 189 CURVE",
"190 164 OFFCURVE",
"129 102 OFFCURVE",
"129 41 CURVE SMOOTH",
"129 4 OFFCURVE",
"161 -8 OFFCURVE",
"199 -8 CURVE SMOOTH",
"242 -8 OFFCURVE",
"293 7 OFFCURVE",
"319 18 CURVE SMOOTH",
"416 61 OFFCURVE",
"509 149 OFFCURVE",
"525 170 CURVE SMOOTH"
);
}
);
width = 311;
}
);
note = i;
unicode = 0069;
},
{
glyphname = j;
layers = (
{
hints = (
{
horizontal = 1;
place = "{-450, 17}";
type = Stem;
},
{
place = "{-670, 918}";
type = Stem;
},
{
place = "{148, 100}";
type = Stem;
}
);
layerId = "B8E2B95E-9E44-4943-9D49-9B6A251F446D";
paths = (
{
closed = 1;
nodes = (
"214 184 OFFCURVE",
"220 166 OFFCURVE",
"220 140 CURVE SMOOTH",
"220 93 OFFCURVE",
"199 20 OFFCURVE",
"170 -34 CURVE",
"152 -35 OFFCURVE",
"133 -38 OFFCURVE",
"115 -42 CURVE SMOOTH",
"-42 -76 OFFCURVE",
"-427 -207 OFFCURVE",
"-458 -394 CURVE SMOOTH",
"-470 -470 OFFCURVE",
"-397 -495 OFFCURVE",
"-334 -494 CURVE SMOOTH",
"-129 -492 OFFCURVE",
"102 -248 OFFCURVE",
"205 -50 CURVE",
"223 -49 OFFCURVE",
"240 -49 OFFCURVE",
"259 -51 CURVE SMOOTH",
"299 -54 OFFCURVE",
"339 -62 OFFCURVE",
"347 -79 CURVE SMOOTH",
"349 -85 OFFCURVE",
"359 -80 OFFCURVE",
"356 -74 CURVE SMOOTH",
"347 -52 OFFCURVE",
"303 -41 OFFCURVE",
"261 -36 CURVE SMOOTH",
"245 -34 OFFCURVE",
"230 -33 OFFCURVE",
"214 -33 CURVE",
"217 -27 OFFCURVE",
"219 -21 OFFCURVE",
"222 -16 CURVE",
"252 52 OFFCURVE",
"268 114 OFFCURVE",
"268 157 CURVE SMOOTH",
"268 197 OFFCURVE",
"255 221 OFFCURVE",
"226 217 CURVE SMOOTH",
"192 213 OFFCURVE",
"191 189 OFFCURVE",
"198 187 CURVE SMOOTH"
);
},
{
closed = 1;
nodes = (
"-402 -479 OFFCURVE",
"-440 -452 OFFCURVE",
"-440 -410 CURVE SMOOTH",
"-440 -370 OFFCURVE",
"-405 -315 OFFCURVE",
"-320 -255 CURVE SMOOTH",
"-191 -163 OFFCURVE",
"-25 -88 OFFCURVE",
"110 -62 CURVE SMOOTH",
"127 -58 OFFCURVE",
"143 -56 OFFCURVE",
"159 -54 CURVE",
"67 -219 OFFCURVE",
"-144 -475 OFFCURVE",
"-346 -478 CURVE SMOOTH"
);
},
{
closed = 1;
nodes = (
"359 365 OFFCURVE",
"287 357 OFFCURVE",
"280 339 CURVE SMOOTH",
"272 321 OFFCURVE",
"277 305 OFFCURVE",
"291 303 CURVE SMOOTH",
"305 301 OFFCURVE",
"322 314 OFFCURVE",
"330 332 CURVE SMOOTH",
"338 350 OFFCURVE",
"387 361 OFFCURVE",
"373 363 CURVE SMOOTH"
);
}
);
width = 279;
}
);
note = j;
unicode = 006A;
},
{
glyphname = k;
layers = (
{
hints = (
{
horizontal = 1;
place = "{-39, 21}";
target = up;
type = BottomGhost;
},
{
horizontal = 1;
place = "{-12, 15}";
type = Stem;
},
{
horizontal = 1;
place = "{-4, 13}";
type = Stem;
},
{
horizontal = 1;
place = "{8, 16}";
type = Stem;
},
{
horizontal = 1;
place = "{68, 25}";
type = Stem;
},
{
horizontal = 1;
place = "{204, 9}";
type = Stem;
},
{
horizontal = 1;
place = "{268, 23}";
type = Stem;
},
{
horizontal = 1;
place = "{389, 51}";
type = Stem;
},
{
horizontal = 1;
place = "{506, 22}";
type = Stem;
},
{
place = "{15, 23}";
type = Stem;
},
{
place = "{29, 27}";
type = Stem;
},
{
place = "{269, 24}";
type = Stem;
},
{
place = "{281, 13}";
type = Stem;
},
{
place = "{391, 40}";
type = Stem;
},
{
place = "{521, 22}";
type = Stem;
},
{
place = "{584, 14}";
type = Stem;
}
);
layerId = "B8E2B95E-9E44-4943-9D49-9B6A251F446D";
paths = (
{
closed = 1;
nodes = (
"824 179 OFFCURVE",
"821 183 OFFCURVE",
"813 180 CURVE",
"799 167 OFFCURVE",
"788 161 OFFCURVE",
"773 149 CURVE SMOOTH",
"703 92 OFFCURVE",
"575 7 OFFCURVE",
"485 7 CURVE SMOOTH",
"415 7 OFFCURVE",
"387 63 OFFCURVE",
"387 122 CURVE SMOOTH",
"387 147 OFFCURVE",
"392 171 OFFCURVE",
"401 193 CURVE",
"470 241 OFFCURVE",
"547 277 OFFCURVE",
"621 288 CURVE SMOOTH",
"646 292 OFFCURVE",
"660 308 OFFCURVE",
"660 322 CURVE SMOOTH",
"660 336 OFFCURVE",
"647 347 OFFCURVE",
"620 342 CURVE SMOOTH",
"572 333 OFFCURVE",
"487 281 OFFCURVE",
"406 221 CURVE",
"403 233 OFFCURVE",
"394 245 OFFCURVE",
"384 245 CURVE SMOOTH",
"375 245 OFFCURVE",
"365 237 OFFCURVE",
"357 214 CURVE SMOOTH",
"352 202 OFFCURVE",
"349 189 OFFCURVE",
"347 175 CURVE",
"296 133 OFFCURVE",
"250 92 OFFCURVE",
"222 64 CURVE SMOOTH",
"211 52 OFFCURVE",
"199 40 OFFCURVE",
"189 28 CURVE",
"189 40 OFFCURVE",
"190 54 OFFCURVE",
"190 54 CURVE",
"201 105 OFFCURVE",
"228 158 OFFCURVE",
"255 209 CURVE",
"386 271 OFFCURVE",
"546 364 OFFCURVE",
"607 463 CURVE SMOOTH",
"620 483 OFFCURVE",
"627 504 OFFCURVE",
"627 521 CURVE SMOOTH",
"627 547 OFFCURVE",
"611 566 OFFCURVE",
"575 566 CURVE SMOOTH",
"450 566 OFFCURVE",
"289 359 OFFCURVE",
"218 213 CURVE SMOOTH",
"214 206 OFFCURVE",
"207 200 OFFCURVE",
"191 190 CURVE",
"180 181 OFFCURVE",
"188 175 OFFCURVE",
"200 179 CURVE",
"170 124 OFFCURVE",
"151 75 OFFCURVE",
"151 33 CURVE SMOOTH",
"151 18 OFFCURVE",
"153 3 OFFCURVE",
"159 -10 CURVE SMOOTH",
"164 -22 OFFCURVE",
"179 -23 OFFCURVE",
"188 -14 CURVE",
"195 -9 OFFCURVE",
"205 13 OFFCURVE",
"212 21 CURVE SMOOTH",
"252 68 OFFCURVE",
"299 112 OFFCURVE",
"345 150 CURVE",
"342 68 OFFCURVE",
"387 -17 OFFCURVE",
"478 -17 CURVE SMOOTH",
"523 -17 OFFCURVE",
"574 0 OFFCURVE",
"601 14 CURVE SMOOTH",
"696 58 OFFCURVE",
"800 150 OFFCURVE",
"817 170 CURVE SMOOTH"
);
},
{
closed = 1;
nodes = (
"512 365 OFFCURVE",
"422 319 OFFCURVE",
"267 233 CURVE",
"297 302 OFFCURVE",
"353 362 OFFCURVE",
"409 425 CURVE SMOOTH",
"453 476 OFFCURVE",
"550 539 OFFCURVE",
"589 538 CURVE SMOOTH",
"619 535 OFFCURVE",
"593 491 OFFCURVE",
"586 480 CURVE SMOOTH"
);
}
);
width = 601;
}
);
note = k;
unicode = 006B;
},
{
glyphname = l;
layers = (
{
hints = (
{
horizontal = 1;
place = "{-11, 529}";
type = Stem;
},
{
place = "{-2, 456}";
type = Stem;
}
);
layerId = "B8E2B95E-9E44-4943-9D49-9B6A251F446D";
paths = (
{
closed = 1;
nodes = (
"650 165 OFFCURVE",
"656 184 OFFCURVE",
"643 172 CURVE SMOOTH",
"615 146 OFFCURVE",
"531 83 OFFCURVE",
"445 40 CURVE SMOOTH",
"394 15 OFFCURVE",
"342 -4 OFFCURVE",
"302 -3 CURVE SMOOTH",
"244 -2 OFFCURVE",
"221 49 OFFCURVE",
"221 102 CURVE SMOOTH",
"221 124 OFFCURVE",
"225 146 OFFCURVE",
"232 164 CURVE",
"294 193 OFFCURVE",
"563 363 OFFCURVE",
"563 488 CURVE SMOOTH",
"563 505 OFFCURVE",
"553 518 OFFCURVE",
"526 518 CURVE SMOOTH",
"416 518 OFFCURVE",
"256 327 OFFCURVE",
"204 183 CURVE SMOOTH",
"201 176 OFFCURVE",
"195 170 OFFCURVE",
"181 161 CURVE",
"171 152 OFFCURVE",
"180 146 OFFCURVE",
"191 149 CURVE",
"188 133 OFFCURVE",
"185 106 OFFCURVE",
"185 93 CURVE SMOOTH",
"186 12 OFFCURVE",
"240 -18 OFFCURVE",
"308 -18 CURVE SMOOTH",
"352 -18 OFFCURVE",
"402 -6 OFFCURVE",
"446 14 CURVE SMOOTH",
"519 48 OFFCURVE",
"586 101 OFFCURVE",
"642 157 CURVE SMOOTH"
);
},
{
closed = 1;
nodes = (
"268 258 OFFCURVE",
"321 325 OFFCURVE",
"367 374 CURVE SMOOTH",
"407 417 OFFCURVE",
"500 498 OFFCURVE",
"531 498 CURVE SMOOTH",
"538 498 OFFCURVE",
"540 495 OFFCURVE",
"540 489 CURVE SMOOTH",
"540 375 OFFCURVE",
"264 200 OFFCURVE",
"235 185 CURVE"
);
}
);
width = 448;
}
);
note = l;
unicode = 006C;
},
{
glyphname = m;
layers = (
{
hints = (
{
horizontal = 1;
place = "{-32, 21}";
target = up;
type = BottomGhost;
},
{
horizontal = 1;
place = "{-4, 21}";
target = up;
type = BottomGhost;
},
{
horizontal = 1;
place = "{29, 22}";
type = Stem;
},
{
horizontal = 1;
place = "{128, 43}";
type = Stem;
},
{
horizontal = 1;
place = "{178, 21}";
type = Stem;
},
{
horizontal = 1;
place = "{233, 34}";
type = Stem;
},
{
place = "{311, 36}";
type = Stem;
}
);
layerId = "B8E2B95E-9E44-4943-9D49-9B6A251F446D";
paths = (
{
closed = 1;
nodes = (
"519 102 OFFCURVE",
"528 -4 OFFCURVE",
"628 -4 CURVE SMOOTH",
"650 -4 OFFCURVE",
"674 3 OFFCURVE",
"699 13 CURVE SMOOTH",
"770 42 OFFCURVE",
"846 103 OFFCURVE",
"894 142 CURVE SMOOTH",
"950 190 OFFCURVE",
"970 232 OFFCURVE",
"944 210 CURVE SMOOTH",
"881 158 LINE SMOOTH",
"825 113 OFFCURVE",
"774 73 OFFCURVE",
"718 45 CURVE SMOOTH",
"695 34 OFFCURVE",
"662 24 OFFCURVE",
"635 24 CURVE SMOOTH",
"619 24 OFFCURVE",
"605 27 OFFCURVE",
"595 36 CURVE SMOOTH",
"557 70 OFFCURVE",
"551 131 OFFCURVE",
"546 155 CURVE SMOOTH",
"543 169 OFFCURVE",
"540 194 OFFCURVE",
"501 160 CURVE SMOOTH",
"470 133 OFFCURVE",
"425 65 OFFCURVE",
"408 51 CURVE",
"415 71 OFFCURVE",
"436 123 OFFCURVE",
"436 156 CURVE SMOOTH",
"436 176 OFFCURVE",
"409 199 OFFCURVE",
"386 199 CURVE SMOOTH",
"335 199 OFFCURVE",
"168 57 OFFCURVE",
"130 14 CURVE",
"145 47 OFFCURVE",
"279 204 OFFCURVE",
"339 230 CURVE SMOOTH",
"350 235 OFFCURVE",
"352 234 OFFCURVE",
"359 234 CURVE SMOOTH",
"364 234 OFFCURVE",
"370 244 OFFCURVE",
"361 250 CURVE SMOOTH",
"353 255 OFFCURVE",
"331 267 OFFCURVE",
"326 267 CURVE SMOOTH",
"277 267 OFFCURVE",
"128 61 OFFCURVE",
"103 -1 CURVE SMOOTH",
"100 -7 OFFCURVE",
"78 -31 OFFCURVE",
"112 -31 CURVE SMOOTH",
"121 -31 OFFCURVE",
"154 4 OFFCURVE",
"197 44 CURVE SMOOTH",
"246 91 OFFCURVE",
"306 141 OFFCURVE",
"327 155 CURVE SMOOTH",
"341 164 OFFCURVE",
"364 177 OFFCURVE",
"380 177 CURVE SMOOTH",
"394 177 OFFCURVE",
"404 168 OFFCURVE",
"400 141 CURVE SMOOTH",
"396 111 OFFCURVE",
"380 71 OFFCURVE",
"376 45 CURVE SMOOTH",
"371 13 OFFCURVE",
"399 4 OFFCURVE",
"418 27 CURVE SMOOTH",
"434 47 OFFCURVE",
"473 109 OFFCURVE",
"507 139 CURVE"
);
}
);
width = 686;
}
);
note = m;
unicode = 006D;
},
{
glyphname = n;
layers = (
{
hints = (
{
horizontal = 1;
place = "{-8, 21}";
target = up;
type = BottomGhost;
},
{
horizontal = 1;
place = "{15, 9}";
type = Stem;
},
{
horizontal = 1;
place = "{160, 25}";
type = Stem;
},
{
horizontal = 1;
place = "{233, 29}";
type = Stem;
},
{
place = "{10, 34}";
type = Stem;
}
);
layerId = "B8E2B95E-9E44-4943-9D49-9B6A251F446D";
paths = (
{
closed = 1;
nodes = (
"273 267 OFFCURVE",
"157 94 OFFCURVE",
"130 38 CURVE SMOOTH",
"127 32 OFFCURVE",
"106 -12 OFFCURVE",
"134 -8 CURVE SMOOTH",
"135 -8 OFFCURVE",
"162 24 OFFCURVE",
"177 38 CURVE SMOOTH",
"205 66 OFFCURVE",
"238 97 OFFCURVE",
"281 126 CURVE SMOOTH",
"313 148 OFFCURVE",
"335 157 OFFCURVE",
"352 157 CURVE SMOOTH",
"419 157 OFFCURVE",
"367 -8 OFFCURVE",
"468 -8 CURVE SMOOTH",
"554 -8 OFFCURVE",
"668 83 OFFCURVE",
"740 142 CURVE SMOOTH",
"797 190 OFFCURVE",
"816 232 OFFCURVE",
"790 210 CURVE SMOOTH",
"727 158 LINE SMOOTH",
"672 113 OFFCURVE",
"611 68 OFFCURVE",
"555 40 CURVE SMOOTH",
"527 26 OFFCURVE",
"503 17 OFFCURVE",
"484 17 CURVE SMOOTH",
"458 17 OFFCURVE",
"442 34 OFFCURVE",
"437 85 CURVE SMOOTH",
"432 132 OFFCURVE",
"430 188 OFFCURVE",
"383 188 CURVE SMOOTH",
"372 188 OFFCURVE",
"358 185 OFFCURVE",
"342 178 CURVE SMOOTH",
"271 149 OFFCURVE",
"175 69 OFFCURVE",
"150 31 CURVE",
"165 65 OFFCURVE",
"284 208 OFFCURVE",
"335 230 CURVE SMOOTH",
"346 235 OFFCURVE",
"348 234 OFFCURVE",
"355 234 CURVE SMOOTH",
"360 234 OFFCURVE",
"366 244 OFFCURVE",
"357 250 CURVE SMOOTH",
"349 255 OFFCURVE",
"327 267 OFFCURVE",
"322 267 CURVE SMOOTH"
);
}
);
width = 533;
}
);
note = n;
unicode = 006E;
},
{
glyphname = o;
layers = (
{
hints = (
{
horizontal = 1;
place = "{-12, 16}";
type = Stem;
},
{
horizontal = 1;
place = "{-10, 23}";
type = Stem;
},
{
horizontal = 1;
place = "{-5, 13}";
type = Stem;
},
{
horizontal = 1;
place = "{182, 33}";
type = Stem;
},
{
horizontal = 1;
place = "{266, -20}";
target = down;
type = TopGhost;
},
{
horizontal = 1;
place = "{273, 15}";
type = Stem;
},
{
place = "{13, 17}";
type = Stem;
},
{
place = "{14, 28}";
type = Stem;
},
{
place = "{256, 26}";
type = Stem;
},
{
place = "{278, 55}";
type = Stem;
},
{
place = "{423, 17}";
type = Stem;
}
);
layerId = "B8E2B95E-9E44-4943-9D49-9B6A251F446D";
paths = (
{
closed = 1;
nodes = (
"218 270 OFFCURVE",
"195 235 OFFCURVE",
"238 212 CURVE SMOOTH",
"278 190 OFFCURVE",
"364 183 OFFCURVE",
"438 182 CURVE",
"424 155 OFFCURVE",
"402 127 OFFCURVE",
"380 107 CURVE SMOOTH",
"324 54 OFFCURVE",
"248 9 OFFCURVE",
"208 2 CURVE SMOOTH",
"164 -6 OFFCURVE",
"149 7 OFFCURVE",
"149 27 CURVE SMOOTH",
"149 47 OFFCURVE",
"164 74 OFFCURVE",
"179 94 CURVE SMOOTH",
"200 118 OFFCURVE",
"254 173 OFFCURVE",
"273 161 CURVE SMOOTH",
"282 154 OFFCURVE",
"279 166 OFFCURVE",
"277 169 CURVE",
"276 173 OFFCURVE",
"240 191 OFFCURVE",
"233 190 CURVE SMOOTH",
"191 182 OFFCURVE",
"141 121 OFFCURVE",
"126 74 CURVE SMOOTH",
"122 64 OFFCURVE",
"121 54 OFFCURVE",
"121 44 CURVE SMOOTH",
"121 12 OFFCURVE",
"140 -18 OFFCURVE",
"186 -18 CURVE SMOOTH",
"280 -19 OFFCURVE",
"442 71 OFFCURVE",
"469 181 CURVE",
"497 181 OFFCURVE",
"522 182 OFFCURVE",
"539 183 CURVE SMOOTH",
"605 186 OFFCURVE",
"672 203 OFFCURVE",
"702 216 CURVE SMOOTH",
"724 226 OFFCURVE",
"721 239 OFFCURVE",
"703 229 CURVE SMOOTH",
"675 214 OFFCURVE",
"599 199 OFFCURVE",
"539 199 CURVE SMOOTH",
"519 199 OFFCURVE",
"496 199 OFFCURVE",
"473 200 CURVE",
"474 208 OFFCURVE",
"474 217 OFFCURVE",
"473 226 CURVE SMOOTH",
"467 267 OFFCURVE",
"434 283 OFFCURVE",
"395 284 CURVE SMOOTH",
"359 285 OFFCURVE",
"303 275 OFFCURVE",
"251 245 CURVE",
"246 248 OFFCURVE",
"241 252 OFFCURVE",
"236 256 CURVE SMOOTH"
);
},
{
closed = 1;
nodes = (
"447 264 OFFCURVE",
"457 235 OFFCURVE",
"446 201 CURVE",
"385 204 OFFCURVE",
"320 213 OFFCURVE",
"270 236 CURVE",
"304 254 OFFCURVE",
"347 266 OFFCURVE",
"392 266 CURVE SMOOTH"
);
}
);
width = 450;
}
);
note = o;
unicode = 006F;
},
{
glyphname = p;
layers = (
{
hints = (
{
horizontal = 1;
place = "{-279, 12}";
type = Stem;
},
{
horizontal = 1;
place = "{-1, 26}";
type = Stem;
},
{
horizontal = 1;
place = "{121, 11}";
type = Stem;
},
{
horizontal = 1;
place = "{261, 22}";
type = Stem;
},
{
place = "{-50, 36}";
type = Stem;
},
{
place = "{156, 16}";
type = Stem;
},
{
place = "{499, 23}";
type = Stem;
},
{
horizontal = 1;
place = "{261, 14}";
type = Stem;
}
);
layerId = "B8E2B95E-9E44-4943-9D49-9B6A251F446D";
paths = (
{
closed = 1;
nodes = (
"566 210 OFFCURVE",
"546 236 OFFCURVE",
"532 247 CURVE SMOOTH",
"493 276 OFFCURVE",
"443 283 OFFCURVE",
"400 283 CURVE SMOOTH",
"361 283 OFFCURVE",
"328 277 OFFCURVE",
"315 275 CURVE",
"286 294 OFFCURVE",
"211 245 OFFCURVE",
"210 225 CURVE SMOOTH",
"210 218 OFFCURVE",
"231 222 OFFCURVE",
"247 223 CURVE",
"190 179 OFFCURVE",
"-8 -74 OFFCURVE",
"-7 -214 CURVE SMOOTH",
"-7 -220 OFFCURVE",
"-4 -240 OFFCURVE",
"3 -249 CURVE SMOOTH",
"14 -262 OFFCURVE",
"51 -278 OFFCURVE",
"56 -278 CURVE SMOOTH",
"65 -278 OFFCURVE",
"73 -267 OFFCURVE",
"54 -267 CURVE SMOOTH",
"34 -267 OFFCURVE",
"30 -233 OFFCURVE",
"30 -223 CURVE SMOOTH",
"21 -62 OFFCURVE",
"273 231 OFFCURVE",
"312 247 CURVE",
"334 254 OFFCURVE",
"377 261 OFFCURVE",
"421 261 CURVE SMOOTH",
"482 261 OFFCURVE",
"543 247 OFFCURVE",
"543 199 CURVE SMOOTH",
"543 192 OFFCURVE",
"542 185 OFFCURVE",
"539 178 CURVE",
"385 151 OFFCURVE",
"248 109 OFFCURVE",
"207 74 CURVE SMOOTH",
"192 61 OFFCURVE",
"186 48 OFFCURVE",
"186 38 CURVE SMOOTH",
"186 13 OFFCURVE",
"222 -2 OFFCURVE",
"262 -2 CURVE SMOOTH",
"349 -2 OFFCURVE",
"542 48 OFFCURVE",
"564 163 CURVE",
"628 175 OFFCURVE",
"700 184 OFFCURVE",
"732 182 CURVE SMOOTH",
"759 181 OFFCURVE",
"735 192 OFFCURVE",
"731 193 CURVE SMOOTH",
"724 195 OFFCURVE",
"713 196 OFFCURVE",
"701 196 CURVE SMOOTH",
"665 196 OFFCURVE",
"618 190 OFFCURVE",
"566 182 CURVE"
);
},
{
closed = 1;
nodes = (
"351 40 OFFCURVE",
"293 29 OFFCURVE",
"257 29 CURVE SMOOTH",
"236 29 OFFCURVE",
"223 33 OFFCURVE",
"223 41 CURVE SMOOTH",
"223 48 OFFCURVE",
"234 59 OFFCURVE",
"262 73 CURVE SMOOTH",
"317 102 OFFCURVE",
"426 133 OFFCURVE",
"526 155 CURVE",
"502 120 OFFCURVE",
"454 84 OFFCURVE",
"399 61 CURVE SMOOTH"
);
}
);
width = 566;
}
);
note = p;
unicode = 0070;
},
{
glyphname = q;
layers = (
{
hints = (
{
horizontal = 1;
place = "{-40, 21}";
target = up;
type = BottomGhost;
},
{
horizontal = 1;
place = "{-5, 13}";
type = Stem;
},
{
horizontal = 1;
place = "{174, 97}";
type = Stem;
},
{
place = "{20, 21}";
type = Stem;
},
{
place = "{56, 13}";
type = Stem;
},
{
place = "{255, 27}";
type = Stem;
},
{
place = "{310, 15}";
type = Stem;
},
{
horizontal = 1;
place = "{-7, 21}";
target = up;
type = BottomGhost;
},
{
horizontal = 1;
place = "{-12, 16}";
type = Stem;
}
);
layerId = "B8E2B95E-9E44-4943-9D49-9B6A251F446D";
paths = (
{
closed = 1;
nodes = (
"775 179 OFFCURVE",
"772 183 OFFCURVE",
"764 180 CURVE",
"750 167 OFFCURVE",
"740 161 OFFCURVE",
"725 149 CURVE SMOOTH",
"677 109 OFFCURVE",
"615 66 OFFCURVE",
"557 38 CURVE SMOOTH",
"512 13 OFFCURVE",
"475 3 OFFCURVE",
"446 3 CURVE SMOOTH",
"423 3 OFFCURVE",
"405 9 OFFCURVE",
"391 20 CURVE",
"389 28 OFFCURVE",
"387 34 OFFCURVE",
"385 38 CURVE",
"415 79 OFFCURVE",
"442 115 OFFCURVE",
"463 145 CURVE SMOOTH",
"474 161 OFFCURVE",
"475 177 OFFCURVE",
"469 182 CURVE SMOOTH",
"462 188 OFFCURVE",
"443 191 OFFCURVE",
"435 186 CURVE",
"393 149 OFFCURVE",
"334 102 OFFCURVE",
"292 66 CURVE SMOOTH",
"276 51 OFFCURVE",
"215 9 OFFCURVE",
"179 9 CURVE SMOOTH",
"161 9 OFFCURVE",
"149 20 OFFCURVE",
"153 52 CURVE SMOOTH",
"163 125 OFFCURVE",
"335 266 OFFCURVE",
"415 257 CURVE SMOOTH",
"443 254 OFFCURVE",
"443 224 OFFCURVE",
"443 216 CURVE SMOOTH",
"443 200 OFFCURVE",
"460 209 OFFCURVE",
"458 227 CURVE SMOOTH",
"452 266 OFFCURVE",
"437 287 OFFCURVE",
"398 287 CURVE SMOOTH",
"379 287 OFFCURVE",
"355 282 OFFCURVE",
"324 272 CURVE SMOOTH",
"233 242 OFFCURVE",
"121 128 OFFCURVE",
"121 54 CURVE SMOOTH",
"121 40 OFFCURVE",
"125 26 OFFCURVE",
"134 16 CURVE SMOOTH",
"147 1 OFFCURVE",
"164 -6 OFFCURVE",
"183 -6 CURVE SMOOTH",
"262 -6 OFFCURVE",
"375 107 OFFCURVE",
"411 146 CURVE",
"327 19 OFFCURVE",
"185 -203 OFFCURVE",
"138 -282 CURVE SMOOTH",
"113 -322 OFFCURVE",
"102 -354 OFFCURVE",
"102 -377 CURVE SMOOTH",
"102 -404 OFFCURVE",
"119 -418 OFFCURVE",
"152 -414 CURVE SMOOTH",
"219 -408 OFFCURVE",
"275 -358 OFFCURVE",
"319 -287 CURVE SMOOTH",
"366 -210 OFFCURVE",
"393 -102 OFFCURVE",
"393 -19 CURVE",
"402 -22 OFFCURVE",
"413 -23 OFFCURVE",
"425 -23 CURVE SMOOTH",
"470 -23 OFFCURVE",
"530 0 OFFCURVE",
"557 14 CURVE SMOOTH",
"651 58 OFFCURVE",
"752 150 OFFCURVE",
"768 170 CURVE SMOOTH"
);
},
{
closed = 1;
nodes = (
"256 -344 OFFCURVE",
"194 -391 OFFCURVE",
"160 -395 CURVE SMOOTH",
"145 -396 OFFCURVE",
"137 -386 OFFCURVE",
"137 -367 CURVE SMOOTH",
"137 -346 OFFCURVE",
"147 -314 OFFCURVE",
"171 -277 CURVE SMOOTH",
"241 -164 OFFCURVE",
"304 -74 OFFCURVE",
"356 -1 CURVE",
"361 -5 OFFCURVE",
"367 -9 OFFCURVE",
"373 -12 CURVE",
"375 -108 OFFCURVE",
"344 -201 OFFCURVE",
"306 -263 CURVE SMOOTH"
);
}
);
width = 557;
}
);
note = q;
unicode = 0071;
},
{
glyphname = r;
layers = (
{
hints = (
{
horizontal = 1;
place = "{-16, 18}";
type = Stem;
},
{
horizontal = 1;
place = "{196, 19}";
type = Stem;
},
{
place = "{308, 18}";
type = Stem;
},
{
horizontal = 1;
place = "{-3, 21}";
target = up;
type = BottomGhost;
},
{
place = "{324, 17}";
type = Stem;
}
);
layerId = "B8E2B95E-9E44-4943-9D49-9B6A251F446D";
paths = (
{
closed = 1;
nodes = (
"688 179 OFFCURVE",
"686 183 OFFCURVE",
"678 180 CURVE",
"610 123 OFFCURVE",
"542 70 OFFCURVE",
"465 35 CURVE SMOOTH",
"456 31 OFFCURVE",
"446 26 OFFCURVE",
"437 23 CURVE SMOOTH",
"399 9 OFFCURVE",
"367 2 OFFCURVE",
"342 2 CURVE SMOOTH",
"309 2 OFFCURVE",
"289 14 OFFCURVE",
"289 36 CURVE SMOOTH",
"289 55 OFFCURVE",
"304 83 OFFCURVE",
"338 117 CURVE SMOOTH",
"370 150 OFFCURVE",
"411 182 OFFCURVE",
"433 198 CURVE SMOOTH",
"438 202 OFFCURVE",
"440 209 OFFCURVE",
"440 216 CURVE SMOOTH",
"440 231 OFFCURVE",
"420 240 OFFCURVE",
"406 240 CURVE SMOOTH",
"396 240 OFFCURVE",
"352 215 OFFCURVE",
"318 215 CURVE SMOOTH",
"291 215 OFFCURVE",
"285 224 OFFCURVE",
"280 233 CURVE",
"291 264 OFFCURVE",
"373 349 OFFCURVE",
"392 365 CURVE SMOOTH",
"403 374 OFFCURVE",
"404 393 OFFCURVE",
"384 393 CURVE SMOOTH",
"333 393 OFFCURVE",
"255 319 OFFCURVE",
"255 258 CURVE SMOOTH",
"255 245 OFFCURVE",
"258 233 OFFCURVE",
"266 222 CURVE",
"246 203 OFFCURVE",
"218 177 OFFCURVE",
"195 158 CURVE SMOOTH",
"110 89 OFFCURVE",
"12 23 OFFCURVE",
"-58 9 CURVE SMOOTH",
"-92 2 OFFCURVE",
"-70 -3 OFFCURVE",
"-62 -3 CURVE SMOOTH",
"18 2 OFFCURVE",
"121 70 OFFCURVE",
"208 142 CURVE SMOOTH",
"230 160 OFFCURVE",
"257 188 OFFCURVE",
"267 202 CURVE SMOOTH",
"274 212 LINE",
"287 200 OFFCURVE",
"305 195 OFFCURVE",
"324 195 CURVE SMOOTH",
"339 195 OFFCURVE",
"356 199 OFFCURVE",
"371 205 CURVE",
"352 186 OFFCURVE",
"263 119 OFFCURVE",
"265 44 CURVE SMOOTH",
"266 0 OFFCURVE",
"306 -13 OFFCURVE",
"349 -13 CURVE SMOOTH",
"383 -13 OFFCURVE",
"420 -5 OFFCURVE",
"443 3 CURVE SMOOTH",
"549 41 OFFCURVE",
"665 148 OFFCURVE",
"682 170 CURVE SMOOTH"
);
}
);
width = 452;
}
);
note = r;
unicode = 0072;
},
{
glyphname = s;
layers = (
{
hints = (
{
horizontal = 1;
place = "{-35, 35}";
type = Stem;
},
{
horizontal = 1;
place = "{3, 26}";
type = Stem;
},
{
horizontal = 1;
place = "{-3, 21}";
target = up;
type = BottomGhost;
},
{
horizontal = 1;
place = "{351, 28}";
type = Stem;
},
{
place = "{165, 7}";
type = Stem;
},
{
place = "{323, 15}";
type = Stem;
},
{
place = "{336, 33}";
type = Stem;
}
);
layerId = "B8E2B95E-9E44-4943-9D49-9B6A251F446D";
paths = (
{
closed = 1;
nodes = (
"567 92 OFFCURVE",
"520 60 OFFCURVE",
"469 38 CURVE SMOOTH",
"426 19 OFFCURVE",
"370 12 OFFCURVE",
"322 15 CURVE",
"326 38 OFFCURVE",
"327 64 OFFCURVE",
"327 91 CURVE SMOOTH",
"327 116 OFFCURVE",
"326 142 OFFCURVE",
"326 167 CURVE SMOOTH",
"326 223 OFFCURVE",
"330 274 OFFCURVE",
"354 299 CURVE SMOOTH",
"370 315 OFFCURVE",
"384 323 OFFCURVE",
"411 319 CURVE SMOOTH",
"441 313 OFFCURVE",
"452 345 OFFCURVE",
"434 353 CURVE SMOOTH",
"379 373 OFFCURVE",
"330 319 OFFCURVE",
"316 272 CURVE",
"316 271 OFFCURVE",
"315 270 OFFCURVE",
"315 270 CURVE",
"271 225 OFFCURVE",
"208 170 OFFCURVE",
"146 123 CURVE",
"143 127 OFFCURVE",
"141 131 OFFCURVE",
"139 135 CURVE",
"137 137 LINE",
"131 164 LINE SMOOTH",
"122 205 OFFCURVE",
"81 149 OFFCURVE",
"93 126 CURVE SMOOTH",
"98 116 OFFCURVE",
"108 109 OFFCURVE",
"119 103 CURVE",
"92 84 OFFCURVE",
"65 66 OFFCURVE",
"41 52 CURVE SMOOTH",
"22 40 OFFCURVE",
"28 26 OFFCURVE",
"33 27 CURVE",
"57 37 OFFCURVE",
"94 61 OFFCURVE",
"133 91 CURVE",
"138 77 OFFCURVE",
"142 61 OFFCURVE",
"151 42 CURVE SMOOTH",
"176 -17 OFFCURVE",
"215 -55 OFFCURVE",
"259 -55 CURVE SMOOTH",
"290 -55 OFFCURVE",
"307 -37 OFFCURVE",
"316 -9 CURVE",
"367 -12 OFFCURVE",
"420 -3 OFFCURVE",
"469 15 CURVE SMOOTH",
"558 53 OFFCURVE",
"634 118 OFFCURVE",
"690 173 CURVE SMOOTH",
"699 182 OFFCURVE",
"694 188 OFFCURVE",
"685 185 CURVE",
"669 173 OFFCURVE",
"635 142 OFFCURVE",
"619 130 CURVE SMOOTH"
);
},
{
closed = 1;
nodes = (
"221 39 OFFCURVE",
"184 69 OFFCURVE",
"155 108 CURVE",
"210 152 OFFCURVE",
"268 203 OFFCURVE",
"309 243 CURVE",
"294 170 OFFCURVE",
"291 75 OFFCURVE",
"271 24 CURVE"
);
},
{
closed = 1;
nodes = (
"201 -13 OFFCURVE",
"175 35 OFFCURVE",
"156 82 CURVE",
"184 41 OFFCURVE",
"219 16 OFFCURVE",
"260 2 CURVE",
"252 -7 OFFCURVE",
"243 -13 OFFCURVE",
"232 -13 CURVE SMOOTH"
);
}
);
width = 463;
}
);
note = s;
unicode = 0073;
},
{
glyphname = t;
layers = (
{
hints = (
{
horizontal = 1;
place = "{-16, 20}";
type = Stem;
},
{
horizontal = 1;
place = "{198, 29}";
type = Stem;
},
{
horizontal = 1;
place = "{237, 13}";
type = Stem;
},
{
place = "{-13, 14}";
type = Stem;
},
{
place = "{186, 83}";
type = Stem;
}
);
layerId = "B8E2B95E-9E44-4943-9D49-9B6A251F446D";
paths = (
{
closed = 1;
nodes = (
"193 286 OFFCURVE",
"184 277 OFFCURVE",
"184 266 CURVE SMOOTH",
"184 256 OFFCURVE",
"192 245 OFFCURVE",
"210 241 CURVE SMOOTH",
"226 238 OFFCURVE",
"244 237 OFFCURVE",
"263 238 CURVE",
"194 169 OFFCURVE",
"134 95 OFFCURVE",
"134 40 CURVE SMOOTH",
"134 -9 OFFCURVE",
"173 -23 OFFCURVE",
"219 -23 CURVE SMOOTH",
"269 -23 OFFCURVE",
"327 -6 OFFCURVE",
"354 3 CURVE SMOOTH",
"460 41 OFFCURVE",
"576 148 OFFCURVE",
"593 170 CURVE SMOOTH",
"599 179 OFFCURVE",
"597 183 OFFCURVE",
"589 180 CURVE",
"575 167 OFFCURVE",
"564 161 OFFCURVE",
"550 149 CURVE SMOOTH",
"500 107 OFFCURVE",
"437 62 OFFCURVE",
"375 34 CURVE SMOOTH",
"366 30 OFFCURVE",
"357 26 OFFCURVE",
"348 23 CURVE SMOOTH",
"307 8 OFFCURVE",
"267 0 OFFCURVE",
"236 0 CURVE SMOOTH",
"195 0 OFFCURVE",
"167 14 OFFCURVE",
"167 44 CURVE SMOOTH",
"167 91 OFFCURVE",
"237 171 OFFCURVE",
"311 242 CURVE",
"372 249 OFFCURVE",
"437 263 OFFCURVE",
"485 265 CURVE",
"491 266 OFFCURVE",
"495 277 OFFCURVE",
"488 275 CURVE",
"456 272 OFFCURVE",
"418 271 OFFCURVE",
"379 271 CURVE SMOOTH",
"367 271 OFFCURVE",
"354 271 OFFCURVE",
"342 271 CURVE",
"395 319 OFFCURVE",
"445 357 OFFCURVE",
"468 371 CURVE SMOOTH",
"474 375 OFFCURVE",
"495 396 OFFCURVE",
"495 404 CURVE SMOOTH",
"495 418 OFFCURVE",
"460 424 OFFCURVE",
"447 419 CURVE SMOOTH",
"416 406 OFFCURVE",
"397 381 OFFCURVE",
"407 369 CURVE",
"377 342 OFFCURVE",
"338 309 OFFCURVE",
"299 273 CURVE",
"265 275 OFFCURVE",
"233 279 OFFCURVE",
"207 283 CURVE SMOOTH"
);
}
);
width = 375;
}
);
note = t;
unicode = 0074;
},
{
glyphname = u;
layers = (
{
hints = (
{
horizontal = 1;
place = "{-12, 16}";
type = Stem;
},
{
place = "{14, 28}";
type = Stem;
},
{
place = "{256, 26}";
type = Stem;
},
{
horizontal = 1;
place = "{-5, 13}";
type = Stem;
}
);
layerId = "B8E2B95E-9E44-4943-9D49-9B6A251F446D";
paths = (
{
closed = 1;
nodes = (
"780 179 OFFCURVE",
"791 198 OFFCURVE",
"772 182 CURVE SMOOTH",
"758 170 OFFCURVE",
"745 161 OFFCURVE",
"731 150 CURVE SMOOTH",
"672 104 OFFCURVE",
"597 49 OFFCURVE",
"527 23 CURVE SMOOTH",
"509 16 OFFCURVE",
"477 5 OFFCURVE",
"451 5 CURVE SMOOTH",
"427 5 OFFCURVE",
"409 15 OFFCURVE",
"415 51 CURVE SMOOTH",
"422 100 OFFCURVE",
"477 168 OFFCURVE",
"460 182 CURVE SMOOTH",
"454 188 OFFCURVE",
"438 191 OFFCURVE",
"430 186 CURVE",
"387 149 OFFCURVE",
"339 106 OFFCURVE",
"296 70 CURVE SMOOTH",
"279 55 OFFCURVE",
"222 8 OFFCURVE",
"190 8 CURVE SMOOTH",
"175 8 OFFCURVE",
"165 19 OFFCURVE",
"169 50 CURVE SMOOTH",
"174 87 OFFCURVE",
"238 149 OFFCURVE",
"290 200 CURVE SMOOTH",
"311 220 LINE SMOOTH",
"329 236 OFFCURVE",
"317 247 OFFCURVE",
"298 257 CURVE SMOOTH",
"277 268 OFFCURVE",
"240 221 OFFCURVE",
"249 216 CURVE",
"241 210 OFFCURVE",
"227 198 OFFCURVE",
"223 193 CURVE",
"178 148 OFFCURVE",
"142 95 OFFCURVE",
"142 53 CURVE SMOOTH",
"142 41 OFFCURVE",
"145 30 OFFCURVE",
"152 20 CURVE SMOOTH",
"164 2 OFFCURVE",
"180 -5 OFFCURVE",
"198 -5 CURVE SMOOTH",
"268 -5 OFFCURVE",
"368 107 OFFCURVE",
"405 146 CURVE",
"394 119 OFFCURVE",
"383 87 OFFCURVE",
"383 59 CURVE SMOOTH",
"383 20 OFFCURVE",
"401 -10 OFFCURVE",
"457 -10 CURVE SMOOTH",
"491 -10 OFFCURVE",
"523 -1 OFFCURVE",
"556 13 CURVE SMOOTH",
"649 53 OFFCURVE",
"750 134 OFFCURVE",
"775 171 CURVE SMOOTH"
);
}
);
width = 556;
}
);
note = u;
unicode = 0075;
},
{
glyphname = v;
layers = (
{
hints = (
{
horizontal = 1;
place = "{-17, 21}";
target = up;
type = BottomGhost;
},
{
horizontal = 1;
place = "{253, 15}";
type = Stem;
},
{
place = "{48, 41}";
type = Stem;
}
);
layerId = "B8E2B95E-9E44-4943-9D49-9B6A251F446D";
paths = (
{
closed = 1;
nodes = (
"149 -18 OFFCURVE",
"160 -1 OFFCURVE",
"171 16 CURVE SMOOTH",
"213 81 OFFCURVE",
"427 269 OFFCURVE",
"483 269 CURVE SMOOTH",
"492 269 OFFCURVE",
"492 267 OFFCURVE",
"489 261 CURVE SMOOTH",
"485 254 OFFCURVE",
"495 259 OFFCURVE",
"497 264 CURVE SMOOTH",
"507 284 OFFCURVE",
"492 292 OFFCURVE",
"479 292 CURVE SMOOTH",
"411 292 OFFCURVE",
"278 175 OFFCURVE",
"166 37 CURVE",
"182 65 OFFCURVE",
"214 132 OFFCURVE",
"225 165 CURVE SMOOTH",
"231 184 OFFCURVE",
"237 207 OFFCURVE",
"237 227 CURVE SMOOTH",
"237 251 OFFCURVE",
"228 269 OFFCURVE",
"199 269 CURVE SMOOTH",
"187 269 OFFCURVE",
"167 265 OFFCURVE",
"162 250 CURVE SMOOTH",
"161 245 OFFCURVE",
"161 236 OFFCURVE",
"167 236 CURVE SMOOTH",
"174 236 OFFCURVE",
"176 249 OFFCURVE",
"185 253 CURVE",
"208 252 OFFCURVE",
"188 190 OFFCURVE",
"183 175 CURVE SMOOTH",
"171 135 OFFCURVE",
"154 95 OFFCURVE",
"137 56 CURVE SMOOTH",
"129 37 OFFCURVE",
"118 16 OFFCURVE",
"112 -4 CURVE SMOOTH",
"109 -13 OFFCURVE",
"136 -18 OFFCURVE",
"142 -18 CURVE SMOOTH"
);
}
);
width = 384;
}
);
note = v;
unicode = 0076;
},
{
glyphname = w;
layers = (
{
hints = (
{
horizontal = 1;
place = "{1, 19}";
type = Stem;
},
{
horizontal = 1;
place = "{151, 17}";
type = Stem;
},
{
place = "{1, 22}";
type = Stem;
},
{
place = "{284, 50}";
type = Stem;
},
{
place = "{547, 29}";
type = Stem;
},
{
horizontal = 1;
place = "{-11, 14}";
type = Stem;
}
);
layerId = "B8E2B95E-9E44-4943-9D49-9B6A251F446D";
paths = (
{
closed = 1;
nodes = (
"674 224 OFFCURVE",
"606 258 OFFCURVE",
"609 221 CURVE SMOOTH",
"612 187 OFFCURVE",
"648 183 OFFCURVE",
"675 183 CURVE",
"677 176 OFFCURVE",
"678 169 OFFCURVE",
"678 164 CURVE SMOOTH",
"678 85 OFFCURVE",
"616 20 OFFCURVE",
"545 20 CURVE SMOOTH",
"476 20 OFFCURVE",
"457 89 OFFCURVE",
"464 157 CURVE SMOOTH",
"466 177 OFFCURVE",
"449 199 OFFCURVE",
"429 184 CURVE SMOOTH",
"372 142 LINE SMOOTH",
"376 145 OFFCURVE",
"153 -43 OFFCURVE",
"153 24 CURVE SMOOTH",
"153 83 OFFCURVE",
"230 173 OFFCURVE",
"272 193 CURVE SMOOTH",
"280 197 OFFCURVE",
"281 207 OFFCURVE",
"281 209 CURVE SMOOTH",
"281 220 OFFCURVE",
"251 237 OFFCURVE",
"243 237 CURVE SMOOTH",
"213 237 OFFCURVE",
"131 84 OFFCURVE",
"131 29 CURVE SMOOTH",
"131 -2 OFFCURVE",
"162 -11 OFFCURVE",
"187 -11 CURVE SMOOTH",
"223 -11 OFFCURVE",
"368 107 OFFCURVE",
"414 152 CURVE",
"423 75 OFFCURVE",
"454 2 OFFCURVE",
"549 2 CURVE SMOOTH",
"617 2 OFFCURVE",
"706 80 OFFCURVE",
"706 154 CURVE SMOOTH",
"706 164 OFFCURVE",
"704 173 OFFCURVE",
"701 183 CURVE",
"755 183 OFFCURVE",
"825 189 OFFCURVE",
"848 197 CURVE SMOOTH",
"854 199 OFFCURVE",
"856 210 OFFCURVE",
"850 208 CURVE SMOOTH",
"837 203 OFFCURVE",
"802 201 OFFCURVE",
"766 201 CURVE SMOOTH",
"750 201 OFFCURVE",
"734 201 OFFCURVE",
"720 202 CURVE SMOOTH",
"717 202 OFFCURVE",
"704 202 OFFCURVE",
"690 204 CURVE"
);
}
);
width = 706;
}
);
note = w;
unicode = 0077;
},
{
glyphname = x;
layers = (
{
hints = (
{
horizontal = 1;
place = "{-2, 12}";
type = Stem;
},
{
horizontal = 1;
place = "{191, 31}";
type = Stem;
},
{
horizontal = 1;
place = "{299, 36}";
type = Stem;
},
{
place = "{-169, 659}";
type = Stem;
}
);
layerId = "B8E2B95E-9E44-4943-9D49-9B6A251F446D";
paths = (
{
closed = 1;
nodes = (
"49 -69 OFFCURVE",
"43 -82 OFFCURVE",
"55 -82 CURVE SMOOTH",
"61 -82 OFFCURVE",
"71 -79 OFFCURVE",
"86 -71 CURVE SMOOTH",
"160 -33 OFFCURVE",
"258 26 OFFCURVE",
"353 90 CURVE",
"370 65 OFFCURVE",
"389 42 OFFCURVE",
"408 24 CURVE SMOOTH",
"433 0 OFFCURVE",
"464 -15 OFFCURVE",
"505 -15 CURVE SMOOTH",
"530 -15 OFFCURVE",
"560 -10 OFFCURVE",
"595 3 CURVE SMOOTH",
"701 41 OFFCURVE",
"817 148 OFFCURVE",
"834 170 CURVE SMOOTH",
"840 179 OFFCURVE",
"837 183 OFFCURVE",
"830 180 CURVE",
"816 167 OFFCURVE",
"805 161 OFFCURVE",
"790 149 CURVE SMOOTH",
"734 101 OFFCURVE",
"659 50 OFFCURVE",
"589 23 CURVE SMOOTH",
"570 16 OFFCURVE",
"553 13 OFFCURVE",
"537 13 CURVE SMOOTH",
"501 13 OFFCURVE",
"470 29 OFFCURVE",
"440 56 CURVE SMOOTH",
"431 64 OFFCURVE",
"411 85 OFFCURVE",
"390 114 CURVE",
"451 156 OFFCURVE",
"510 198 OFFCURVE",
"560 236 CURVE SMOOTH",
"582 253 OFFCURVE",
"603 269 OFFCURVE",
"621 284 CURVE SMOOTH",
"630 293 OFFCURVE",
"639 308 OFFCURVE",
"639 319 CURVE SMOOTH",
"639 329 OFFCURVE",
"632 336 OFFCURVE",
"614 336 CURVE SMOOTH",
"607 336 OFFCURVE",
"572 326 OFFCURVE",
"554 316 CURVE",
"551 309 OFFCURVE",
"565 311 OFFCURVE",
"571 311 CURVE SMOOTH",
"579 311 OFFCURVE",
"599 315 OFFCURVE",
"595 300 CURVE",
"570 282 OFFCURVE",
"551 265 OFFCURVE",
"525 246 CURVE SMOOTH",
"477 211 OFFCURVE",
"428 173 OFFCURVE",
"377 135 CURVE",
"359 163 OFFCURVE",
"340 196 OFFCURVE",
"329 227 CURVE SMOOTH",
"317 258 OFFCURVE",
"299 277 OFFCURVE",
"278 252 CURVE SMOOTH",
"259 229 OFFCURVE",
"238 206 OFFCURVE",
"216 185 CURVE SMOOTH",
"161 135 LINE",
"128 109 OFFCURVE",
"143 101 OFFCURVE",
"160 114 CURVE SMOOTH",
"178 128 OFFCURVE",
"267 202 OFFCURVE",
"283 211 CURVE",
"296 184 OFFCURVE",
"316 146 OFFCURVE",
"340 109 CURVE",
"252 45 OFFCURVE",
"160 -16 OFFCURVE",
"71 -58 CURVE SMOOTH"
);
}
);
width = 616;
}
);
note = x;
unicode = 0078;
},
{
glyphname = y;
layers = (
{
hints = (
{
horizontal = 1;
place = "{-447, 14}";
type = Stem;
},
{
horizontal = 1;
place = "{-12, 16}";
type = Stem;
},
{
horizontal = 1;
place = "{223, 30}";
type = Stem;
},
{
horizontal = 1;
place = "{257, 17}";
type = Stem;
},
{
horizontal = 1;
place = "{332, 7}";
type = Stem;
},
{
place = "{-99, 34}";
type = Stem;
},
{
place = "{13, 28}";
type = Stem;
},
{
place = "{155, 13}";
type = Stem;
},
{
place = "{255, 26}";
type = Stem;
},
{
place = "{317, 30}";
type = Stem;
},
{
horizontal = 1;
place = "{-5, 13}";
type = Stem;
}
);
layerId = "B8E2B95E-9E44-4943-9D49-9B6A251F446D";
paths = (
{
closed = 1;
nodes = (
"419 164 LINE",
"428 157 OFFCURVE",
"432 142 OFFCURVE",
"432 123 CURVE SMOOTH",
"432 81 OFFCURVE",
"413 18 OFFCURVE",
"385 -34 CURVE",
"367 -35 OFFCURVE",
"348 -38 OFFCURVE",
"330 -42 CURVE SMOOTH",
"173 -76 OFFCURVE",
"-212 -207 OFFCURVE",
"-243 -394 CURVE SMOOTH",
"-255 -470 OFFCURVE",
"-182 -495 OFFCURVE",
"-119 -494 CURVE SMOOTH",
"86 -492 OFFCURVE",
"317 -248 OFFCURVE",
"420 -50 CURVE",
"438 -49 OFFCURVE",
"455 -49 OFFCURVE",
"474 -51 CURVE SMOOTH",
"514 -54 OFFCURVE",
"554 -62 OFFCURVE",
"562 -79 CURVE SMOOTH",
"564 -85 OFFCURVE",
"574 -80 OFFCURVE",
"571 -74 CURVE SMOOTH",
"562 -52 OFFCURVE",
"518 -41 OFFCURVE",
"476 -36 CURVE SMOOTH",
"460 -34 OFFCURVE",
"445 -33 OFFCURVE",
"429 -33 CURVE",
"432 -27 OFFCURVE",
"434 -21 OFFCURVE",
"437 -16 CURVE",
"466 48 OFFCURVE",
"480 103 OFFCURVE",
"480 141 CURVE SMOOTH",
"480 180 OFFCURVE",
"465 202 OFFCURVE",
"436 198 CURVE SMOOTH",
"410 195 OFFCURVE",
"404 180 OFFCURVE",
"406 173 CURVE",
"370 139 OFFCURVE",
"333 102 OFFCURVE",
"295 70 CURVE SMOOTH",
"278 55 OFFCURVE",
"221 8 OFFCURVE",
"189 8 CURVE SMOOTH",
"174 8 OFFCURVE",
"164 19 OFFCURVE",
"168 50 CURVE SMOOTH",
"173 87 OFFCURVE",
"237 149 OFFCURVE",
"289 200 CURVE SMOOTH",
"310 220 LINE SMOOTH",
"328 236 OFFCURVE",
"316 247 OFFCURVE",
"297 257 CURVE SMOOTH",
"276 268 OFFCURVE",
"239 221 OFFCURVE",
"248 216 CURVE",
"240 210 OFFCURVE",
"226 198 OFFCURVE",
"222 193 CURVE",
"177 148 OFFCURVE",
"141 95 OFFCURVE",
"141 53 CURVE SMOOTH",
"141 41 OFFCURVE",
"144 30 OFFCURVE",
"151 20 CURVE SMOOTH",
"163 2 OFFCURVE",
"180 -5 OFFCURVE",
"199 -5 CURVE SMOOTH",
"230 -5 OFFCURVE",
"267 16 OFFCURVE",
"303 45 CURVE SMOOTH",
"350 84 OFFCURVE",
"394 140 OFFCURVE",
"416 161 CURVE SMOOTH"
);
},
{
closed = 1;
nodes = (
"-187 -479 OFFCURVE",
"-225 -452 OFFCURVE",
"-225 -410 CURVE SMOOTH",
"-225 -370 OFFCURVE",
"-190 -315 OFFCURVE",
"-105 -255 CURVE SMOOTH",
"24 -163 OFFCURVE",
"190 -88 OFFCURVE",
"325 -62 CURVE SMOOTH",
"342 -58 OFFCURVE",
"358 -56 OFFCURVE",
"374 -54 CURVE",
"282 -219 OFFCURVE",
"71 -475 OFFCURVE",
"-131 -478 CURVE SMOOTH"
);
}
);
width = 427;
}
);
note = y;
unicode = 0079;
},
{
glyphname = z;
layers = (
{
hints = (
{
horizontal = 1;
place = "{-19, 21}";
target = up;
type = BottomGhost;
},
{
horizontal = 1;
place = "{47, 28}";
type = Stem;
},
{
horizontal = 1;
place = "{237, 26}";
type = Stem;
},
{
place = "{351, 41}";
type = Stem;
}
);
layerId = "B8E2B95E-9E44-4943-9D49-9B6A251F446D";
paths = (
{
closed = 1;
nodes = (
"615 -44 OFFCURVE",
"622 -23 OFFCURVE",
"622 -7 CURVE SMOOTH",
"622 30 OFFCURVE",
"589 48 OFFCURVE",
"563 53 CURVE SMOOTH",
"531 59 OFFCURVE",
"498 61 OFFCURVE",
"465 61 CURVE SMOOTH",
"377 61 OFFCURVE",
"286 45 OFFCURVE",
"198 28 CURVE",
"243 47 LINE SMOOTH",
"309 74 OFFCURVE",
"436 143 OFFCURVE",
"494 190 CURVE SMOOTH",
"512 204 OFFCURVE",
"519 216 OFFCURVE",
"519 225 CURVE SMOOTH",
"519 253 OFFCURVE",
"454 262 OFFCURVE",
"428 263 CURVE SMOOTH",
"301 267 OFFCURVE",
"199 240 OFFCURVE",
"199 209 CURVE SMOOTH",
"199 191 OFFCURVE",
"215 175 OFFCURVE",
"220 167 CURVE",
"222 162 OFFCURVE",
"230 161 OFFCURVE",
"229 165 CURVE",
"223 179 OFFCURVE",
"230 190 OFFCURVE",
"236 194 CURVE",
"248 205 OFFCURVE",
"260 207 OFFCURVE",
"269 211 CURVE SMOOTH",
"287 219 OFFCURVE",
"379 238 OFFCURVE",
"435 238 CURVE SMOOTH",
"460 238 OFFCURVE",
"478 234 OFFCURVE",
"478 223 CURVE SMOOTH",
"478 184 OFFCURVE",
"296 86 OFFCURVE",
"266 72 CURVE SMOOTH",
"229 55 OFFCURVE",
"190 39 OFFCURVE",
"152 21 CURVE",
"149 18 LINE",
"147 18 OFFCURVE",
"144 17 OFFCURVE",
"142 17 CURVE",
"115 8 OFFCURVE",
"125 -20 OFFCURVE",
"144 -18 CURVE",
"197 -4 OFFCURVE",
"360 32 OFFCURVE",
"476 32 CURVE SMOOTH",
"548 32 OFFCURVE",
"603 19 OFFCURVE",
"603 -23 CURVE SMOOTH",
"603 -35 OFFCURVE",
"598 -50 OFFCURVE",
"588 -67 CURVE SMOOTH",
"579 -82 OFFCURVE",
"592 -77 OFFCURVE",
"598 -68 CURVE SMOOTH"
);
}
);
width = 498;
}
);
note = z;
unicode = 007A;
},
{
glyphname = braceleft;
layers = (
{
hints = (
{
place = "{68, 24}";
type = Stem;
},
{
place = "{97, 21}";
type = Stem;
}
);
layerId = "B8E2B95E-9E44-4943-9D49-9B6A251F446D";
paths = (
{
closed = 1;
nodes = (
"447 462 OFFCURVE",
"450 474 OFFCURVE",
"436 474 CURVE SMOOTH",
"376 474 OFFCURVE",
"325 455 OFFCURVE",
"294 420 CURVE SMOOTH",
"278 403 OFFCURVE",
"262 366 OFFCURVE",
"237 314 CURVE SMOOTH",
"202 236 OFFCURVE",
"165 207 OFFCURVE",
"84 200 CURVE",
"77 201 OFFCURVE",
"70 191 OFFCURVE",
"76 191 CURVE SMOOTH",
"131 191 OFFCURVE",
"163 174 OFFCURVE",
"151 133 CURVE SMOOTH",
"135 76 OFFCURVE",
"58 -5 OFFCURVE",
"51 -61 CURVE SMOOTH",
"42 -135 OFFCURVE",
"109 -133 OFFCURVE",
"156 -131 CURVE SMOOTH",
"160 -131 OFFCURVE",
"161 -126 OFFCURVE",
"155 -125 CURVE SMOOTH",
"105 -120 OFFCURVE",
"79 -109 OFFCURVE",
"94 -57 CURVE SMOOTH",
"110 5 OFFCURVE",
"164 76 OFFCURVE",
"182 129 CURVE",
"192 167 OFFCURVE",
"165 193 OFFCURVE",
"131 195 CURVE",
"189 197 OFFCURVE",
"241 236 OFFCURVE",
"265 280 CURVE SMOOTH",
"316 370 OFFCURVE",
"320 462 OFFCURVE",
"433 462 CURVE SMOOTH"
);
}
);
width = 261;
}
);
note = braceleft;
unicode = 007B;
},
{
glyphname = bar;
layers = (
{
hints = (
{
place = "{104, 32}";
type = Stem;
}
);
layerId = "B8E2B95E-9E44-4943-9D49-9B6A251F446D";
paths = (
{
closed = 1;
nodes = (
"408 444 OFFCURVE",
"408 467 OFFCURVE",
"386 467 CURVE SMOOTH",
"377 467 OFFCURVE",
"371 463 OFFCURVE",
"370 458 CURVE SMOOTH",
"334 297 OFFCURVE",
"163 -17 OFFCURVE",
"123 -81 CURVE SMOOTH",
"109 -102 OFFCURVE",
"128 -99 OFFCURVE",
"142 -83 CURVE SMOOTH",
"192 -22 OFFCURVE",
"341 256 OFFCURVE",
"392 398 CURVE SMOOTH"
);
}
);
width = 300;
}
);
note = bar;
unicode = 007C;
},
{
glyphname = braceright;
layers = (
{
hints = (
{
place = "{230, 22}";
type = Stem;
},
{
place = "{270, 26}";
type = Stem;
}
);
layerId = "B8E2B95E-9E44-4943-9D49-9B6A251F446D";
paths = (
{
closed = 1;
nodes = (
"-12 -123 OFFCURVE",
"-15 -135 OFFCURVE",
"-1 -135 CURVE SMOOTH",
"59 -135 OFFCURVE",
"110 -116 OFFCURVE",
"141 -81 CURVE SMOOTH",
"157 -64 OFFCURVE",
"173 -27 OFFCURVE",
"198 25 CURVE SMOOTH",
"233 103 OFFCURVE",
"270 132 OFFCURVE",
"351 139 CURVE",
"358 138 OFFCURVE",
"365 148 OFFCURVE",
"359 148 CURVE SMOOTH",
"304 148 OFFCURVE",
"272 165 OFFCURVE",
"284 206 CURVE SMOOTH",
"300 263 OFFCURVE",
"377 344 OFFCURVE",
"384 400 CURVE SMOOTH",
"393 474 OFFCURVE",
"326 472 OFFCURVE",
"279 470 CURVE SMOOTH",
"275 470 OFFCURVE",
"274 465 OFFCURVE",
"280 464 CURVE SMOOTH",
"330 459 OFFCURVE",
"356 448 OFFCURVE",
"341 396 CURVE SMOOTH",
"325 334 OFFCURVE",
"271 263 OFFCURVE",
"253 210 CURVE SMOOTH",
"242 171 OFFCURVE",
"269 146 OFFCURVE",
"303 144 CURVE",
"245 142 OFFCURVE",
"193 103 OFFCURVE",
"170 59 CURVE SMOOTH",
"119 -31 OFFCURVE",
"115 -123 OFFCURVE",
"2 -123 CURVE SMOOTH"
);
}
);
width = 340;
}
);
note = braceright;
unicode = 007D;
},
{
glyphname = asciitilde;
layers = (
{
hints = (
{
horizontal = 1;
place = "{396, 33}";
type = Stem;
}
);
layerId = "B8E2B95E-9E44-4943-9D49-9B6A251F446D";
paths = (
{
closed = 1;
nodes = (
"269 450 OFFCURVE",
"267 451 OFFCURVE",
"263 451 CURVE",
"252 436 OFFCURVE",
"238 429 OFFCURVE",
"222 429 CURVE SMOOTH",
"211 429 OFFCURVE",
"196 433 OFFCURVE",
"175 440 CURVE SMOOTH",
"154 446 OFFCURVE",
"138 450 OFFCURVE",
"127 450 CURVE SMOOTH",
"114 450 OFFCURVE",
"101 447 OFFCURVE",
"90 440 CURVE SMOOTH",
"62 423 OFFCURVE",
"48 410 OFFCURVE",
"48 400 CURVE SMOOTH",
"48 399 OFFCURVE",
"48 398 OFFCURVE",
"49 397 CURVE",
"52 397 OFFCURVE",
"59 401 OFFCURVE",
"70 410 CURVE SMOOTH",
"81 419 OFFCURVE",
"92 423 OFFCURVE",
"103 423 CURVE SMOOTH",
"114 423 OFFCURVE",
"131 418 OFFCURVE",
"153 409 CURVE SMOOTH",
"174 400 OFFCURVE",
"191 396 OFFCURVE",
"202 396 CURVE SMOOTH",
"212 396 OFFCURVE",
"221 399 OFFCURVE",
"230 405 CURVE SMOOTH",
"256 423 OFFCURVE",
"269 437 OFFCURVE",
"269 447 CURVE SMOOTH"
);
}
);
width = 303;
}
);
note = asciitilde;
unicode = 007E;
},
{
glyphname = dagger;
layers = (
{
hints = (
{
horizontal = 1;
place = "{403, 25}";
type = Stem;
},
{
place = "{164, 367}";
type = Stem;
}
);
layerId = "B8E2B95E-9E44-4943-9D49-9B6A251F446D";
paths = (
{
closed = 1;
nodes = (
"531 414 OFFCURVE",
"530 415 OFFCURVE",
"527 416 CURVE SMOOTH",
"495 423 OFFCURVE",
"443 427 OFFCURVE",
"369 428 CURVE",
"403 511 OFFCURVE",
"428 576 OFFCURVE",
"441 614 CURVE",
"441 637 OFFCURVE",
"399 619 OFFCURVE",
"395 608 CURVE SMOOTH",
"372 540 OFFCURVE",
"351 480 OFFCURVE",
"331 428 CURVE",
"262 427 OFFCURVE",
"209 425 OFFCURVE",
"175 421 CURVE SMOOTH",
"174 421 OFFCURVE",
"172 420 OFFCURVE",
"171 419 CURVE",
"171 415 OFFCURVE",
"174 410 OFFCURVE",
"181 404 CURVE SMOOTH",
"188 399 OFFCURVE",
"192 396 OFFCURVE",
"197 396 CURVE SMOOTH",
"196 396 OFFCURVE",
"210 397 OFFCURVE",
"241 399 CURVE SMOOTH",
"267 401 OFFCURVE",
"294 402 OFFCURVE",
"322 403 CURVE",
"170 31 OFFCURVE",
"165 18 OFFCURVE",
"164 17 CURVE",
"163 13 OFFCURVE",
"163 11 OFFCURVE",
"166 11 CURVE SMOOTH",
"168 11 OFFCURVE",
"183 23 OFFCURVE",
"184 25 CURVE SMOOTH",
"243 132 OFFCURVE",
"285 246 OFFCURVE",
"359 404 CURVE",
"421 407 OFFCURVE",
"474 408 OFFCURVE",
"518 408 CURVE SMOOTH",
"525 408 OFFCURVE",
"530 410 OFFCURVE",
"531 413 CURVE SMOOTH"
);
}
);
width = 500;
}
);
note = dagger;
unicode = 2020;
},
{
glyphname = degree;
layers = (
{
hints = (
{
horizontal = 1;
place = "{218, 32}";
type = Stem;
},
{
horizontal = 1;
place = "{449, 34}";
type = Stem;
},
{
place = "{172, 39}";
type = Stem;
},
{
place = "{394, 41}";
type = Stem;
}
);
layerId = "B8E2B95E-9E44-4943-9D49-9B6A251F446D";
paths = (
{
closed = 1;
nodes = (
"174 335 OFFCURVE",
"172 320 OFFCURVE",
"172 306 CURVE SMOOTH",
"172 255 OFFCURVE",
"205 218 OFFCURVE",
"259 218 CURVE SMOOTH",
"327 218 OFFCURVE",
"403 277 OFFCURVE",
"427 350 CURVE SMOOTH",
"432 366 OFFCURVE",
"435 381 OFFCURVE",
"435 395 CURVE SMOOTH",
"435 446 OFFCURVE",
"401 483 OFFCURVE",
"348 483 CURVE SMOOTH",
"280 483 OFFCURVE",
"204 423 OFFCURVE",
"179 350 CURVE SMOOTH"
);
},
{
closed = 1;
nodes = (
"234 404 OFFCURVE",
"287 449 OFFCURVE",
"334 449 CURVE SMOOTH",
"371 449 OFFCURVE",
"394 421 OFFCURVE",
"394 382 CURVE SMOOTH",
"394 372 OFFCURVE",
"393 361 OFFCURVE",
"389 349 CURVE SMOOTH",
"372 294 OFFCURVE",
"319 250 OFFCURVE",
"272 250 CURVE SMOOTH",
"235 250 OFFCURVE",
"211 278 OFFCURVE",
"211 317 CURVE SMOOTH",
"211 327 OFFCURVE",
"213 338 OFFCURVE",
"216 349 CURVE SMOOTH"
);
}
);
width = 500;
}
);
note = degree;
unicode = 00B0;
},
{
glyphname = cent;
layers = (
{
hints = (
{
horizontal = 1;
place = "{91, 28}";
type = Stem;
},
{
horizontal = 1;
place = "{530, -20}";
target = down;
type = TopGhost;
},
{
place = "{200, 45}";
type = Stem;
},
{
place = "{404, 44}";
type = Stem;
}
);
layerId = "B8E2B95E-9E44-4943-9D49-9B6A251F446D";
paths = (
{
closed = 1;
nodes = (
"593 524 OFFCURVE",
"588 528 OFFCURVE",
"578 530 CURVE",
"572 530 OFFCURVE",
"566 529 OFFCURVE",
"562 524 CURVE",
"539 517 OFFCURVE",
"439 400 OFFCURVE",
"419 370 CURVE",
"388 372 OFFCURVE",
"341 361 OFFCURVE",
"288 320 CURVE SMOOTH",
"236 280 OFFCURVE",
"206 240 OFFCURVE",
"200 199 CURVE SMOOTH",
"194 163 OFFCURVE",
"205 133 OFFCURVE",
"226 115 CURVE",
"209 88 OFFCURVE",
"178 50 OFFCURVE",
"149 -26 CURVE SMOOTH",
"142 -43 OFFCURVE",
"138 -55 OFFCURVE",
"137 -60 CURVE SMOOTH",
"137 -66 OFFCURVE",
"139 -68 OFFCURVE",
"148 -70 CURVE SMOOTH",
"149 -70 OFFCURVE",
"150 -68 OFFCURVE",
"151 -68 CURVE",
"194 29 OFFCURVE",
"216 64 OFFCURVE",
"245 102 CURVE",
"264 95 OFFCURVE",
"283 91 OFFCURVE",
"301 91 CURVE SMOOTH",
"323 91 OFFCURVE",
"345 96 OFFCURVE",
"367 106 CURVE SMOOTH",
"400 120 OFFCURVE",
"504 187 OFFCURVE",
"509 210 CURVE SMOOTH",
"509 211 OFFCURVE",
"508 214 OFFCURVE",
"504 214 CURVE SMOOTH",
"499 215 OFFCURVE",
"492 211 OFFCURVE",
"482 203 CURVE SMOOTH",
"412 138 OFFCURVE",
"349 110 OFFCURVE",
"298 119 CURVE SMOOTH",
"254 125 OFFCURVE",
"238 154 OFFCURVE",
"245 200 CURVE SMOOTH",
"251 232 OFFCURVE",
"266 263 OFFCURVE",
"294 296 CURVE SMOOTH",
"312 318 OFFCURVE",
"351 336 OFFCURVE",
"378 336 CURVE SMOOTH",
"396 336 OFFCURVE",
"408 328 OFFCURVE",
"404 307 CURVE",
"404 295 OFFCURVE",
"391 287 OFFCURVE",
"391 276 CURVE",
"390 271 OFFCURVE",
"391 270 OFFCURVE",
"394 269 CURVE",
"426 269 OFFCURVE",
"464 332 OFFCURVE",
"442 355 CURVE",
"512 440 OFFCURVE",
"553 475 OFFCURVE",
"589 512 CURVE",
"590 514 OFFCURVE",
"592 516 OFFCURVE",
"592 517 CURVE SMOOTH"
);
}
);
width = 494;
}
);
note = cent;
unicode = 00A2;
},
{
glyphname = ellipsis;
layers = (
{
hints = (
{
horizontal = 1;
place = "{-10, 58}";
type = Stem;
},
{
place = "{150, 63}";
type = Stem;
},
{
place = "{422, 63}";
type = Stem;
},
{
place = "{704, 63}";
type = Stem;
}
);
layerId = "B8E2B95E-9E44-4943-9D49-9B6A251F446D";
paths = (
{
closed = 1;
nodes = (
"187 50 OFFCURVE",
"160 44 OFFCURVE",
"153 26 CURVE SMOOTH",
"145 8 OFFCURVE",
"152 -8 OFFCURVE",
"166 -10 CURVE SMOOTH",
"180 -12 OFFCURVE",
"198 -2 OFFCURVE",
"207 15 CURVE SMOOTH",
"216 32 OFFCURVE",
"216 47 OFFCURVE",
"204 48 CURVE SMOOTH"
);
},
{
closed = 1;
nodes = (
"741 50 OFFCURVE",
"714 44 OFFCURVE",
"707 26 CURVE SMOOTH",
"699 8 OFFCURVE",
"706 -8 OFFCURVE",
"720 -10 CURVE SMOOTH",
"734 -12 OFFCURVE",
"752 -2 OFFCURVE",
"761 15 CURVE SMOOTH",
"770 32 OFFCURVE",
"770 47 OFFCURVE",
"758 48 CURVE SMOOTH"
);
},
{
closed = 1;
nodes = (
"459 50 OFFCURVE",
"432 44 OFFCURVE",
"425 26 CURVE SMOOTH",
"417 8 OFFCURVE",
"424 -8 OFFCURVE",
"438 -10 CURVE SMOOTH",
"452 -12 OFFCURVE",
"470 -2 OFFCURVE",
"479 15 CURVE SMOOTH",
"488 32 OFFCURVE",
"488 47 OFFCURVE",
"476 48 CURVE SMOOTH"
);
}
);
width = 794;
}
);
note = ellipsis;
unicode = 2026;
},
{
glyphname = endash;
layers = (
{
hints = (
{
horizontal = 1;
place = "{168, 32}";
type = Stem;
},
{
place = "{213, 373}";
type = Stem;
}
);
layerId = "B8E2B95E-9E44-4943-9D49-9B6A251F446D";
paths = (
{
closed = 1;
nodes = (
"519 200 OFFCURVE",
"486 201 OFFCURVE",
"457 201 CURVE SMOOTH",
"433 201 OFFCURVE",
"413 200 OFFCURVE",
"395 200 CURVE SMOOTH",
"361 200 OFFCURVE",
"260 198 OFFCURVE",
"244 195 CURVE SMOOTH",
"208 187 OFFCURVE",
"207 168 OFFCURVE",
"223 168 CURVE SMOOTH",
"297 168 OFFCURVE",
"469 174 OFFCURVE",
"556 178 CURVE SMOOTH",
"573 179 OFFCURVE",
"586 181 OFFCURVE",
"586 184 CURVE SMOOTH",
"586 187 OFFCURVE",
"577 189 OFFCURVE",
"556 193 CURVE SMOOTH"
);
}
);
width = 623;
}
);
note = endash;
unicode = 2013;
},
{
glyphname = emdash;
layers = (
{
hints = (
{
horizontal = 1;
place = "{168, 31}";
type = Stem;
},
{
place = "{213, 519}";
type = Stem;
}
);
layerId = "B8E2B95E-9E44-4943-9D49-9B6A251F446D";
paths = (
{
closed = 1;
nodes = (
"665 199 OFFCURVE",
"632 200 OFFCURVE",
"603 200 CURVE SMOOTH",
"579 200 OFFCURVE",
"559 199 OFFCURVE",
"541 199 CURVE SMOOTH",
"507 199 OFFCURVE",
"260 198 OFFCURVE",
"244 195 CURVE SMOOTH",
"208 187 OFFCURVE",
"207 168 OFFCURVE",
"223 168 CURVE SMOOTH",
"297 168 OFFCURVE",
"615 173 OFFCURVE",
"702 177 CURVE SMOOTH",
"719 178 OFFCURVE",
"732 180 OFFCURVE",
"732 183 CURVE SMOOTH",
"732 186 OFFCURVE",
"723 188 OFFCURVE",
"702 192 CURVE SMOOTH"
);
}
);
width = 769;
}
);
note = emdash;
unicode = 2014;
},
{
glyphname = Euro;
layers = (
{
hints = (
{
horizontal = 1;
place = "{-29, 15}";
type = Stem;
},
{
horizontal = 1;
place = "{132, 126}";
type = Stem;
},
{
horizontal = 1;
place = "{378, 14}";
type = Stem;
},
{
place = "{112, 46}";
type = Stem;
},
{
place = "{660, 49}";
type = Stem;
}
);
layerId = "B8E2B95E-9E44-4943-9D49-9B6A251F446D";
paths = (
{
closed = 1;
nodes = (
"383 199 OFFCURVE",
"367 203 OFFCURVE",
"338 204 CURVE SMOOTH",
"271 210 OFFCURVE",
"205 212 OFFCURVE",
"170 212 CURVE SMOOTH",
"169 212 LINE",
"180 228 OFFCURVE",
"191 242 OFFCURVE",
"205 257 CURVE",
"264 260 OFFCURVE",
"326 264 OFFCURVE",
"384 264 CURVE SMOOTH",
"413 264 OFFCURVE",
"428 266 OFFCURVE",
"428 271 CURVE SMOOTH",
"428 275 OFFCURVE",
"413 278 OFFCURVE",
"384 280 CURVE SMOOTH",
"328 283 OFFCURVE",
"271 284 OFFCURVE",
"233 284 CURVE",
"342 383 OFFCURVE",
"508 452 OFFCURVE",
"590 452 CURVE SMOOTH",
"621 452 OFFCURVE",
"640 442 OFFCURVE",
"640 421 CURVE SMOOTH",
"640 392 OFFCURVE",
"599 355 OFFCURVE",
"599 347 CURVE SMOOTH",
"599 338 OFFCURVE",
"602 337 OFFCURVE",
"608 337 CURVE SMOOTH",
"637 337 OFFCURVE",
"659 388 OFFCURVE",
"659 413 CURVE SMOOTH",
"659 457 OFFCURVE",
"624 473 OFFCURVE",
"558 473 CURVE SMOOTH",
"442 472 OFFCURVE",
"278 391 OFFCURVE",
"176 283 CURVE",
"163 283 OFFCURVE",
"152 281 OFFCURVE",
"143 280 CURVE",
"108 272 OFFCURVE",
"90 265 OFFCURVE",
"90 258 CURVE SMOOTH",
"90 254 OFFCURVE",
"101 251 OFFCURVE",
"120 251 CURVE SMOOTH",
"128 251 OFFCURVE",
"139 252 OFFCURVE",
"149 252 CURVE",
"138 239 OFFCURVE",
"128 224 OFFCURVE",
"120 210 CURVE",
"113 210 OFFCURVE",
"107 209 OFFCURVE",
"102 208 CURVE SMOOTH",
"67 200 OFFCURVE",
"49 193 OFFCURVE",
"49 185 CURVE SMOOTH",
"49 181 OFFCURVE",
"60 179 OFFCURVE",
"79 179 CURVE SMOOTH",
"103 179 LINE",
"89 148 OFFCURVE",
"82 118 OFFCURVE",
"82 86 CURVE SMOOTH",
"82 5 OFFCURVE",
"168 -35 OFFCURVE",
"253 -24 CURVE SMOOTH",
"355 -12 OFFCURVE",
"473 42 OFFCURVE",
"557 116 CURVE",
"566 126 OFFCURVE",
"570 143 OFFCURVE",
"558 134 CURVE SMOOTH",
"473 65 OFFCURVE",
"360 13 OFFCURVE",
"257 1 CURVE SMOOTH",
"185 -7 OFFCURVE",
"126 30 OFFCURVE",
"128 100 CURVE SMOOTH",
"128 127 OFFCURVE",
"137 154 OFFCURVE",
"150 180 CURVE",
"211 181 OFFCURVE",
"276 186 OFFCURVE",
"338 188 CURVE SMOOTH",
"367 188 OFFCURVE",
"383 191 OFFCURVE",
"383 196 CURVE SMOOTH"
);
}
);
width = 545;
}
);
note = Euro;
unicode = 20AC;
},
{
glyphname = currency;
layers = (
{
hints = (
{
horizontal = 1;
place = "{265, -20}";
target = down;
type = TopGhost;
},
{
horizontal = 1;
place = "{449, 34}";
type = Stem;
},
{
horizontal = 1;
place = "{548, -20}";
target = down;
type = TopGhost;
},
{
place = "{170, 40}";
type = Stem;
},
{
place = "{393, 41}";
type = Stem;
},
{
horizontal = 1;
place = "{260, -20}";
target = down;
type = TopGhost;
},
{
horizontal = 1;
place = "{218, 32}";
type = Stem;
},
{
horizontal = 1;
place = "{544, -20}";
target = down;
type = TopGhost;
}
);
layerId = "B8E2B95E-9E44-4943-9D49-9B6A251F446D";
paths = (
{
closed = 1;
nodes = (
"173 335 OFFCURVE",
"170 321 OFFCURVE",
"170 307 CURVE SMOOTH",
"170 290 OFFCURVE",
"174 273 OFFCURVE",
"181 260 CURVE",
"135 223 OFFCURVE",
"109 198 OFFCURVE",
"102 185 CURVE",
"96 177 OFFCURVE",
"98 168 OFFCURVE",
"109 161 CURVE SMOOTH",
"114 158 OFFCURVE",
"120 160 OFFCURVE",
"125 164 CURVE SMOOTH",
"138 173 OFFCURVE",
"175 206 OFFCURVE",
"203 235 CURVE",
"218 224 OFFCURVE",
"236 218 OFFCURVE",
"258 218 CURVE SMOOTH",
"286 218 OFFCURVE",
"316 228 OFFCURVE",
"343 245 CURVE",
"354 210 OFFCURVE",
"364 182 OFFCURVE",
"374 167 CURVE",
"377 160 OFFCURVE",
"383 152 OFFCURVE",
"389 151 CURVE SMOOTH",
"405 146 OFFCURVE",
"411 150 OFFCURVE",
"409 161 CURVE SMOOTH",
"407 174 OFFCURVE",
"395 209 OFFCURVE",
"369 265 CURVE",
"395 288 OFFCURVE",
"415 317 OFFCURVE",
"426 350 CURVE SMOOTH",
"431 365 OFFCURVE",
"434 380 OFFCURVE",
"434 394 CURVE SMOOTH",
"434 414 OFFCURVE",
"428 432 OFFCURVE",
"419 446 CURVE",
"467 491 OFFCURVE",
"494 520 OFFCURVE",
"501 532 CURVE SMOOTH",
"506 541 OFFCURVE",
"502 547 OFFCURVE",
"486 548 CURVE SMOOTH",
"480 549 OFFCURVE",
"472 544 OFFCURVE",
"466 539 CURVE SMOOTH",
"451 526 OFFCURVE",
"427 501 OFFCURVE",
"399 467 CURVE",
"385 477 OFFCURVE",
"367 483 OFFCURVE",
"347 483 CURVE SMOOTH",
"324 483 OFFCURVE",
"300 476 OFFCURVE",
"277 464 CURVE",
"268 498 OFFCURVE",
"260 524 OFFCURVE",
"253 537 CURVE SMOOTH",
"250 542 OFFCURVE",
"245 546 OFFCURVE",
"239 544 CURVE SMOOTH",
"223 541 OFFCURVE",
"216 535 OFFCURVE",
"216 525 CURVE SMOOTH",
"216 513 OFFCURVE",
"226 485 OFFCURVE",
"246 443 CURVE",
"215 419 OFFCURVE",
"190 386 OFFCURVE",
"178 350 CURVE SMOOTH"
);
},
{
closed = 1;
nodes = (
"233 404 OFFCURVE",
"286 449 OFFCURVE",
"333 449 CURVE SMOOTH",
"370 449 OFFCURVE",
"393 421 OFFCURVE",
"393 382 CURVE SMOOTH",
"393 372 OFFCURVE",
"392 361 OFFCURVE",
"388 349 CURVE SMOOTH",
"371 294 OFFCURVE",
"318 250 OFFCURVE",
"271 250 CURVE SMOOTH",
"234 250 OFFCURVE",
"210 278 OFFCURVE",
"210 317 CURVE SMOOTH",
"210 327 OFFCURVE",
"212 338 OFFCURVE",
"215 349 CURVE SMOOTH"
);
}
);
width = 537;
}
);
note = currency;
unicode = 00A4;
},
{
glyphname = quotesingle;
layers = (
{
hints = (
{
horizontal = 1;
place = "{361, 131}";
type = Stem;
},
{
place = "{148, 123}";
type = Stem;
}
);
layerId = "B8E2B95E-9E44-4943-9D49-9B6A251F446D";
paths = (
{
closed = 1;
nodes = (
"273 486 OFFCURVE",
"246 497 OFFCURVE",
"234 489 CURVE",
"218 462 OFFCURVE",
"190 420 OFFCURVE",
"161 384 CURVE SMOOTH",
"129 343 OFFCURVE",
"164 367 OFFCURVE",
"177 380 CURVE SMOOTH",
"206 406 OFFCURVE",
"251 454 OFFCURVE",
"271 479 CURVE"
);
}
);
width = 65;
}
);
note = quotesingle;
unicode = 0027;
},
{
glyphname = quotedbl;
layers = (
{
hints = (
{
horizontal = 1;
place = "{361, 131}";
type = Stem;
},
{
place = "{148, 228}";
type = Stem;
}
);
layerId = "B8E2B95E-9E44-4943-9D49-9B6A251F446D";
paths = (
{
closed = 1;
nodes = (
"378 486 OFFCURVE",
"351 497 OFFCURVE",
"339 489 CURVE",
"323 462 OFFCURVE",
"295 420 OFFCURVE",
"266 384 CURVE SMOOTH",
"234 343 OFFCURVE",
"269 367 OFFCURVE",
"282 380 CURVE SMOOTH",
"311 406 OFFCURVE",
"356 454 OFFCURVE",
"376 479 CURVE"
);
},
{
closed = 1;
nodes = (
"273 486 OFFCURVE",
"246 497 OFFCURVE",
"234 489 CURVE",
"218 462 OFFCURVE",
"190 420 OFFCURVE",
"161 384 CURVE SMOOTH",
"129 343 OFFCURVE",
"164 367 OFFCURVE",
"177 380 CURVE SMOOTH",
"206 406 OFFCURVE",
"251 454 OFFCURVE",
"271 479 CURVE"
);
}
);
width = 358;
}
);
note = quotedbl;
unicode = 0022;
},
{
glyphname = registered;
layers = (
{
hints = (
{
horizontal = 1;
place = "{29, 25}";
type = Stem;
},
{
horizontal = 1;
place = "{129, 25}";
type = Stem;
},
{
horizontal = 1;
place = "{280, 8}";
type = Stem;
},
{
horizontal = 1;
place = "{421, 17}";
type = Stem;
},
{
horizontal = 1;
place = "{494, 28}";
type = Stem;
},
{
place = "{191, 36}";
type = Stem;
},
{
place = "{547, 33}";
type = Stem;
},
{
place = "{693, 38}";
type = Stem;
},
{
horizontal = 1;
place = "{127, 8}";
type = Stem;
}
);
layerId = "B8E2B95E-9E44-4943-9D49-9B6A251F446D";
paths = (
{
closed = 1;
nodes = (
"731 460 OFFCURVE",
"684 522 OFFCURVE",
"560 522 CURVE SMOOTH",
"399 522 OFFCURVE",
"191 346 OFFCURVE",
"191 185 CURVE SMOOTH",
"191 72 OFFCURVE",
"263 29 OFFCURVE",
"367 29 CURVE SMOOTH",
"528 29 OFFCURVE",
"731 203 OFFCURVE",
"731 364 CURVE SMOOTH"
);
},
{
closed = 1;
nodes = (
"693 207 OFFCURVE",
"525 54 OFFCURVE",
"385 54 CURVE SMOOTH",
"291 54 OFFCURVE",
"227 90 OFFCURVE",
"227 184 CURVE SMOOTH",
"227 339 OFFCURVE",
"382 494 OFFCURVE",
"566 494 CURVE SMOOTH",
"652 494 OFFCURVE",
"693 436 OFFCURVE",
"693 356 CURVE SMOOTH"
);
},
{
closed = 1;
nodes = (
"570 147 OFFCURVE",
"579 158 OFFCURVE",
"587 169 CURVE",
"575 158 OFFCURVE",
"563 154 OFFCURVE",
"551 154 CURVE SMOOTH",
"505 154 OFFCURVE",
"466 224 OFFCURVE",
"443 280 CURVE",
"477 281 LINE",
"541 291 OFFCURVE",
"580 340 OFFCURVE",
"580 381 CURVE SMOOTH",
"580 410 OFFCURVE",
"561 435 OFFCURVE",
"517 438 CURVE",
"443 420 OFFCURVE",
"430 412 OFFCURVE",
"426 403 CURVE SMOOTH",
"401 353 OFFCURVE",
"316 142 OFFCURVE",
"280 135 CURVE",
"282 127 OFFCURVE",
"299 126 OFFCURVE",
"311 127 CURVE SMOOTH",
"334 131 OFFCURVE",
"338 142 OFFCURVE",
"357 186 CURVE SMOOTH",
"387 256 OFFCURVE",
"416 324 OFFCURVE",
"451 383 CURVE SMOOTH",
"467 411 OFFCURVE",
"477 421 OFFCURVE",
"510 421 CURVE SMOOTH",
"532 421 OFFCURVE",
"547 401 OFFCURVE",
"547 376 CURVE SMOOTH",
"547 338 OFFCURVE",
"513 289 OFFCURVE",
"426 289 CURVE SMOOTH",
"421 289 OFFCURVE",
"412 274 OFFCURVE",
"412 274 CURVE",
"437 204 OFFCURVE",
"478 129 OFFCURVE",
"531 129 CURVE SMOOTH",
"540 129 OFFCURVE",
"549 131 OFFCURVE",
"559 136 CURVE"
);
}
);
width = 689;
}
);
note = registered;
unicode = 00AE;
},
{
glyphname = copyright;
layers = (
{
hints = (
{
horizontal = 1;
place = "{29, 25}";
type = Stem;
},
{
horizontal = 1;
place = "{127, 19}";
type = Stem;
},
{
horizontal = 1;
place = "{416, 15}";
type = Stem;
},
{
horizontal = 1;
place = "{494, 28}";
type = Stem;
},
{
place = "{191, 36}";
type = Stem;
},
{
place = "{305, 39}";
type = Stem;
},
{
place = "{580, 21}";
type = Stem;
},
{
place = "{693, 38}";
type = Stem;
}
);
layerId = "B8E2B95E-9E44-4943-9D49-9B6A251F446D";
paths = (
{
closed = 1;
nodes = (
"731 460 OFFCURVE",
"684 522 OFFCURVE",
"560 522 CURVE SMOOTH",
"399 522 OFFCURVE",
"191 346 OFFCURVE",
"191 185 CURVE SMOOTH",
"191 72 OFFCURVE",
"263 29 OFFCURVE",
"367 29 CURVE SMOOTH",
"528 29 OFFCURVE",
"731 203 OFFCURVE",
"731 364 CURVE SMOOTH"
);
},
{
closed = 1;
nodes = (
"693 207 OFFCURVE",
"525 54 OFFCURVE",
"385 54 CURVE SMOOTH",
"291 54 OFFCURVE",
"227 90 OFFCURVE",
"227 184 CURVE SMOOTH",
"227 339 OFFCURVE",
"382 494 OFFCURVE",
"566 494 CURVE SMOOTH",
"652 494 OFFCURVE",
"693 436 OFFCURVE",
"693 356 CURVE SMOOTH"
);
},
{
closed = 1;
nodes = (
"601 418 OFFCURVE",
"586 431 OFFCURVE",
"558 431 CURVE SMOOTH",
"438 431 OFFCURVE",
"305 306 OFFCURVE",
"305 191 CURVE SMOOTH",
"305 144 OFFCURVE",
"339 127 OFFCURVE",
"382 127 CURVE SMOOTH",
"455 127 OFFCURVE",
"553 177 OFFCURVE",
"553 220 CURVE SMOOTH",
"553 221 OFFCURVE",
"552 222 OFFCURVE",
"551 222 CURVE",
"554 221 OFFCURVE",
"535 209 OFFCURVE",
"491 184 CURVE SMOOTH",
"447 158 OFFCURVE",
"411 146 OFFCURVE",
"384 146 CURVE SMOOTH",
"358 146 OFFCURVE",
"344 160 OFFCURVE",
"344 188 CURVE SMOOTH",
"344 234 OFFCURVE",
"369 285 OFFCURVE",
"417 340 CURVE SMOOTH",
"465 395 OFFCURVE",
"521 416 OFFCURVE",
"556 416 CURVE SMOOTH",
"591 416 OFFCURVE",
"582 391 OFFCURVE",
"580 371 CURVE",
"594 368 OFFCURVE",
"601 375 OFFCURVE",
"601 394 CURVE SMOOTH"
);
}
);
width = 695;
}
);
note = copyright;
unicode = 00A9;
},
{
glyphname = acute;
lastChange = "2020-07-28 17:46:56 +0000";
layers = (
{
hints = (
{
horizontal = 1;
place = "{484, 90}";
type = Stem;
},
{
place = "{85, 157}";
type = Stem;
}
);
layerId = "B8E2B95E-9E44-4943-9D49-9B6A251F446D";
paths = (
{
closed = 1;
nodes = (
"246 451 OFFCURVE",
"225 471 OFFCURVE",
"211 468 CURVE",
"186 448 OFFCURVE",
"145 419 OFFCURVE",
"105 396 CURVE SMOOTH",
"60 370 OFFCURVE",
"102 379 OFFCURVE",
"119 386 CURVE SMOOTH",
"155 401 OFFCURVE",
"214 429 OFFCURVE",
"242 445 CURVE"
);
}
);
width = 293;
}
);
note = acute;
unicode = 00B4;
},
{
glyphname = circumflex;
lastChange = "2020-07-28 18:33:50 +0000";
layers = (
{
hints = (
{
horizontal = 1;
place = "{324, 127}";
type = Stem;
},
{
place = "{65, 272}";
type = Stem;
}
);
layerId = "B8E2B95E-9E44-4943-9D49-9B6A251F446D";
paths = (
{
closed = 1;
nodes = (
"93 335 OFFCURVE",
"120 344 OFFCURVE",
"157 368 CURVE SMOOTH",
"190 389 OFFCURVE",
"216 407 OFFCURVE",
"231 417 CURVE",
"242 407 OFFCURVE",
"285 359 OFFCURVE",
"306 334 CURVE SMOOTH",
"311 328 OFFCURVE",
"320 339 OFFCURVE",
"311 353 CURVE SMOOTH",
"306 363 OFFCURVE",
"293 384 OFFCURVE",
"278 404 CURVE SMOOTH",
"254 435 OFFCURVE",
"239 452 OFFCURVE",
"231 453 CURVE",
"183 421 OFFCURVE",
"118 373 OFFCURVE",
"88 350 CURVE SMOOTH",
"75 340 OFFCURVE",
"77 332 OFFCURVE",
"86 334 CURVE"
);
}
);
width = 370;
}
);
note = circumflex;
unicode = 02C6;
},
{
glyphname = tilde;
lastChange = "2020-07-28 17:47:40 +0000";
layers = (
{
hints = (
{
horizontal = 1;
place = "{464, 27}";
type = Stem;
},
{
place = "{29, 222}";
type = Stem;
},
{
horizontal = 1;
place = "{437, 33}";
type = Stem;
}
);
layerId = "B8E2B95E-9E44-4943-9D49-9B6A251F446D";
paths = (
{
closed = 1;
nodes = (
"251 427 OFFCURVE",
"249 428 OFFCURVE",
"245 428 CURVE",
"233 414 OFFCURVE",
"219 407 OFFCURVE",
"203 407 CURVE SMOOTH",
"192 407 OFFCURVE",
"177 411 OFFCURVE",
"156 418 CURVE SMOOTH",
"135 425 OFFCURVE",
"119 428 OFFCURVE",
"108 428 CURVE SMOOTH",
"95 428 OFFCURVE",
"83 425 OFFCURVE",
"72 418 CURVE SMOOTH",
"44 400 OFFCURVE",
"29 388 OFFCURVE",
"29 377 CURVE SMOOTH",
"29 376 OFFCURVE",
"29 376 OFFCURVE",
"30 375 CURVE",
"33 375 OFFCURVE",
"41 379 OFFCURVE",
"52 388 CURVE SMOOTH",
"63 397 OFFCURVE",
"74 401 OFFCURVE",
"85 401 CURVE SMOOTH",
"96 401 OFFCURVE",
"112 396 OFFCURVE",
"134 387 CURVE SMOOTH",
"155 378 OFFCURVE",
"172 374 OFFCURVE",
"184 374 CURVE SMOOTH",
"194 374 OFFCURVE",
"203 377 OFFCURVE",
"211 382 CURVE SMOOTH",
"239 399 OFFCURVE",
"251 414 OFFCURVE",
"251 424 CURVE SMOOTH"
);
}
);
width = 272;
}
);
note = tilde;
unicode = 02DC;
},
